<?xml version="1.0" encoding="UTF-8" standalone="no"?>
<!-- Created with Inkscape (http://www.inkscape.org/) -->

<svg
   version="1.1"
   id="svg2"
   width="714"
   height="740"
   viewBox="0 0 714 740"
   sodipodi:docname="dep_logo_svg.jpg.svg"
   inkscape:version="1.1.2 (0a00cf5339, 2022-02-04)"
   xmlns:inkscape="http://www.inkscape.org/namespaces/inkscape"
   xmlns:sodipodi="http://sodipodi.sourceforge.net/DTD/sodipodi-0.dtd"
   xmlns="http://www.w3.org/2000/svg"
   xmlns:svg="http://www.w3.org/2000/svg">
  <defs
     id="defs6" />
  <sodipodi:namedview
     id="namedview4"
     pagecolor="#ffffff"
     bordercolor="#666666"
     borderopacity="1.0"
     inkscape:pageshadow="2"
     inkscape:pageopacity="0.0"
     inkscape:pagecheckerboard="0"
     showgrid="false"
     inkscape:zoom="0.56148649"
     inkscape:cx="136.24549"
     inkscape:cy="138.02647"
     inkscape:window-width="1920"
     inkscape:window-height="1047"
     inkscape:window-x="0"
     inkscape:window-y="33"
     inkscape:window-maximized="1"
     inkscape:current-layer="g8" />
  <g
     inkscape:groupmode="layer"
     inkscape:label="Image"
     id="g8">
    <path
       style="fill:#ffffff"
       d="M 339.41265,736.94038 C 306.06816,734.65198 273.43896,727.84142 240,716.19037 219.36647,709.00108 185.98648,692.20522 167.84569,679.88437 142.16283,662.4411 127.93109,650.79637 108.47428,631.3053 98.212649,621.02562 79.738556,599.61125 73.998081,591.34199 63.395512,576.0688 59.210783,569.76917 54.412167,561.85764 48.599723,552.2746 33.368785,522.57369 31.936906,518.03002 31.498389,516.63851 29.704719,512.125 27.950974,508 16.7733,481.7089 8.0137721,446.40329 3.3884971,409 1.3673315,392.65541 1.0831646,350.69825 2.8873108,335 7.564372,294.30393 13.177389,270.3472 26.551422,234 32.141229,218.80833 46.24889,190.27926 55.479739,175.5 63.310209,162.96285 68.159727,155.87578 77.322984,143.57837 89.042628,127.85019 115.5652,99.660712 129.39303,88.235788 133.85186,84.551782 137.725,81.288877 138,80.984889 c 1.13025,-1.24939 10.33401,-8.463064 13.88662,-10.883974 26.97369,-18.381121 31.39842,-21.03692 53.47008,-32.093676 15.1825,-7.605645 19.03643,-9.285627 33.6433,-14.665591 12.08162,-4.449871 14.47391,-5.217003 27,-8.658073 21.16882,-5.815332 24.80602,-6.5745192 46,-9.6015121 41.17723,-5.88106534 79.77926,-4.70380469 122.02567,3.7214627 19.53208,3.8953124 53.29474,14.4875974 67.75275,21.2559204 16.22531,7.595665 24.80696,11.916048 33.00696,16.617171 C 539.89234,49.604478 544.25301,52 544.47575,52 545.5467,52 570.6569,69.476873 579.5,76.377111 c 25.36321,19.790824 55.13881,50.235779 70.00091,71.574549 2.08835,2.99841 4.19905,5.92341 4.69046,6.5 1.33972,1.57194 11.84913,18.01397 16.96916,26.54834 5.49008,9.15118 17.86728,33.50684 20.84202,41.0126 1.19615,3.01807 3.06885,7.7374 4.16157,10.4874 5.46478,13.75302 9.44786,26.39964 14.75803,46.85797 L 714,291.21593 v 78.22922 78.22922 l -3.38143,13.41282 c -8.12164,32.2153 -21.34488,65.38171 -36.44574,91.41281 -2.23342,3.85 -5.18446,9.07022 -6.55788,11.60049 -9.29489,17.12415 -33.00018,47.23311 -53.11495,67.46324 -24.7607,24.90271 -46.8715,41.74847 -81,61.71224 -12.28125,7.18402 -41.27401,19.96996 -58,25.57827 -11.37114,3.8128 -37.53833,10.70063 -49.5,13.02957 -22.49914,4.38061 -62.44532,6.7134 -86.58735,5.05657 z M 401,726.53074 c 25.78472,-3.65279 30.49078,-4.53912 47.03599,-8.85868 42.69052,-11.14548 78.62699,-27.92183 115.96401,-54.13588 4.79464,-3.36628 19.60014,-14.99925 21,-16.50011 0.275,-0.29484 2.525,-2.16517 5,-4.15628 6.05491,-4.87113 21.90592,-20.67847 31.62299,-31.53588 16.95649,-18.94642 32.63837,-40.85852 45.33346,-63.34391 8.66116,-15.34053 20.92604,-42.52877 25.0366,-55.5 0.69718,-2.2 1.56458,-4.45 1.92756,-5 3.43564,-5.20577 13.32205,-47.62817 15.96371,-68.5 2.68706,-21.2305 3.1149,-28.06446 3.10321,-49.56772 C 712.96065,320.02802 704.94886,278.60917 686.21009,231 681.31268,218.55727 669.94296,195.73104 663.04849,184.5 660.68507,180.65 657.86,175.925 656.77056,174 651.14084,164.05248 628.8485,134.98568 618.34588,123.89839 573.71381,76.78168 525.93595,45.973476 468.09033,27.01034 426.83212,13.484939 377.82935,7.5366299 336.5,11.036957 312.0084,13.111236 287.41253,17.443869 268.10029,23.085764 264.47013,24.146283 259.025,25.741831 256,26.631427 c -5.39916,1.587793 -31.60311,11.627615 -34.84774,13.351619 -0.90874,0.482851 -6.60226,3.326392 -12.65226,6.31898 -6.05,2.992588 -12.8,6.480098 -15,7.750023 -2.2,1.269925 -5.35,3.032066 -7,3.91587 -3.47019,1.858768 -5.42677,3.085903 -15,9.407758 C 161.35282,74.076549 160.35841,74.782153 151,81.921784 115.03226,109.36197 82.61446,146.10398 60.05108,185.00238 34.921191,228.32533 21.567571,267.1437 13.095543,321.5 c -2.905756,18.64325 -3.8191354,55.40982 -1.937727,78 4.60025,55.23549 22.66305,111.75985 50.170572,157 3.344768,5.50096 18.202555,27.99624 19.709471,29.84092 0.520768,0.63749 5.726656,7.00908 11.568639,14.15908 27.607142,33.78837 60.564192,61.73955 96.893502,82.17629 24.02351,13.51422 33.43727,17.8433 56.5,25.98253 27.8325,9.82256 53.58887,15.62634 81,18.25203 6.325,0.60586 13.3,1.28207 15.5,1.50269 8.32157,0.83448 48.43139,-0.45644 58.5,-1.8828 z M 322,715.96562 C 285.13096,711.64405 250.78285,701.77539 217.5,685.94138 199.21412,677.24205 177.2711,663.96607 160.5516,651.48645 147.41632,641.68213 147.44518,641.70638 129.61963,625.5 109.32016,607.04443 82.37035,572.99084 67.495191,547 62.087192,537.5508 49,511.46108 49,510.12928 49,509.66032 47.714495,506.40189 46.143322,502.88832 36.793236,481.97896 27.460759,447.28531 23.577643,419 16.914659,370.46564 20.487497,318.07096 33.601699,272 c 6.877928,-24.16256 18.975727,-52.9397 32.37051,-77 9.04979,-16.25564 29.217613,-45.44826 35.578951,-51.5 0.57813,-0.55 2.69469,-3.07518 4.70346,-5.6115 C 118.35222,122.61372 146.9974,96.842194 169,81.437664 c 14.26127,-9.984648 16.16136,-11.153559 34,-20.91642 51.65437,-28.269776 116.46867,-42.927777 174.70212,-39.509547 22.15583,1.300519 56.45389,6.34093 67.63378,9.939398 1.74025,0.560136 7.2141,2.182781 12.1641,3.605877 53.57367,15.402124 107.55827,48.423412 147.7686,90.387078 9.65317,10.07408 24.41932,27.39195 29.03794,34.05595 6.78112,9.78417 20.9272,31.6264 22.02003,34 0.37985,0.825 1.65348,3.075 2.8303,5 11.25997,18.41869 25.63985,54.83051 33.17356,84 9.90529,38.35198 13.31778,87.40546 8.73062,125.5 -2.85716,23.72757 -4.80371,34.71109 -8.94982,50.5 -6.23224,23.73317 -15.81741,49.53244 -25.50366,68.64523 -1.43416,2.82987 -2.60757,5.40945 -2.60757,5.73238 0,0.32294 -1.71669,3.40759 -3.81488,6.85478 -2.09818,3.44718 -4.13108,7.1125 -4.51755,8.14515 -0.96932,2.58999 -16.438,25.88563 -22.74708,34.25683 -9.84488,13.06265 -19.46085,23.92651 -33.95874,38.36563 -16.12895,16.06358 -15.78111,15.74959 -28.51978,25.74404 -17.3962,13.64862 -38.87054,27.43183 -56.44197,36.22703 -37.85223,18.94654 -74.10199,29.63447 -117,34.49644 -18.64839,2.11357 -54.74733,1.872 -75,-0.50189 z m 65.22173,-4.44339 c 17.43649,-1.42754 28.97091,-3.05035 43.77827,-6.15927 12.34305,-2.59152 34.41377,-8.89733 41.5,-11.85692 1.65,-0.68913 7.42236,-2.95125 12.82746,-5.02694 12.19712,-4.68398 36.35815,-16.69078 47.70131,-23.70511 24.94429,-15.42495 42.95286,-29.67152 63.5001,-50.23489 19.54101,-19.55635 34.78461,-38.68147 48.65094,-61.0391 1.36446,-2.2 3.61222,-5.8 4.99504,-8 2.92439,-4.65256 17.29352,-33.45359 20.69808,-41.48656 6.13093,-14.46579 14.91067,-42.27204 18.47543,-58.51344 2.33214,-10.62544 5.44783,-30.65294 6.76733,-43.5 1.55215,-15.11221 1.54115,-51.50534 -0.0199,-66 C 692.0811,298.7242 681.1294,256.7697 668.4772,230.19703 666.56474,226.18039 665,222.61444 665,222.27269 665,221.40683 657.61748,207.09713 652.21951,197.5 646.48375,187.3023 633.97906,168.06606 628.62849,161.20943 622.59992,153.48395 613.71195,142.65446 612.45258,141.5 c -0.59998,-0.55 -4.43476,-4.77572 -8.52173,-9.39048 C 587.67866,113.7585 556.1124,88.274652 530.32613,72.687479 499.47558,54.039073 460.06338,39.22523 422.46481,32.145694 398.26297,27.588665 386.73235,26.535534 361.5,26.577567 c -26.20632,0.04366 -41.22543,1.584584 -68,6.976659 -39.97163,8.049804 -84.62139,27.090222 -117.5,50.106638 -8.93439,6.25445 -18.49442,13.314985 -20.5631,15.186818 -0.81917,0.741225 -4.74009,4.041988 -8.71315,7.335038 -38.09809,31.57736 -71.586562,76.97134 -92.725915,125.69098 -9.50609,21.90859 -18.464694,51.30793 -21.978412,72.1263 -0.603388,3.575 -1.527519,8.75 -2.053624,11.5 C 27.948401,326.04511 26,353.07675 26,370.52051 26,455.83408 57.343275,537.96938 113.95222,601 c 12.83439,14.29032 30.0717,30.67863 41.04778,39.02603 2.475,1.88226 4.725,3.67576 5,3.98555 0.275,0.30979 3.65,2.80042 7.5,5.53474 21.00795,14.9201 38.47893,24.90495 63,36.00513 28.00985,12.67948 67.70905,22.75098 100.16339,25.41097 7.06013,0.57866 14.63661,1.19819 16.83661,1.37674 9.87351,0.80132 23.3383,0.5244 39.72173,-0.81693 z M 322.20218,679.42906 C 320.36851,678.1447 313.95162,668.11437 309.4526,659.5 c -1.14899,-2.2 -3.52671,-6.52173 -5.28381,-9.60384 -1.78257,-3.12678 -3.2995,-7.32605 -3.43176,-9.5 L 300.5,636.5 l 7.59399,0.22684 7.59398,0.22684 1.26339,-7.06947 c 0.8092,-4.52801 0.91746,-7.41539 0.30115,-8.0317 -1.10793,-1.10793 -13.35075,-3.14645 -17.64838,-2.93858 -1.59273,0.077 -4.87612,-0.61619 -7.29642,-1.54051 -2.58942,-0.98892 -4.745,-1.3087 -5.23748,-0.777 -0.46032,0.49697 -2.49494,5.17858 -4.52138,10.40358 -2.02644,5.225 -4.55393,11.32958 -5.61665,13.56572 -1.06271,2.23615 -1.92526,4.48615 -1.91678,5 0.0355,2.14975 -8.60669,21.41587 -9.61043,21.42468 -1.94312,0.017 -4.40499,-3.56987 -4.40499,-6.41801 0,-1.52357 0.64448,-4.18814 1.43219,-5.92126 2.45088,-5.3925 9.56781,-24.20918 9.56781,-25.29666 0,-1.16915 -1.98401,-2.16999 -13.92929,-7.02667 -10.7808,-4.38322 -14.57105,-4.23576 -17.278,0.6722 -2.94581,5.34103 -1.86089,13.48069 3.10704,23.31071 3.20624,6.34418 3.66814,7.91787 2.46006,8.38146 -3.70776,1.4228 -6.09045,-1.37842 -9.24812,-10.8726 -4.02334,-12.097 -4.8832,-20.03733 -2.72833,-25.19466 0.88915,-2.12804 1.61664,-4.25904 1.61664,-4.73556 0,-0.47653 -2.79004,-2.89657 -6.20008,-5.37788 -8.02066,-5.8362 -12.18812,-6.13065 -15.61141,-1.10303 -2.94217,4.32105 -4.4948,14.76775 -3.61772,24.34156 l 0.66419,7.25 h -2.58231 c -4.06316,0 -5.01111,-2.98724 -4.26094,-13.42734 1.40189,-19.50988 4.96388,-28.55583 11.8853,-30.1836 5.05013,-1.18768 6.37166,-0.67019 18.3985,7.20466 6.22118,4.07345 11.76221,7.40628 12.3134,7.40628 0.5512,0 5.39168,1.84685 10.75662,4.10411 13.39957,5.63776 16.62433,6.78533 17.51698,6.23364 1.34712,-0.83257 3.81368,-7.66641 3.01042,-8.34063 -0.65568,-0.55035 -8.62225,-4.05788 -15.77295,-6.94454 -14.72554,-5.94453 -22.78375,-9.71224 -24.23349,-11.33066 -2.3233,-2.59363 -15.14602,-11.23986 -18.01059,-12.14436 -1.23424,-0.38972 -2.94258,-1.40708 -3.79631,-2.26081 C 213.22833,576.08547 206.7747,571 205.90539,571 205.40742,571 205,572.14293 205,573.53984 c 0,4.69165 -3.82361,10.55176 -7.93981,12.16865 l -3.78632,1.48731 -0.55292,7.31086 c -0.30411,4.02097 -1.05196,8.24333 -1.66191,9.38301 -1.91762,3.58312 -8.14336,7.11073 -12.54117,7.10605 -6.37494,-0.007 -15.28533,-6.81399 -19.62889,-14.99572 -2.16218,-4.07278 -2.37745,-5.63925 -2.26752,-16.5 0.14081,-13.91094 2.59407,-24.72524 5.74673,-25.33239 3.4556,-0.66549 3.75408,1.32364 1.07628,7.17272 -2.14425,4.68366 -2.63526,7.32893 -2.77486,14.94932 -0.14927,8.14815 0.13599,9.85556 2.37818,14.23454 1.93774,3.78437 3.73359,5.6287 7.5,7.70245 6.27835,3.4568 9.22746,3.46182 13.7359,0.0234 6.46409,-4.92999 5.85045,-11.37537 -1.46632,-15.4015 -4.04423,-2.22537 -4.33665,-2.67533 -4.62216,-7.11209 C 178.02757,573.13139 178.3032,571 178.8077,571 c 0.50451,0 2.58489,1.32524 4.62306,2.94498 2.03818,1.61974 5.29925,3.47087 7.24683,4.11363 3.08149,1.01698 3.88376,0.91357 6.18173,-0.7968 2.19977,-1.63728 2.68745,-2.86677 2.92079,-7.36363 l 0.28012,-5.39818 -8.1217,-7 c -4.46693,-3.85 -9.99298,-8.68115 -12.28011,-10.73588 -2.28713,-2.05474 -4.48009,-3.74224 -4.87324,-3.75 -0.39315,-0.008 -1.21187,-0.94289 -1.81939,-2.07804 -0.8199,-1.53199 -0.79741,-2.43404 0.0873,-3.5 1.91527,-2.30776 3.82009,-1.70618 8.91,2.81392 2.63217,2.3375 10.35477,9.18658 17.16135,15.22018 6.80658,6.0336 13.7256,12.22762 15.3756,13.76449 1.65,1.53687 6.15,4.67411 10,6.97165 3.85,2.29753 11.05,6.92107 16,10.27453 7.56898,5.12774 19.68993,11.51915 21.84541,11.51915 0.32743,0 2.97116,1.08294 5.87495,2.40654 19.28084,8.78852 23.63433,9.92482 64.27964,16.77752 13.85118,2.33528 15.5,2.97032 15.5,5.96977 0,2.70161 -2.38126,3.28949 -8.33583,2.05793 -2.84029,-0.58745 -6.78799,-1.33386 -8.77266,-1.65869 l -3.60848,-0.5906 -0.60763,4.76877 c -1.18251,9.28054 -2.64016,12.30099 -9.19383,19.05088 l -6.36063,6.55107 1.54552,3.08341 c 2.50552,4.99866 10.14125,16.05413 12.83793,18.58753 1.37259,1.28947 2.49561,2.88857 2.49561,3.55355 0,1.84431 -3.62988,2.38986 -5.79782,0.87138 z M 405.75,676.9199 c -0.9625,-0.5606 -1.71933,-1.55942 -1.68184,-2.21959 0.0375,-0.66017 3.63749,-4.32586 8,-8.14599 C 416.43067,662.7342 420,659.2467 420,658.80432 420,658.36195 418.6957,658 417.10155,658 c -3.47024,0 -12.97275,-4.83411 -18.65456,-9.48992 -3.95154,-3.23799 -4.16521,-3.7205 -6.05956,-13.68321 L 390.42384,624.5 h -2.96192 c -2.48932,0 -3.0125,-0.4397 -3.27889,-2.75569 -0.18622,-1.61895 0.22629,-2.95028 1,-3.22743 0.72433,-0.25947 8.96697,-1.80651 18.31697,-3.43787 38.56863,-6.72936 33.3127,-5.2061 56.75,-16.4472 7.5625,-3.62716 13.75,-6.9848 13.75,-7.46142 0,-1.04213 -7.72758,-3.62262 -15.90851,-5.31237 -5.30168,-1.09504 -6.41261,-1.02439 -10.26818,0.65298 -2.37782,1.03447 -5.51778,2.69269 -6.97768,3.68493 C 439.38573,591.18817 437.45088,592 436.54597,592 434.37836,592 429,589.19232 429,588.06076 c 0,-0.96885 11.52876,-7.83118 16.75599,-9.97377 4.1492,-1.70071 6.37598,-1.22091 22.66622,4.88386 l 13.36999,5.0104 4.58976,-1.70108 c 4.43766,-1.64471 4.63721,-1.63621 6.02122,0.25653 1.90033,2.59886 0.94622,3.57835 -6.89208,7.07542 -3.56008,1.58833 -6.72804,3.64778 -7.03991,4.57655 -0.31187,0.92877 0.57953,3.95131 1.98089,6.71676 1.40135,2.76544 2.54792,5.49573 2.54792,6.06731 0,0.57157 -4.70976,3.38154 -10.46614,6.24438 -7.94769,3.95265 -10.73824,5.86208 -11.59696,7.93521 -1.51234,3.65111 0.28855,9.11014 3.75454,11.38115 3.34667,2.19282 10.99979,2.19467 15.23671,0.004 2.7107,-1.40175 3.17142,-2.11095 2.67347,-4.11538 -0.33089,-1.33197 -0.86135,-3.45403 -1.1788,-4.71567 -0.94075,-3.73886 2.53227,-7.1321 7.16539,-7.00077 5.45212,0.15455 7.66038,3.12914 7.23572,9.74675 L 495.5,635.5 l 6.85262,3.27389 c 5.89748,2.81756 6.67555,3.48724 5.58224,4.80459 -3.10597,3.74248 -4.58202,3.5833 -10.04957,-1.08371 -5.90615,-5.04141 -6.95316,-5.29469 -10.74009,-2.59816 -3.94198,2.80694 -10.22272,4.1877 -15.75326,3.4632 -8.77948,-1.15011 -14.05079,-5.07368 -17.6019,-13.10156 -3.27652,-7.4071 -0.51052,-11.50739 11.45996,-16.98817 4.2625,-1.95162 7.75,-3.72523 7.75,-3.94136 C 473,608.18339 470.00661,602 469.45216,602 c -0.82339,0 -5.12111,1.94316 -19.12965,8.64921 C 444.17488,613.59214 437.78475,616 436.1222,616 c -3.88924,0 -5.02075,2.08995 -3.97429,7.3407 2.26178,11.34889 6.92342,39.04841 7.50009,44.56565 l 0.65286,6.2462 -3.77256,-1.57628 C 434.4534,671.70932 432.60121,671 432.41232,671 c -0.18889,0 -0.64325,-2.2601 -1.00969,-5.02244 -0.36643,-2.76235 -1.07183,-5.27311 -1.56754,-5.57948 -0.49571,-0.30637 -5.33271,3.52873 -10.74889,8.52245 -5.41618,4.99371 -10.23879,9.06579 -10.7169,9.04906 -0.47812,-0.0167 -1.6568,-0.48908 -2.6193,-1.04969 z m 14.70999,-27.0061 c 7.43541,-3.49505 7.23159,-2.56152 4.56624,-20.9138 -0.67896,-4.675 -1.57349,-8.86337 -1.98784,-9.30749 -0.79604,-0.85322 -16.95998,1.0423 -20.78839,2.43782 -2.97926,1.086 -2.84687,3.50046 1.28877,23.50398 0.44936,2.17349 7.31808,6.21949 10.72213,6.31585 0.96849,0.0274 3.75808,-0.88895 6.19909,-2.03636 z m 98.195,-35.74254 C 517.74474,613.16545 517,611.38111 517,610.20606 c 0,-3.26903 5.64803,-9.0342 9.99822,-10.20558 4.08916,-1.1011 6.00178,-4.33556 6.00178,-10.1497 0,-3.08685 -1.42361,-3.63357 -3.92126,-1.5059 -2.777,2.36563 -10.18817,4.74059 -16.687,5.34746 -6.24304,0.58298 -6.34916,0.55024 -9.97795,-3.07855 -3.39619,-3.39619 -3.6297,-4.00591 -3.15318,-8.23354 0.4016,-3.56301 1.35623,-5.42763 4.34669,-8.49014 7.14178,-7.31384 14.67962,-9.46799 22.17482,-6.33706 10.88514,4.54698 17.31906,18.04532 14.30556,30.01301 -0.64775,2.57247 -0.99256,4.86239 -0.76624,5.08871 0.37162,0.37163 7.79792,2.25786 14.92856,3.79177 3.06233,0.65875 3.72529,3.49915 1.2887,5.52134 -1.52895,1.26892 -1.93135,1.19208 -14.4512,-2.75954 -4.33085,-1.36694 -5.50033,-1.44733 -5.85203,-0.40224 -1.94961,5.79334 -12.96675,9.35829 -16.58048,5.36516 z M 524.75,585.53624 c 5.83172,-2.71506 6.36317,-4.16419 3.17116,-8.64696 C 525.48351,573.46592 521.14203,571 517.55254,571 513.64331,571 507,577.47654 507,581.28762 c 0,7.01102 7.80424,8.87903 17.75,4.24862 z m 37.11575,-4.24933 C 556.18628,575.90411 547.99832,568.0125 543.67027,563.75 536.62462,556.81105 533,554.45407 533,556.81144 533,558.36922 528.90789,562 527.15217,562 c -0.97345,0 -2.59312,-0.60195 -3.59927,-1.33766 -1.97932,-1.44731 -2.68864,-0.52983 15.15234,-19.59882 l 5.20524,-5.56352 2.21137,2.19438 2.21136,2.19439 -3.6666,4.0585 c -4.21828,4.66913 -4.39454,5.42946 -1.69671,7.3191 3.18018,2.22748 38.0301,35.90039 38.0301,36.74568 0,0.42412 -1.2375,1.06629 -2.75,1.42703 -1.5125,0.36074 -3.49429,0.87614 -4.40398,1.14532 -1.10076,0.32572 -5.10789,-2.78408 -11.98027,-9.29749 z M 347,582.02121 C 298.4652,578.28636 252.94465,557.84001 218.5,524.3032 204.91938,511.08052 187.37202,488.29574 180.52988,475 167.50719,449.69415 163.24208,438.2085 158.01701,414.37437 146.24389,360.67129 156.79237,301.02736 186.27853,254.5763 203.54228,227.37981 230.79038,200.69744 257,185.32316 c 25.05442,-14.69666 46.6258,-22.15442 79.06502,-27.33472 12.11176,-1.93415 50.969,-0.81938 62.93498,1.80554 28.41144,6.23249 48.72824,14.14359 70.22862,27.34612 14.71113,9.03352 35.89958,26.57524 45.45872,37.63485 3.19697,3.69878 6.0388,6.95005 6.31519,7.22505 1.4106,1.40351 9.40016,12.44844 14.1057,19.5 11.39052,17.06944 23.21523,43.84726 28.36241,64.22851 13.32902,52.77882 5.47671,114.31367 -20.17526,158.10412 C 540.93292,477.86557 539,481.35639 539,481.59 c 0,0.88023 -11.47973,17.16877 -16.49875,23.41 -9.21726,11.46181 -24.47534,26.30748 -36.37818,35.3949 C 446.728,570.47172 395.62232,585.7628 347,582.02121 Z m 41.5,-7.03122 c 26.95175,-4.03658 53.37883,-13.34501 76,-26.76956 15.87967,-9.4238 39.17935,-29.60573 52.20617,-45.22043 30.54239,-36.60988 47.50823,-83.94449 47.49114,-132.5 -0.009,-25.31224 -3.18689,-45.34972 -10.90936,-68.78462 -3.87427,-11.75701 -14.47803,-33.8045 -22.02136,-45.78714 C 516.30938,232.1686 492.54415,208.49188 468.5,193.39541 434.07842,171.78332 392.2164,160.45498 354,162.41039 c -41.79541,2.13854 -80.5376,16.10445 -113.25354,40.82598 -8.20179,6.19762 -29.95756,27.26311 -35.78564,34.65022 -30.49478,38.65222 -45.98473,83.47424 -45.95262,132.96936 0.0252,38.87502 11.50048,77.98565 32.86513,112.0129 14.71792,23.44107 40.3929,48.94502 63.40516,62.98279 26.85293,16.38062 52.29339,25.42114 83.28538,29.59628 11.98863,1.61507 37.66725,1.37959 49.93613,-0.45793 z m -40,-20.65884 c -2.2,-0.25564 -4.32292,-0.78015 -4.71759,-1.16557 -0.39468,-0.38542 0.45324,-4.29285 1.88427,-8.68317 4.84688,-14.86996 4.01396,-40.90748 -1.72351,-53.87799 -1.13156,-2.55807 -2.67657,-7.61044 -3.43335,-11.22747 -0.75678,-3.61704 -1.56479,-6.76526 -1.79558,-6.99604 -0.76825,-0.76825 -11.75162,11.08363 -12.32982,13.3048 -0.38604,1.48302 0.4588,3.67952 2.62787,6.83215 7.61387,11.06638 9.01516,24.39439 3.7369,35.54245 C 328.51156,537.01047 318.97991,545 312.53984,545 c -3.07128,0 -3.34084,-2.49083 -0.98741,-9.12427 3.56119,-10.0377 0.8754,-22.8131 -6.24311,-29.69638 -4.16828,-4.03053 -5.10794,-3.49529 -7.80773,4.44737 C 294.83501,518.47167 290.24752,523 284.96667,523 c -4.50621,0 -5.10107,-1.59628 -2.47283,-6.63569 1.9514,-3.74165 1.9096,-7.78459 -0.0977,-9.45052 -1.35054,-1.12085 -2.10082,-1.04221 -4.75,0.49783 C 272.70446,510.28434 264.0533,513 259.84345,513 256.48726,513 256,512.70516 256,510.67431 c 0,-1.27912 1.125,-3.38256 2.5,-4.67431 2.03121,-1.90823 2.4993,-3.30039 2.49626,-7.42431 -0.006,-8.38615 -0.51073,-8.93021 -24.49626,-26.41373 -11.61557,-8.46681 -25.97933,-23.93111 -31.76799,-34.20204 C 200.4158,430.30159 194,413.26041 194,409.45432 c 0,-0.83698 -1.575,-2.45104 -3.5,-3.58682 -4.31895,-2.54825 -4.40377,-4.52683 -0.4354,-10.1568 3.73313,-5.29624 3.31654,-8.38811 -1.66539,-12.36019 -4.54635,-3.62479 -4.41527,-6.37771 0.48859,-10.26165 2.69897,-2.13762 4.08907,-4.15204 4.546,-6.58768 0.82846,-4.41607 6.60574,-15.45455 11.5149,-22.00118 6.8139,-9.0867 22.18736,-22.7069 23.40537,-20.73612 0.67586,1.09357 -1.14005,3.15388 -7.18154,8.1481 C 210.48366,340.74798 197,361.8985 197,369.82911 c 0,4.38967 2.06788,6.18099 9.52111,8.2477 14.29659,3.96433 46.58301,0.81907 52.51827,-5.11619 4.31023,-4.31023 1.57228,-15.21628 -7.20776,-28.71062 -3.11006,-4.77996 -4.62692,-6.25 -6.44908,-6.25 -2.19532,0 -2.39008,0.41255 -2.47854,5.25 -0.12285,6.71854 -2.05041,14.97071 -3.61829,15.49038 -0.90922,0.30136 -1.21428,-2.7482 -1.21428,-12.13878 0,-10.64116 -0.30843,-13.14583 -2.03572,-16.53159 C 233.63591,325.366 233.58437,325 235.32172,325 c 1.53731,0 14.29312,12.99773 20.60912,21 2.38756,3.025 5.19957,7.525 6.24891,10 1.04934,2.475 3.88653,7.425 6.30486,11 l 4.39697,6.5 -1.10184,5.39432 c -1.0988,5.37946 -1.0931,5.4015 2.06823,8 4.72316,3.88227 3.94308,8.10568 -1.49715,8.10568 -0.97625,0 -1.28946,-0.61798 -0.91352,-1.80246 0.84785,-2.67132 -1.35077,-4.83421 -6.72225,-6.61299 -5.93952,-1.96689 -9.32141,-1.98581 -18.21542,-0.10191 -3.8498,0.81545 -9.69963,1.50615 -12.99963,1.53488 -12.15111,0.10582 -33.31866,5.30159 -37.51111,9.20745 -2.45727,2.2893 -2.58211,4.7788 -0.23889,4.76391 0.9625,-0.006 6.66079,-1.82205 12.66286,-4.03539 10.23526,-3.77439 11.91175,-4.08554 27,-5.01115 8.84793,-0.54279 16.64914,-1.18755 17.33603,-1.4328 0.68688,-0.24525 2.26188,-0.0587 3.5,0.41455 l 2.25111,0.86047 -2.5,0.61409 c -1.375,0.33775 -5.6087,1.03737 -9.40822,1.55471 -3.79952,0.51734 -7.29381,1.52697 -7.76508,2.24363 -1.31146,1.9943 0.0953,13.05304 3.27947,25.78076 2.67883,10.70769 3.39219,12.2508 10.63265,23 12.69148,18.84178 12.25755,18.42005 28.76118,27.95259 5.03883,2.91044 8.14729,4.04692 11.09501,4.05644 4.22207,0.0136 7.40499,-2.18393 7.40499,-5.11257 0,-1.7824 -5.61949,-7.19235 -12.82158,-12.34349 -6.90842,-4.9411 -12.00905,-11.93772 -16.58371,-22.74814 -4.26214,-10.07191 -5.58081,-16.8721 -5.58892,-28.82114 -0.004,-6.39812 -0.48086,-9.47039 -1.90094,-12.25578 -2.11926,-4.15681 -1.80345,-4.75302 2.12031,-4.00295 4.16401,0.796 4.69422,2.12084 3.52069,8.79729 -0.76686,4.36281 -0.72741,8.64773 0.14459,15.70344 1.66143,13.44335 3.46884,18.12608 9.23258,23.92022 4.48551,4.50918 5.21897,4.87634 9.74141,4.87634 3.03763,0 5.34367,-0.54582 6.08624,-1.44056 2.00808,-2.41959 4.04933,-0.69301 4.04933,3.4251 0,2.14191 0.6519,4.3116 1.50922,5.02311 1.26022,1.04589 2.09662,0.62973 5.06945,-2.52239 3.15983,-3.35039 3.72841,-3.60675 5.05567,-2.27949 0.8225,0.8225 2.19788,4.57489 3.05639,8.33864 l 1.56094,6.84318 -2.81301,2.24302 c -2.64972,2.11281 -2.7469,2.45843 -1.67411,5.95387 0.90926,2.96265 0.84618,4.4114 -0.31283,7.18531 -2.71957,6.50885 -2.04814,8.55652 4.55262,13.88405 5.67373,4.57933 7.94493,7.73022 6.566,9.10915 -0.33675,0.33675 -2.56393,-1.30313 -4.94929,-3.64419 -3.79889,-3.72833 -4.81034,-4.2169 -8.15174,-3.93763 -2.09809,0.17536 -3.97555,0.8095 -4.17214,1.40922 -0.19658,0.59971 2.07682,3.52471 5.05202,6.5 8.17213,8.17238 9.96016,12.38765 10.46009,24.65961 0.27582,6.77063 0.80337,10.23871 1.55414,10.21673 2.26908,-0.0664 5.59822,-3.83142 8.58495,-9.70892 5.5486,-10.91894 3.57517,-23.96528 -5.49385,-36.31976 l -3.64811,-4.96973 5.03604,-4.73416 c 9.83464,-9.24511 14.74536,-25.27736 10.35692,-33.81271 -2.64858,-5.15139 -7.51036,-9.70641 -9.8505,-9.22897 -1.61178,0.32883 -1.81393,1.23911 -1.5764,7.09856 0.25743,6.35013 -1.51762,12.70827 -3.54815,12.70934 -0.39838,2.1e-4 -0.72432,-4.06282 -0.72432,-9.02895 v -9.02934 l -4.33938,-4.13128 c -3.70472,-3.52705 -4.09925,-4.26565 -2.69755,-5.05008 4.02196,-2.2508 14.4139,1.55231 20.85813,7.6334 2.10166,1.98323 4.20884,3.60587 4.68261,3.60587 1.33608,0 1.85668,-2.59554 3.00863,-15 0.58737,-6.325 1.23519,-12.85 1.4396,-14.5 2.77066,-22.36534 2.84296,-25.84107 0.68754,-33.05465 -5.39007,-18.03916 -23.75867,-35.39658 -46.00999,-43.4772 C 292.38332,334.24453 281.525,331.27555 273,329.3704 248.93564,323.99257 230.59199,318.35895 220.56872,313.26795 205.93831,305.8369 196,298.35909 196,294.78188 196,290.69756 207.96332,268 210.11606,268 c 0.53419,0 3.33906,2.42525 6.23305,5.38945 10.52391,10.77925 29.53288,17.91067 67.15089,25.19239 28.58161,5.53255 51.29515,15.11706 65.15549,27.49391 4.26481,3.80834 8.35224,6.92425 9.08318,6.92425 1.04003,0 1.26728,-2.32034 1.04516,-10.67165 L 358.5,311.6567 354,309.23811 c -2.475,-1.33022 -10.8,-4.90968 -18.5,-7.95436 -7.7,-3.04469 -16.475,-6.7704 -19.5,-8.27936 -3.025,-1.50896 -6.625,-3.07731 -8,-3.48521 -1.375,-0.4079 -4.075,-1.41247 -6,-2.23237 -1.925,-0.8199 -4.4,-1.84828 -5.5,-2.28529 -1.1,-0.437 -4.7,-2.01535 -8,-3.50743 -3.3,-1.49208 -8.25,-3.58411 -11,-4.64896 -2.75,-1.06485 -6.41801,-2.59063 -8.15113,-3.39061 C 267.61575,272.65453 265.96836,272 265.68801,272 c -0.28036,0 -4.03735,-1.68033 -8.34888,-3.73407 -10.10263,-4.81225 -14.90428,-4.90228 -25.66469,-0.48119 -8.49078,3.48858 -10.68381,3.89299 -10.65716,1.96526 0.0427,-3.0923 9.40472,-9.45064 26.57921,-18.05169 7.20307,-3.60733 15.30307,-8.03629 18,-9.84215 9.52739,-6.37952 16.62862,-11.87262 18.61821,-14.40198 4.77892,-6.07541 21.00163,-15.9463 32.8062,-19.96129 6.80284,-2.31379 19.19834,-4.23667 23.7541,-3.68489 3.6408,0.44096 7.64391,-2.62442 11.31314,-8.66304 1.87652,-3.08827 3.58308,-6.07177 3.79235,-6.63 0.90363,-2.41046 3.60568,-4.51496 5.79693,-4.51496 1.86628,0 3.51922,1.76699 7.8084,8.34717 2.99253,4.59095 6.01994,8.81194 6.72757,9.37999 0.70764,0.56804 4.88661,1.34626 9.28661,1.72937 20.36632,1.7733 38.30283,9.68932 53.05046,23.41307 3.32775,3.09672 7.08468,6.45154 8.34873,7.45515 7.56931,6.00977 15.08401,11.0648 19.05034,12.81489 C 486.21141,256.07993 502,265.95476 502,269.68709 c 0,1.96567 -1.97445,1.62403 -10.11246,-1.74972 -4.06315,-1.68445 -9.45053,-3.31331 -11.97197,-3.61968 -4.62898,-0.56247 -9.15868,1.05911 -31.60149,11.31293 -2.85226,1.30316 -5.51683,2.36938 -5.92126,2.36938 -0.40444,0 -1.44577,0.60519 -2.31408,1.34488 -0.86831,0.73968 -3.37874,2.05939 -5.57874,2.93269 -2.2,0.8733 -10.75,4.365 -19,7.75933 -8.25,3.39434 -19.79416,8.13049 -25.65368,10.52477 -5.85952,2.39429 -14.07202,5.93222 -18.25,7.86206 L 364,311.93253 v 10.03374 c 0,11.89627 0.57678,12.3086 8.0603,5.7622 13.90017,-12.15953 34.42415,-20.15821 72.4397,-28.23146 13.42627,-2.8513 42.35378,-11.38923 47.60665,-14.05106 2.72605,-1.38139 8.33407,-5.72003 12.46227,-9.64141 4.32885,-4.11199 7.86088,-6.74351 8.34468,-6.21717 0.69545,0.7566 5.1495,8.92885 12.76039,23.41263 2.16019,4.11092 1.57823,5.50611 -3.92399,9.40734 -18.39766,13.04447 -26.56158,16.39749 -67.25,27.62042 -21.22769,5.85516 -40.96151,12.67181 -50,17.27149 -8.44354,4.29692 -17.85904,12.35606 -20.98209,17.9595 -1.97033,3.53521 -2.90153,7.1348 -3.62177,14 -0.53324,5.08269 -2.58105,19.73196 -4.55071,32.55393 -3.29598,21.45604 -3.54106,24.56204 -3.07733,39 0.3915,12.18914 1.09065,18.14026 3.13528,26.68732 6.67711,27.91204 6.80247,28.68749 6.95117,43 0.13041,12.55248 -1.49104,31.96983 -2.77704,33.25583 -0.67858,0.67858 -26.13361,1.14982 -31.07751,0.57532 z M 294.43373,513.4984 c 1.13789,-2.39791 1.5678,-5.47106 1.36395,-9.75 -0.26119,-5.48251 -0.54283,-6.2484 -2.29768,-6.2484 -1.68758,0 -2.01701,0.70295 -2.10886,4.5 -0.0599,2.475 -0.62238,5.76679 -1.25,7.3151 -2.96483,7.31399 0.98185,11.16018 4.29259,4.1833 z m -22.90579,-6.69309 c 5.03858,-2.29572 7.23697,-11.76161 2.44024,-10.50724 -1.02148,0.26712 -2.07605,-0.13679 -2.37221,-0.90858 C 271.30271,494.62527 270.2049,494 269.15638,494 267.05586,494 266,497.38695 266,504.125 c 0,4.249 1.01012,4.73877 5.52794,2.68031 z m 31.79757,-21.17628 c 2.86623,-5.87655 2.96881,-9.06294 0.25829,-8.02281 -1.9984,0.76686 -5.5838,8.33912 -5.5838,11.79284 0,4.26667 2.14703,2.74675 5.32551,-3.77003 z M 285.75,487.75 c -0.22917,-0.6875 -1.01667,-1.25 -1.75,-1.25 -0.73333,0 -1.52083,0.5625 -1.75,1.25 -0.24786,0.74359 0.46111,1.25 1.75,1.25 1.28889,0 1.99786,-0.50641 1.75,-1.25 z M 272,481 c 0,-0.55 -0.675,-1 -1.5,-1 -0.825,0 -1.5,0.45 -1.5,1 0,0.55 0.675,1 1.5,1 0.825,0 1.5,-0.45 1.5,-1 z m 7.50437,-0.007 c 0.34231,-0.55389 -0.10054,-1.28448 -0.98412,-1.62354 -1.91464,-0.73472 -2.98171,0.0749 -2.06137,1.56407 0.83038,1.34358 2.23491,1.37101 3.04549,0.0595 z m -25.23994,-3.59071 C 255.21875,476.44792 253.91471,474 252.45203,474 c -1.67517,0 -2.76807,1.67963 -1.95203,3 0.683,1.10512 2.83193,1.33474 3.76443,0.40223 z M 263.5,475.9863 c 0,-0.81746 -1.0125,-1.6301 -2.25,-1.80585 -2.18881,-0.31086 -3.12347,1.61274 -1.54876,3.18745 1.16503,1.16503 3.79876,0.20716 3.79876,-1.3816 z m -8,-8.4863 c 0,-2.29603 -0.49811,-3.07107 -2.12272,-3.30287 -2.40824,-0.34361 -3.75239,2.04565 -2.81406,5.00204 0.40153,1.26511 1.34479,1.81254 2.77267,1.60913 1.66939,-0.23782 2.16411,-0.99411 2.16411,-3.3083 z m -20.66251,-6.3784 c 2.14041,-1.35672 1.01417,-5.57166 -1.58749,-5.94115 -1.88999,-0.26842 -2.25,0.14492 -2.25,2.58333 0,4.04977 1.1535,5.05908 3.83749,3.35782 z m 7.46533,-8.6079 c 0.10845,-0.54247 -0.59032,-1.13797 -1.55282,-1.32333 -1.0946,-0.2108 -1.75,0.27967 -1.75,1.30963 0,1.73979 2.9553,1.75204 3.30282,0.0137 z m 8.44704,-2.09717 c -0.95295,-0.95296 -2.86349,0.5906 -2.1533,1.7397 0.42212,0.683 0.98146,0.66575 1.69964,-0.0524 0.58876,-0.58876 0.79291,-1.34803 0.45366,-1.68727 z m -23.78973,0.13151 C 228.87729,448.23801 227.81413,445.5 225,445.5 c -1.58498,0 -2.59692,0.64547 -2.81888,1.79804 C 221.83487,449.09596 223.57588,452 225,452 c 0.41531,0 1.29737,-0.65338 1.96013,-1.45196 z M 236,445.44098 C 236,443.93789 235.42366,443 234.5,443 c -1.49675,0 -2.1484,4.01826 -0.86052,5.30615 1.13345,1.13344 2.36052,-0.35596 2.36052,-2.86517 z m 9.33357,-3.01409 C 245.03242,441.6421 244.41073,441 243.95203,441 c -1.35184,0 -2.17613,1.97363 -1.52881,3.66051 0.47355,1.23405 0.90239,1.31415 2.02917,0.379 0.7858,-0.65215 1.18233,-1.82784 0.88118,-2.61262 z M 222,440.45503 c 0,-0.81103 -0.9,-2.24521 -2,-3.18706 -1.21562,-1.04084 -2,-2.94994 -2,-4.86777 0,-1.73542 -0.7237,-3.75592 -1.60821,-4.49001 -1.36331,-1.13144 -1.8097,-1.05914 -2.93132,0.47476 -0.72771,0.99519 -1.15123,2.32821 -0.94116,2.96225 0.21007,0.63404 0.86606,3.04505 1.45774,5.3578 1.40415,5.48841 3.5026,7.64385 6.0924,6.25783 1.0618,-0.56826 1.93055,-1.69677 1.93055,-2.5078 z m 8.66417,-3.88781 C 229.81276,434.34849 227,434.61674 227,436.91667 c 0,2.10633 1.99138,3.29874 3.38278,2.02555 0.48553,-0.44428 0.61216,-1.51303 0.28139,-2.375 z m 9.6694,1.00589 c 0.81083,-2.11298 -1.77361,-3.95274 -3.1771,-2.26165 -0.81539,0.98249 -0.79757,1.64744 0.0673,2.51233 1.55575,1.55575 2.44407,1.48414 3.10978,-0.25068 z m -11.49891,-9.70777 c -0.22101,-1.56206 -1.10029,-2.47406 -2.58913,-2.68548 -3.3594,-0.47703 -4.14575,2.67277 -1.25221,5.01582 2.70094,2.18708 4.33983,1.19285 3.84134,-2.33034 z M 208.40608,420.282 C 206.87423,417.85351 205,417.54243 205,419.71667 c 0,2.59183 2.09831,4.58502 3.42752,3.25581 0.70337,-0.70337 0.6966,-1.55215 -0.0214,-2.69048 z m 6.41406,-6.03647 c 0.3975,-2.79927 -2.39694,-4.0973 -4.43443,-2.05982 -2.0009,2.00091 -0.70637,5.00211 1.99157,4.61716 1.32111,-0.1885 2.24361,-1.15423 2.44286,-2.55734 z M 235.5,413.9863 c 0,-2.1435 -2.90567,-1.8339 -3.32712,0.35451 -0.25736,1.3364 0.14991,1.74367 1.48631,1.48631 1.01244,-0.19498 1.84081,-1.02335 1.84081,-1.84082 z m -7.66534,-2.85164 c 0.42993,-3.0386 -1.07051,-4.51197 -3.734,-3.66661 -2.06229,0.65455 -2.93606,4.36322 -1.39181,5.90747 1.52056,1.52056 4.79624,0.0885 5.12581,-2.24086 z m -20.99717,-2.01306 c 2.00521,-1.27101 1.05446,-5.6216 -1.2285,-5.6216 -2.33456,0 -4.14301,2.66598 -3.29952,4.86408 0.68596,1.78759 2.43998,2.08103 4.52802,0.75752 z m 13.97638,-6.87848 c 0.21711,-2.25284 -0.17217,-3.44338 -1.26273,-3.86187 -2.12513,-0.81549 -4.55114,1.35646 -4.55114,4.07453 0,2.82629 0.90746,3.70162 3.45885,3.3364 1.49609,-0.21416 2.12496,-1.16188 2.35502,-3.54906 z M 232,400.5 c 0,-2.85136 -0.37647,-3.5 -2.03138,-3.5 -2.55497,0 -3.45946,2.21433 -2.01044,4.92186 C 229.76706,405.30177 232,404.51625 232,400.5 Z m -28.27078,-17.18627 c 0.61274,-1.84039 -4.56975,-4.8732 -5.95694,-3.48601 -0.83336,0.83336 -0.64156,1.65924 0.73984,3.18567 1.95793,2.16349 4.54716,2.31255 5.2171,0.30034 z M 359.02246,305.75 c 0.0123,-0.6875 0.002,-18.54099 -0.0223,-39.67442 -0.0332,-28.46946 -0.35728,-38.80098 -1.25101,-39.87786 -0.97703,-1.17725 -3.39553,-1.35238 -12.72769,-0.92166 -14.36272,0.66291 -16.91569,1.47621 -41.02144,13.06818 -5.225,2.5126 -13.325,6.99281 -18,9.95602 -8.96482,5.68228 -17.21315,9.52456 -25.5,11.87854 -3.04904,0.86611 -5,1.98626 -5,2.87075 0,1.72723 6.9515,5.43674 19.69609,10.51037 9.82518,3.9114 11.17318,4.48021 27.80391,11.7322 5.775,2.51825 11.61753,4.89637 12.9834,5.28472 1.36586,0.38835 6.54086,2.61649 11.5,4.95142 18.00032,8.47519 25.07919,11.33019 28.2666,11.40028 1.96041,0.0431 3.25891,-0.42454 3.27246,-1.17854 z m 12.32641,-0.14687 c 1.73312,-0.76828 6.75113,-2.81191 11.15113,-4.54139 13.49861,-5.30581 19.23691,-7.75374 32.5,-13.86432 3.575,-1.64708 11.07585,-4.80682 16.66855,-7.02166 5.5927,-2.21484 14.3677,-5.90235 19.5,-8.19446 5.1323,-2.29211 11.24395,-5.01973 13.58145,-6.06139 2.3375,-1.04165 4.25,-2.3016 4.25,-2.79988 0,-0.49828 -3.7125,-2.12542 -8.25,-3.61588 -9.6199,-3.1599 -14.79771,-5.63183 -23.75,-11.33847 -3.575,-2.27888 -12.125,-6.88605 -19,-10.23816 -6.875,-3.35211 -13.35858,-6.55533 -14.40796,-7.11826 -7.81846,-4.19414 -34.7226,-7.60565 -38.07019,-4.82739 C 364.20594,227.07397 364,232.64122 364,267.12244 364,306.9595 364.00213,307 366.09887,307 c 1.15438,0 3.51688,-0.62859 5.25,-1.39687 z M 262.66563,256.44316 c 15.24417,-4.90311 25.49386,-11.57844 23.37145,-15.22116 -1.85895,-3.19056 -3.75071,-5.222 -4.86291,-5.222 -0.60794,0 -5.05833,2.58176 -9.88976,5.73724 -4.83143,3.15548 -12.58022,7.76798 -17.21954,10.25 -4.63933,2.48202 -8.60173,5.03747 -8.80534,5.67878 -0.9091,2.86333 6.2699,2.35897 17.4061,-1.22286 z M 477.74659,258 c 0.17394,-0.9922 -2.50044,-2.85414 -7.8999,-5.5 -7.6484,-3.74789 -18.03216,-10.14093 -23.6548,-14.5637 C 444.83801,236.87134 443.0756,236 442.27543,236 c -2.05276,0 -5.20258,4.06906 -5.24216,6.77202 -0.10056,6.86737 39.57728,21.70805 40.71332,15.22798 z M 435.29217,238.67684 C 437.49756,235.31099 437.91566,230 435.97525,230 c -1.09654,0 -2.77203,3.76334 -3.67301,8.25 -0.67634,3.36799 0.91405,3.59503 2.98993,0.42684 z M 291,238.62212 C 291,236.34579 288.04617,230 286.98658,230 c -1.54503,0 -1.1555,5.31382 0.57012,7.77749 1.75301,2.50277 3.4433,2.91739 3.4433,0.84463 z M 307.23181,233.5 c 5.22477,-2.475 9.89753,-4.50224 10.38389,-4.50497 0.48637,-0.003 2.12547,-1.01523 3.64246,-2.25 2.51655,-2.04837 2.67137,-2.55311 1.76732,-5.76205 -0.54496,-1.93437 -2.30355,-5.08437 -3.90799,-7 l -2.91716,-3.48298 -6.85016,3.33488 c -9.07247,4.41676 -17.16719,10.01323 -17.92174,12.39061 -1.18948,3.74773 2.19229,11.77451 4.96073,11.77451 0.73868,0 5.61787,-2.025 10.84265,-4.5 z m 122.74787,0.53984 c 2.95701,-5.79623 2.62037,-8.34478 -1.51938,-11.50232 -5.64546,-4.30601 -20.37532,-11.78411 -21.99061,-11.16426 -1.73002,0.66387 -7.46969,9.40073 -7.46969,11.37027 0,2.10543 4.53574,5.79679 8.71339,7.09129 2.08264,0.64534 6.71161,2.70677 10.28661,4.58097 3.575,1.8742 7.27835,3.44736 8.22968,3.49592 1.0557,0.0539 2.51689,-1.45479 3.75,-3.87187 z M 353.25,221.31084 c 1.45154,-0.83003 0.71865,-3.62219 -2.36586,-9.01334 -3.97329,-6.94458 -6.17943,-7.99726 -13.3821,-6.38537 l -5.50204,1.2313 0.0136,5.67829 c 0.0255,10.60442 -0.22407,10.38395 10.86627,9.59893 5.29104,-0.37452 9.95758,-0.87394 10.37008,-1.10981 z m 37.1451,-5.46153 C 391.66861,206.38689 391.38766,206 383.24267,206 h -6.8201 l -3.46128,5.66424 c -3.20753,5.24897 -5.19864,9.24848 -4.67907,9.39874 0.11978,0.0346 3.81778,0.29874 8.21778,0.58689 4.4,0.28815 8.20648,0.72879 8.45885,0.9792 0.25237,0.25041 1.37737,0.32381 2.5,0.16311 1.7118,-0.24503 2.18558,-1.36532 2.93625,-6.94287 z m -60.87667,4.09264 c 0.35926,-1.13194 0.1197,-4.28194 -0.53236,-7 -1.249,-5.20645 -3.45783,-6.48829 -5.96817,-3.46352 -0.98684,1.18907 -0.77907,2.55914 1.06157,7 2.38187,5.74669 4.32215,6.98226 5.43896,3.46352 z M 397.6076,220.25 c 0.29965,-0.9625 1.38726,-3.53193 2.4169,-5.70985 C 402.02478,210.30912 401.33737,208 398.07756,208 395.12229,208 394,210.25694 394,216.2 c 0,4.54172 0.33223,5.8 1.53138,5.8 0.84227,0 1.77656,-0.7875 2.07622,-1.75 z m -32.06643,-3.31521 C 369.63422,210.45097 372,206.02437 372,204.84969 c 0,-0.59922 -1.88953,-4.41053 -4.19896,-8.46959 -4.48186,-7.87731 -6.70802,-9.13241 -9.0992,-5.1301 -0.73934,1.2375 -2.77471,4.6424 -4.52305,7.56645 C 352.43046,201.74049 351,204.4499 351,204.83735 351,206.78071 360.24797,221 361.51189,221 c 0.80466,0 2.61784,-1.82935 4.02928,-4.06521 z m 38.8029,325.64503 c -6.24678,-2.90855 -12.25279,-10.07006 -15.37059,-18.32773 -3.82813,-10.139 -2.15662,-19.32097 5.99043,-32.90678 l 3.09113,-5.1547 -5.55708,-6.3453 C 384.55574,470.77655 381.49486,464.12767 381.52053,456 c 0.0156,-4.95782 0.57863,-7.48247 2.37283,-10.64091 2.78626,-4.90484 9.42858,-10.69521 15.35437,-13.38501 4.55298,-2.06665 11.24338,-2.6065 12.2437,-0.98794 0.33521,0.54237 -1.22645,2.89678 -3.47035,5.23201 -5.08157,5.2884 -6.52411,9.70188 -5.14939,15.75474 1.22016,5.37236 0.61897,6.34468 -1.95777,3.16633 C 399.41747,453.29337 399,451.17955 399,445.44823 c 0,-4.03161 -0.46979,-7.62054 -1.04398,-7.97541 -2.92581,-1.80825 -9.67565,7.24592 -11.42196,15.32132 -1.63577,7.56422 4.77223,22.85466 12.16937,29.0379 2.36311,1.97532 4.29657,3.90578 4.29657,4.28992 0,0.38415 -1.7066,2.87635 -3.79245,5.53824 -5.56543,7.10241 -7.55883,11.98096 -8.02501,19.64001 -0.50465,8.29101 2.41555,17.49585 7.12209,22.44979 4.85887,5.11426 5.46127,4.4492 5.88755,-6.5 0.46248,-11.87862 2.45737,-16.57522 10.35266,-24.37333 5.55519,-5.48682 6.39585,-7.17726 4.23378,-8.51349 -2.78085,-1.71866 -7.32401,-0.24434 -11.31403,3.67157 -4.31923,4.23901 -5.46459,4.7801 -5.46459,2.58161 0,-1.27659 3.9197,-5.03725 10.64729,-10.21527 l 2.72702,-2.0989 -1.24813,-6.98408 c -0.68646,-3.84125 -0.94065,-8.20915 -0.56485,-9.70646 0.5208,-2.07502 0.13898,-3.30175 -1.60569,-5.15887 -1.27037,-1.35225 -2.27592,-3.66388 -2.25963,-5.19464 0.0449,-4.2258 2.16398,-10.97527 4.03232,-12.84361 1.5673,-1.56731 1.87491,-1.43793 4.76447,2.00385 3.97751,4.73767 6.5072,4.13248 6.5072,-1.55675 0,-4.72219 1.34282,-5.45199 6.25503,-3.39954 5.4667,2.28414 11.06093,-0.55132 17.78757,-9.01569 3.26997,-4.11473 6.00826,-17.47946 5.85772,-28.58973 -0.14169,-10.45716 -0.80998,-12.29102 -4.61515,-12.66447 -1.72492,-0.1693 -3.69148,-0.97685 -4.37013,-1.79457 -1.01916,-1.22801 -0.59703,-2.13897 2.42553,-5.23436 3.76336,-3.85403 4.64044,-7.46171 2.69693,-11.09321 -0.70436,-1.31611 -0.36911,-2.90337 1.25,-5.91819 13.27308,-24.7148 13.04164,-24.37087 23.78715,-35.34864 9.95395,-10.16911 14.09281,-13.18171 12.43779,-9.05323 -2.57912,6.43364 -3.49201,11.89305 -3.50162,20.94098 -0.0101,9.54068 -0.88426,12.94086 -2.6093,10.14968 -0.40517,-0.65558 -1.06826,-5.19491 -1.47352,-10.08741 -0.40527,-4.89249 -0.9839,-9.14249 -1.28586,-9.44444 -0.30195,-0.30195 -1.61108,-0.28244 -2.90919,0.0434 -4.56666,1.14616 -13.57181,18.35887 -14.49941,27.71461 -0.37251,3.75713 -0.0344,5.04994 1.90683,7.29196 2.2073,2.54925 3.39254,2.85757 18.35963,4.77595 28.80175,3.69162 44.06379,0.77147 43.80435,-8.38127 -0.23572,-8.3159 -9.75717,-23.423 -22.68227,-35.98859 -8.88856,-8.64133 -10.57714,-11.87924 -4.34131,-8.32466 10.30105,5.87188 24.92358,25.12103 29.75864,39.17438 1.35566,3.94029 3.10223,6.70209 5.4756,8.65843 1.91675,1.57994 3.48499,3.57282 3.48499,4.42861 0,0.8558 -1.575,3.29934 -3.5,5.43008 -4.29109,4.74972 -4.59937,8.77308 -1,13.05069 3.39645,4.03645 3.17185,6.78151 -0.81515,9.96275 -2.5881,2.06504 -3.6087,3.92909 -4.65392,8.5 -2.87963,12.59314 -13.7064,31.73221 -24.26443,42.89355 -6.07468,6.4218 -19.23867,17.17421 -29.03809,23.71845 C 465.53223,487.39851 462,491.97351 462,497.74315 c 0,3.30706 0.64964,5.2402 2.5,7.43922 2.51262,2.98608 3.24636,6.23832 1.63245,7.23577 -1.60535,0.99216 -16.30202,-2.4027 -19.13526,-4.42014 -3.53172,-2.51481 -5.63991,-2.53411 -6.96201,-0.0637 -1.42278,2.65849 -1.28885,5.05573 0.47098,8.43005 2.64241,5.06658 2.03904,6.63569 -2.55161,6.63569 -2.96185,0 -4.70293,-0.65747 -6.5,-2.45455 C 429.02465,518.11556 428.25458,516 429.8,516 c 0.44,0 1.34,0.54 2,1.2 0.89579,0.89579 1.48799,0.91201 2.33603,0.064 0.84804,-0.84804 0.72128,-2.40403 -0.5,-6.1379 C 432.73621,508.37505 432,504.28214 432,502.03072 c 0,-2.83086 -0.4938,-4.28298 -1.60092,-4.70782 -2.32853,-0.89354 -3.48754,1.54466 -3.17399,6.6771 0.31742,5.19583 -1.13863,6.46408 -3.02966,2.63889 -2.54811,-5.15434 -6.85183,-2.79757 -10.88698,5.96183 -3.78568,8.21786 -4.24047,16.55914 -1.32753,24.34827 3.25642,8.70758 1.59777,9.93054 -7.63685,5.63083 z m 52.31777,-36.14098 c 0.91178,-2.37604 -0.98442,-11.72433 -2.47791,-12.21615 -0.72384,-0.23837 -1.56382,0.51401 -1.86663,1.67195 -0.61132,2.33768 -1.40126,2.6214 -2.95968,1.06298 -0.72318,-0.72318 -1.4419,-0.56099 -2.34702,0.52961 -1.82586,2.20003 0.0394,5.96304 4.21901,8.51133 3.94635,2.4061 4.65581,2.4636 5.43223,0.44028 z M 425,488.9891 C 425,485.91558 420.95896,478 419.38987,478 c -1.75722,0 -1.74186,0.75091 0.12352,6.03794 2.30892,6.54418 5.48661,9.41175 5.48661,4.95116 z m 15.45729,-0.92 c 0.73955,-1.1966 -1.14162,-2.38223 -2.4736,-1.55902 C 436.86533,487.20126 437.59952,489 439,489 c 0.48508,0 1.14086,-0.41891 1.45729,-0.9309 z M 454,481 c 0,-0.55 -0.47656,-1 -1.05902,-1 -0.58246,0 -0.7809,0.45 -0.44098,1 0.33992,0.55 0.81648,1 1.05902,1 0.24254,0 0.44098,-0.45 0.44098,-1 z m -7.19167,-1.075 c -0.19708,-0.59125 -0.78583,-1.075 -1.30833,-1.075 -0.5225,0 -1.11125,0.48375 -1.30833,1.075 -0.19709,0.59125 0.39166,1.075 1.30833,1.075 0.91667,0 1.50542,-0.48375 1.30833,-1.075 z m -3.8941,-6.675 c 12.54044,-6.93789 16.45726,-11.14405 31.3116,-33.62471 3.56196,-5.39069 6.38948,-13.77652 8.80889,-26.12529 2.3392,-11.93938 2.48025,-16.36516 0.54521,-17.1077 -0.78104,-0.29971 -5.77834,-1.09757 -11.10511,-1.77301 l -9.68504,-1.22809 -1.56041,2.38148 c -0.97319,1.48528 -1.85662,6.20976 -2.34756,12.5544 -1.30485,16.86331 -2.78181,23.52995 -7.23852,32.67292 -4.47784,9.18633 -11.37029,16.97648 -21.89329,24.74476 -4.74554,3.50325 -5.75,4.76106 -5.75,7.20031 0,6.64587 7.24177,6.76262 18.91423,0.30493 z m 20.43511,3.28203 c 0.70524,-1.83785 -1.16969,-3.11168 -2.54934,-1.73203 -1.06741,1.06741 -0.29966,3.2 1.15203,3.2 0.4587,0 1.08748,-0.66059 1.39731,-1.46797 z m 9.20451,0.38084 c 1.03052,-1.66742 -1.28721,-3.57951 -2.66672,-2.2 C 468.73321,475.86679 469.45541,478 471,478 c 0.48508,0 1.18431,-0.48921 1.55385,-1.08713 z m -0.56442,-7.40014 C 473.50638,467.68493 472.62021,465 470.5,465 c -1.8349,0 -2.95814,2.36374 -2.13837,4.5 0.73129,1.90573 2.0529,1.91037 3.6278,0.0127 z m 20.50773,-10.50378 C 493.29789,456.48607 492.39358,455 490.05761,455 c -1.79593,0 -3.4671,3.52841 -2.45036,5.17354 0.98271,1.59006 4.26362,0.80867 4.88991,-1.16459 z m -8.72633,-6.19645 C 483.15276,450.95828 481,450.65074 481,452.41667 481,453.2875 481.7125,454 482.58333,454 c 0.87084,0 1.40521,-0.53438 1.1875,-1.1875 z m 16.5908,-3.3125 c 0.85401,-2.22554 -0.40794,-4.69621 -2.07246,-4.05747 C 497.49016,445.74914 496.64823,446 496.41821,446 496.1882,446 496,447.125 496,448.5 c 0,1.78624 0.54047,2.5 1.89301,2.5 1.04116,0 2.15203,-0.675 2.46862,-1.5 z M 490,446.05902 c 0,-2.28437 -1.57662,-3.55308 -2.51951,-2.02744 -0.84004,1.35919 0.1384,3.96842 1.48813,3.96842 0.56726,0 1.03138,-0.87344 1.03138,-1.94098 z m -9,-3.11804 C 481,442.42344 480.325,442 479.5,442 c -1.54641,0 -1.9867,1.17996 -0.86052,2.30615 0.79893,0.79893 2.36052,-0.10419 2.36052,-1.36517 z m 26.93574,-2.6993 c 0.66366,-1.45656 1.46229,-4.8068 1.77474,-7.44499 C 510.23292,428.38553 510.10664,428 508.13929,428 506.37993,428 506,428.59407 506,431.34501 c 0,2.07502 -0.75933,4.0322 -2,5.15499 -2.22616,2.01464 -2.57979,4.52021 -0.87814,6.22186 1.57044,1.57044 3.3971,0.62931 4.81388,-2.48018 z M 486,436.5 c 0,-1.55556 -0.56667,-2.5 -1.5,-2.5 -0.93333,0 -1.5,0.94444 -1.5,2.5 0,1.55556 0.56667,2.5 1.5,2.5 0.93333,0 1.5,-0.94444 1.5,-2.5 z m 10,0.5 c 0,-1.33333 -0.66667,-2 -2,-2 -1.33333,0 -2,0.66667 -2,2 0,1.33333 0.66667,2 2,2 1.33333,0 2,-0.66667 2,-2 z m 2.41821,-6.60699 c 2.0454,-0.78489 2.04833,-4.27675 0.004,-5.06114 -0.86765,-0.33295 -2.27918,0.0963 -3.13675,0.95384 -0.85756,0.85757 -1.28679,2.2691 -0.95384,3.13675 0.65191,1.69886 1.60099,1.92427 4.08634,0.97055 z m 19.58179,-9.5 c 0,-2.01425 -2.44519,-2.59973 -3.5296,-0.84512 -0.35619,0.57633 -0.39978,1.69375 -0.0969,2.48314 0.76218,1.98619 3.62647,0.69244 3.62647,-1.63802 z M 513,415.5 c 0.99319,-1.19672 0.99319,-1.80328 0,-3 -1.63159,-1.96594 -3.62925,-1.90853 -4.41026,0.12675 C 507.97782,414.22137 509.50923,417 511,417 c 0.41531,0 1.31531,-0.675 2,-1.5 z m -23,-1.55902 c 0,-1.13246 -0.45,-1.7809 -1,-1.44098 -0.55,0.33992 -1,1.26648 -1,2.05902 0,0.79254 0.45,1.44098 1,1.44098 0.55,0 1,-0.92656 1,-2.05902 z m 11,-2.88196 c 0,-3.29464 -1.05154,-4.36021 -3.40976,-3.45528 -0.94658,0.36324 -1.59024,1.78121 -1.59024,3.50325 0,2.41921 0.40943,2.89301 2.5,2.89301 2.09996,0 2.5,-0.4706 2.5,-2.94098 z m 19.37406,-5.82778 c -1.41101,-2.23692 -3.36546,-2.2052 -4.76507,0.0773 -0.88864,1.44922 -0.72064,2.09691 0.84552,3.25978 1.71484,1.27327 2.14193,1.26378 3.48304,-0.0773 1.16525,-1.16525 1.269,-1.94002 0.43651,-3.25978 z m -12.5473,-2.03628 C 508.19572,400.59226 506.45892,398 504.34617,398 c -1.87734,0 -2.70974,2.41528 -1.91867,5.56716 0.8427,3.35758 4.91028,3.07718 5.39926,-0.3722 z M 495,399.81969 c 0,-2.27934 -0.40264,-2.8888 -1.73852,-2.63153 -1.85312,0.35688 -2.78505,3.00507 -1.88391,5.35339 0.94539,2.46364 3.62243,0.45213 3.62243,-2.72186 z m 34.26443,1.58254 c 1.20788,-1.20787 -0.60584,-3.53501 -4.13776,-5.30905 -8.54404,-4.29156 -29.55278,-8.83235 -34.69878,-7.49973 -1.06034,0.27459 -6.65289,-0.42024 -12.42789,-1.54407 -13.25105,-2.57869 -14.36908,-2.55636 -20.75,0.41438 -3.96147,1.84433 -5.25,2.97502 -5.25,4.60687 0,1.77575 0.40251,2.04207 2.25,1.4887 5.97424,-1.78944 15.51876,-2.26533 28.75,-1.43347 18.56403,1.16713 23.59626,2.09763 34,6.2869 8.57081,3.4512 11.16932,4.08459 12.26443,2.98947 z m -4.30078,-18.85843 c 0.66469,-0.8009 0.92872,-1.90893 0.58673,-2.46229 C 524.70385,378.7118 520,380.89745 520,382.66052 c 0,1.7915 3.44724,1.71044 4.96365,-0.11672 z m -313.5091,-16.99835 c -6.04744,-6.04743 0.66242,-14.73267 8.94812,-11.58245 4.90039,1.86312 4.66396,9.91694 -0.3675,12.51881 -4.05238,2.09557 -5.73199,1.91228 -8.58062,-0.93636 z M 504,366.70599 c -5.33814,-2.70008 -5.91783,-10.07405 -0.9989,-12.70658 2.29402,-1.22772 8.84413,0.30554 10.23359,2.3955 1.71926,2.58605 0.76303,7.46173 -1.86955,9.53251 -3.05524,2.40325 -3.96332,2.49925 -7.36514,0.77857 z M 74.699024,426.25522 c -0.234003,-0.41537 0.861838,-4.80522 2.4352,-9.75522 1.573363,-4.95 2.861798,-9.9 2.863188,-11 0.0022,-1.74227 -5.775249,-7.5 -7.525686,-7.5 -1.466604,0 -9.40221,-7.30346 -8.870462,-8.16385 0.319426,-0.51684 1.777316,-0.84855 3.239755,-0.73713 1.46244,0.11142 6.316311,0.13472 10.786381,0.0518 L 85.754799,389 89.1274,378.59309 c 1.85493,-5.7238 3.757556,-10.5613 4.228059,-10.75 0.470502,-0.1887 2.191996,3.93191 3.825542,9.15691 1.633547,5.225 3.146969,10.0625 3.363159,10.75 0.28306,0.90017 3.46385,1.25 11.36544,1.25 6.0348,0 11.21418,0.39127 11.50974,0.86949 0.50731,0.82085 -7.66344,7.66174 -13.66934,11.44454 -3.59011,2.26121 -3.5486,4.94821 0.25,16.18597 1.65,4.88135 3,9.01576 3,9.18759 0,1.14467 -2.54468,-0.27412 -7.15833,-3.99116 -2.93792,-2.36697 -7.055969,-5.34523 -9.151224,-6.61837 l -3.809554,-2.31479 -2.254897,2.11836 C 89.385801,417.04674 87.892701,418 87.307993,418 c -0.584707,0 -1.654821,0.71298 -2.378032,1.58439 -2.069647,2.49377 -9.759463,7.50773 -10.230937,6.67083 z M 611,425.63242 c 0,-0.75216 1.35,-5.46413 3,-10.47104 1.65,-5.00691 3,-9.56837 3,-10.13658 0,-0.56821 -3.7125,-3.78576 -8.25,-7.15011 -4.5375,-3.36435 -8.25,-6.62498 -8.25,-7.24585 0,-0.7313 2.64126,-1.15584 7.5,-1.2055 13.37585,-0.13671 13.96694,-0.24216 14.98586,-2.67334 0.51864,-1.2375 2.1354,-6.18228 3.59281,-10.98841 1.4574,-4.80613 3.01537,-8.51249 3.46216,-8.23636 0.44679,0.27614 2.21416,5.0142 3.92748,10.52903 3.73908,12.03529 4.15564,12.3102 17.16485,11.32814 11.50053,-0.86818 11.55013,0.22967 0.36561,8.09173 -4.67433,3.28577 -8.49877,6.68885 -8.49877,7.56241 0,0.87356 1.36044,5.6102 3.02321,10.52587 3.7066,10.95791 3.59579,12.40206 -0.71069,9.26185 -1.75312,-1.27834 -5.95822,-4.28245 -9.34466,-6.6758 l -6.15718,-4.35154 -4.65534,3.30005 C 622.5949,418.912 620.275,420.64775 620,420.9542 619.00364,422.0645 612.11911,427 611.56672,427 611.25502,427 611,426.38459 611,425.63242 Z M 559.60478,254.41247 C 559.27215,253.54564 559,251.34485 559,249.5218 c 0,-3.60721 2.53017,-6.35039 11.63536,-12.61493 2.65071,-1.82374 5.50463,-3.86915 6.34206,-4.54536 0.83742,-0.67621 6.47258,-4.9216 12.52258,-9.43419 16.75223,-12.49521 15.74908,-10.6159 10.08869,-18.90016 C 596.9479,200.16222 594.23811,197 593.56694,197 c -0.67117,0 -5.4608,3.17955 -10.64362,7.06566 -16.64841,12.48308 -17.80715,12.84995 -20.46847,6.48052 -2.7093,-6.48426 -1.26061,-19.63631 2.31468,-21.01402 1.23881,-0.47736 2.64963,0.41775 4.96559,3.15051 1.77932,2.09953 3.24182,4.15483 3.25,4.56733 0.0323,1.62977 2.50325,0.56215 8.1005,-3.5 3.22084,-2.3375 5.8692,-4.988 5.88523,-5.88999 0.016,-0.902 -2.03772,-4.44763 -4.56388,-7.87919 l -4.59304,-6.23919 2.00976,-2.00976 c 1.10536,-1.10537 2.61142,-1.77888 3.34679,-1.49669 0.73537,0.28218 8.53534,10.71159 17.33327,23.17645 8.79794,12.46486 17.46968,24.7365 19.27053,27.27031 3.09229,4.35085 3.18095,4.71005 1.59501,6.46249 -2.5373,2.80369 -3.97612,2.28737 -7.36929,-2.64443 -1.70284,-2.475 -3.6874,-4.5 -4.41013,-4.5 -0.72272,0 -3.2886,1.56991 -5.70196,3.48868 -5.03737,4.00504 -40.80912,30.7516 -42.53313,31.80205 -0.62986,0.38378 -1.41736,-0.0114 -1.75,-0.87826 z M 143,245.55401 c -8.525,-5.19174 -16.4,-10.05664 -17.5,-10.81089 -1.1,-0.75424 -4.87768,-3.10218 -8.39485,-5.21763 l -6.39485,-3.84628 -2.67707,3.28008 c -2.44837,2.99986 -2.86315,3.16388 -4.85515,1.91985 -2.51985,-1.57367 -2.72428,-3.5729 -0.64628,-6.32027 C 104.86528,221.47374 104.33881,221 98.576725,221 c -11.930457,0 -16.517958,-10.63851 -9.984084,-23.1533 4.762931,-9.12278 19.524459,-20.93397 36.016229,-28.8178 10.14644,-4.85046 11.79885,-5.17577 12.19471,-2.40076 0.2185,1.53171 -0.35379,2.29314 -2.04199,2.71685 -1.29006,0.32378 -7.0514,3.16907 -12.80297,6.32286 -13.03059,7.14512 -23.708571,17.21522 -26.291026,24.79431 -2.149219,6.30761 -2.096521,8.32209 0.321446,12.28784 1.616165,2.6507 2.614588,3.25 5.41447,3.25 5.19419,0 6.39947,-0.78808 10.13405,-6.62617 3.67309,-5.74197 4.78653,-6.29549 7.57942,-3.76797 1.69229,1.53151 1.66121,1.78526 -0.67126,5.48013 -1.34515,2.13085 -2.43405,4.44571 -2.41979,5.14414 0.0288,1.41083 6.45178,5.53855 39.31731,25.26725 6.41122,3.84856 11.65676,7.55192 11.65676,8.22968 0,0.95103 -6.75376,5.28594 -8.21016,5.26971 -0.15941,-0.002 -7.26484,-4.25102 -15.78984,-9.44276 z m 12.94412,-24.39818 c -1.44893,-1.17327 -2.27745,-2.92951 -2.27745,-4.82758 0,-3.43907 5.68279,-12.32825 7.88137,-12.32825 3.25052,0 5.45196,-3.81216 5.45196,-9.44098 0,-2.99254 -0.43178,-5.70784 -0.9595,-6.03399 -0.52773,-0.32615 -2.70048,0.97987 -4.82835,2.90227 -5.66023,5.11368 -15.68058,9.57095 -21.51852,9.57191 -4.11416,6.8e-4 -5.21989,-0.45196 -7.67764,-3.14285 -1.5792,-1.729 -3.14164,-4.22086 -3.47209,-5.53747 -1.48953,-5.93475 3.37287,-14.33823 11.85614,-20.49049 3.15426,-2.28754 4.94994,-2.8284 9.39047,-2.8284 14.60648,0 27.65329,15.16152 25.88619,30.08197 -0.69288,5.85024 -0.55651,5.91803 11.90509,5.91803 5.18001,0 9.41821,0.42071 9.41821,0.9349 0,0.5142 -0.46205,2.15017 -1.02677,3.63551 -1.02644,2.69974 -1.0292,2.70038 -8.65268,2.00956 -4.19425,-0.38007 -8.8529,-0.93644 -10.35256,-1.23637 -2.35677,-0.47136 -3.02469,-0.023 -4.92382,3.30553 -2.40078,4.20771 -8.97172,9.35087 -11.94673,9.35087 -1.03173,0 -2.90072,-0.82988 -4.15332,-1.84417 z M 153,191.8943 c 4.49689,-2.69584 9,-6.93128 9,-8.46503 0,-0.6581 -1.8013,-2.82391 -4.00288,-4.81291 C 154.52656,175.48092 153.3318,175 149.0129,175 c -6.90117,0 -10.98641,3.58534 -11.74403,10.30694 -0.41475,3.67963 -0.13395,5.18466 1.2533,6.71756 2.47056,2.72993 9.81711,2.66387 14.47783,-0.1302 z m 367.21253,10.09467 c -2.54128,-6.87758 -2.41629,-7.69102 1.87309,-12.18981 2.25448,-2.36454 7.08177,-7.67416 10.72731,-11.79916 5.6269,-6.36694 10.25452,-11.36541 21.43707,-23.155 0.9625,-1.01475 1.75,-2.20131 1.75,-2.63679 0,-1.76614 -14.69579,-14.25374 -16.68328,-14.17645 -0.4492,0.0175 -2.96405,3.05497 -5.58857,6.75 -6.38513,8.98956 -18.398,25.34905 -19.98592,27.21743 -0.70153,0.82544 -2.84303,3.7402 -4.75888,6.47723 -1.91584,2.73703 -4.29099,5.881 -5.27811,6.9866 -2.05511,2.30179 -2.65983,1.73463 -4.68131,-4.3905 l -1.22531,-3.71274 8.01238,-10.60952 c 6.39921,-8.47345 7.7785,-10.89063 6.85069,-12.00569 C 511.16135,152.94142 497.74501,145 496.19908,145 c -0.64938,0 -2.19733,1.56943 -3.43989,3.48762 -2.82079,4.35459 -4.97467,4.42444 -8.09024,0.26238 -5.80293,-7.75207 -8.45582,-18.02214 -5.32626,-20.61945 1.31892,-1.0946 2.39322,-0.85484 6.71892,1.4995 5.00548,2.72432 5.18786,2.74927 6.54369,0.89506 2.19629,-3.00361 1.70345,-4.2166 -3.03887,-7.4794 -6.48454,-4.46149 -9.06643,-8.55719 -9.06643,-14.38229 0,-4.05947 0.45082,-5.22436 2.80576,-7.25 6.36474,-5.474719 18.50191,-0.47574 23.78582,9.79674 2.73651,5.32005 2.44618,7.13087 -2.65629,16.56782 -2.51059,4.64331 -4.35216,8.99626 -4.09239,9.67322 0.66199,1.72512 16.72322,10.68271 18.53039,10.33469 0.81666,-0.15728 3.47917,-3.21094 5.91669,-6.78592 2.43752,-3.57499 4.83194,-6.64997 5.32094,-6.8333 1.87793,-0.70407 0.76008,-3.88593 -2.11092,-6.00855 -3.45806,-2.55665 -3.7471,-4.17203 -1.16468,-6.50909 1.7332,-1.56852 2.2201,-1.35624 8.75,3.81487 3.80308,3.01171 9.69815,7.6569 13.10017,10.32266 7.45309,5.84011 28.31451,25.73419 28.31451,27.00158 0,0.49604 -0.89319,1.71021 -1.98488,2.69817 -1.93011,1.74673 -2.11105,1.67998 -6.55814,-2.4192 -5.41416,-4.9906 -5.15002,-5.11366 -15.74317,7.334 -2.25565,2.65053 -18.39334,20.1428 -25.8977,28.07153 -5.62901,5.94732 -5.69278,5.98127 -6.60358,3.51633 z m -20.20261,-84.50946 c 2.5617,-5.29177 2.21619,-6.76146 -2.22634,-9.47005 -9.69291,-5.90973 -15.05919,1.95023 -6.90123,10.10819 2.1353,2.13529 4.57015,3.88235 5.4108,3.88235 0.84064,0 2.51319,-2.03422 3.71677,-4.52049 z m -297.70903,72.78361 c -2.47409,-3.30087 -7.79217,-9.82651 -21.80089,-26.7511 -2.2,-2.65792 -5.3338,-6.56046 -6.964,-8.6723 -3.4793,-4.50726 -4.40562,-4.66176 -8.30054,-1.38439 -2.6849,2.2592 -3.09044,2.33455 -5.07673,0.9433 -1.1873,-0.83162 -2.15873,-2.0912 -2.15873,-2.79907 0,-0.70786 3.7125,-4.36545 8.25,-8.12797 4.5375,-3.76251 8.71291,-7.32033 9.2787,-7.90626 0.56578,-0.58593 2.24856,-2.15184 3.73952,-3.4798 2.6327,-2.34488 2.76877,-2.36203 4.7213,-0.59501 1.10576,1.0007 2.01048,2.27128 2.01048,2.82351 0,0.55222 -2.0888,2.92177 -4.64177,5.26566 l -4.64178,4.26161 2.39178,3.12808 c 1.31547,1.72044 4.41773,5.46865 6.89389,8.32935 4.13144,4.77302 13.14413,15.75098 25.28212,30.79505 l 4.78425,5.92968 -2.59935,0.98827 c -5.1951,1.97518 -8.17786,1.24109 -11.16825,-2.74861 z m 41.91369,-28.29474 c -5.07338,-3.51418 -6.40902,-3.62936 -10.7776,-0.92943 -4.27327,2.64103 -12.1007,3.55717 -16.88937,1.97676 -6.88195,-2.27125 -11.29775,-12.28231 -8.57566,-19.44193 1.42622,-3.75124 0.288,-5.50858 -4.0134,-6.1964 C 198.34982,136.48051 193,131.25904 193,126.68175 c 0,-2.9144 0.84159,-4.36649 4.70959,-8.12599 8.67932,-8.43588 18.69369,-8.71165 25.95841,-0.71483 2.11247,2.32536 2.35953,3.38069 1.96864,8.40907 -0.24584,3.1625 -0.28877,5.75 -0.0954,5.75 1.87211,0 13.1235,-7.94447 15.57925,-11.00032 2.60712,-3.24421 3.47573,-3.75095 5.0163,-2.92647 2.4776,1.32597 2.47052,-0.64474 -0.0206,-5.72871 -1.03607,-2.11447 -2.39918,-5.13195 -3.02913,-6.70551 -0.9506,-2.37447 -1.56556,-2.7571 -3.61624,-2.25 -1.35897,0.33606 -3.57512,0.8845 -4.92476,1.21877 -2.05448,0.50884 -2.56343,0.17139 -3.12678,-2.07321 -0.37009,-1.47454 -0.27834,-3.030464 0.2039,-3.457609 2.15489,-1.908733 26.49771,-12.244513 27.72714,-11.772736 0.75466,0.28959 1.62197,1.481979 1.92735,2.649753 0.45868,1.754008 -0.38666,2.654795 -4.86124,5.180091 C 253.43741,96.815327 251,98.776254 251,99.491667 c 0,0.715413 1.52345,4.609953 3.38544,8.654543 1.862,4.04458 5.29871,11.85379 7.63713,17.35379 2.33843,5.5 5.98998,13.75718 8.11456,18.34929 4.58741,9.91534 4.85012,12.15071 1.42797,12.15071 -6.43857,0 -6.37672,0.0857 -17.15122,-23.75 -2.0511,-4.5375 -4.10328,-8.25 -4.56041,-8.25 -0.45712,0 -3.42366,1.94224 -6.5923,4.31609 -5.63858,4.22424 -10.58433,6.4829 -18.90151,8.63207 -3.3303,0.86056 -4.48391,1.79391 -5.89648,4.77068 -2.25008,4.74168 -3.00176,11.4063 -1.58505,14.05345 1.59609,2.98231 6.12631,3.6701 10.48456,1.5918 3.81955,-1.82142 3.93588,-2.03969 3.68004,-6.90476 -0.39636,-7.5373 8.46102,-11.44826 12.96366,-5.72408 1.41492,1.79878 1.97752,3.59624 1.64323,5.25 -1.28536,6.35879 -1.3377,6.23703 3.35038,7.79403 2.475,0.82199 4.65672,1.62715 4.84827,1.78923 0.6152,0.52057 -3.31159,5.36865 -4.34827,5.36845 -0.55,-1.1e-4 -2.92844,-1.33597 -5.28542,-2.96858 z M 214.21859,132.25 c 0.8407,-0.9625 2.07599,-3.45461 2.74508,-5.53802 1.03494,-3.22257 0.97047,-4.16354 -0.43184,-6.30374 -2.2307,-3.40448 -3.51597,-3.73064 -7.74231,-1.96476 -4.60481,1.92401 -8.02566,6.16734 -7.22622,8.96365 1.57691,5.51579 9.43944,8.52459 12.65529,4.84287 z m -64.0756,29.85953 c -1.76573,-1.11881 -0.63122,-4.77787 1.9017,-6.13345 2.12645,-1.13804 5.95531,0.5934 5.95531,2.69304 0,3.19037 -4.87955,5.32702 -7.85701,3.44041 z M 436.05531,147.75 c -1.67533,-1.7875 -3.04814,-3.5932 -3.05068,-4.01266 -0.003,-0.41946 0.8892,-3.98814 1.98165,-7.93039 1.09245,-3.94225 1.7511,-7.4029 1.46366,-7.69034 -0.28744,-0.28744 -4.44376,-0.54911 -9.23628,-0.5815 -7.97187,-0.0539 -9.09295,-0.31397 -13.16914,-3.05533 -2.45052,-1.64805 -5.93802,-4.94019 -7.75,-7.31586 C 403.57941,113.60418 403,111.96145 403,107.82339 c 0,-6.33538 2.12499,-10.865198 6.26616,-13.357522 2.60121,-1.565513 4.92718,-1.920516 11.88972,-1.814677 11.7048,0.177927 15.40456,1.486911 16.88548,5.974119 0.63688,1.92978 0.97082,3.69585 0.74207,3.92459 -0.22874,0.22874 -1.95812,-0.0264 -3.84306,-0.567 -4.58906,-1.31613 -18.25582,-1.25193 -21.22229,0.0997 -3.60332,1.64178 -5.16329,6.91611 -3.33778,11.28516 1.68279,4.02749 5.13286,6.0835 11.84756,7.06035 6.31775,0.9191 16.59536,-1.86882 17.82811,-4.83609 2.37614,-5.71944 7.01503,-25.921009 6.15072,-26.785322 -0.52186,-0.521855 -5.84435,-2.264893 -11.82776,-3.873418 -28.88142,-7.764213 -27.85072,-7.388249 -28.1959,-10.284826 -0.56588,-4.748529 -0.22632,-4.722605 24.31697,1.856467 13.25919,3.554258 30.36401,8.258834 35.49447,9.762536 4.81671,1.411747 5.87492,3.161336 3.70606,6.127427 -1.27213,1.739734 -1.67613,1.762721 -6.43949,0.366381 -2.79522,-0.819394 -5.55531,-1.197421 -6.13353,-0.840061 -1.07505,0.664417 -4.46549,12.142706 -8.58926,29.078806 -1.27224,5.225 -3.21123,12.875 -4.30887,17 -1.09764,4.125 -2.28186,8.7375 -2.6316,10.25 -0.82232,3.55627 -1.82556,3.46577 -5.54247,-0.5 z m -143.69388,-2.42119 c -3.93513,-1.35133 -4.21891,-1.72615 -5.77294,-7.625 -6.95694,-26.4074 -10.86776,-41.609495 -11.29907,-43.921643 -0.7857,-4.212041 -2.70602,-5.296779 -7.02845,-3.970189 -2.01259,0.617683 -3.73134,1.025177 -3.81944,0.905541 -0.75327,-1.022939 -1.21152,-5.450844 -0.64992,-6.279937 C 264.43141,83.493044 290.01599,76 292.60126,76 c 1.44435,0 3.3852,4.403877 2.54207,5.768083 -0.36844,0.596149 -2.91391,1.628391 -5.65661,2.293872 -2.7427,0.665481 -5.31078,1.495341 -5.70685,1.844132 -0.39607,0.348792 -0.0404,3.10011 0.79029,6.11404 1.6631,6.03384 9.69917,36.841893 12.19608,46.756393 0.9586,3.80632 1.21727,6.61046 0.65724,7.125 -0.51217,0.47057 -2.76677,0.21549 -5.06205,-0.57271 z m 84.99768,-8.2515 c -1.72749,-1.05336 -3.43193,-2.38611 -3.78764,-2.96167 -0.67439,-1.09118 2.01346,-48.528431 3.02608,-53.406599 C 377.33668,77.148366 375.5605,75 371.87756,75 369.37059,75 369,74.627423 369,72.106989 369,69.053995 370.43248,68 374.58179,68 c 2.93726,0 2.95406,-0.26164 0.36064,-5.618928 -3.41397,-7.052311 -1.16827,-13.144446 6.26164,-16.986603 5.34555,-2.764289 17.61859,-1.555011 26.69973,2.63076 9.24363,4.260662 21.00658,11.952353 28.52008,18.649021 5.13827,4.579668 5.55756,5.236757 3.92469,6.150558 -1.45931,0.816668 -2.63734,0.36605 -5.83838,-2.233281 -23.06036,-18.725649 -45.21333,-24.839018 -52.57014,-14.507334 -2.35456,3.30667 -2.04775,6.864695 0.92847,10.767388 1.4695,1.926942 2.9976,2.448249 8.4624,2.88691 L 398,70.273821 V 73.63691 77 h -5.90135 -5.90135 l -0.65976,11.75 c -0.36287,6.4625 -1.30726,19.84246 -2.09865,29.73323 -0.79139,9.89078 -1.43889,18.55328 -1.43889,19.25 0,1.72631 -0.9556,1.59125 -4.64089,-0.65592 z m 140.64919,-15.64 c -3.52567,-2.48859 -4.80949,-4.48718 -4.93801,-7.68731 -0.0995,-2.47707 2.14335,-2.17574 7.38895,0.99272 4.64947,2.80838 5.80434,5.5937 3.34076,8.05728 -1.56237,1.56237 -1.69032,1.53227 -5.7917,-1.36269 z M 222.75,107.42803 c -3.36282,-1.82436 -3.37195,-1.97441 -0.24499,-4.02327 3.03287,-1.98721 5.49499,-0.54548 5.49499,3.21768 0,2.72224 -1.33847,2.92762 -5.25,0.80559 z"
       id="path12" />
  </g>
</svg>
