<?xml version="1.0" standalone="no"?>
<!DOCTYPE svg PUBLIC "-//W3C//DTD SVG 20010904//EN" "http://www.w3.org/TR/2001/REC-SVG-20010904/DTD/svg10.dtd">
<!-- Created using Karbon, part of Calligra: http://www.calligra.org/karbon -->
<svg xmlns="http://www.w3.org/2000/svg" xmlns:xlink="http://www.w3.org/1999/xlink" width="571.2pt" height="592pt">
<defs/>
<g id="g8">
  <path id="path12" transform="translate(1.68834, 1.42054)" fill="#ffffff" d="M337.724 735.52C304.38 733.231 271.751 726.421 238.312 714.77C217.678 707.581 184.298 690.785 166.157 678.464C140.474 661.021 126.243 649.376 106.786 629.885C96.5243 619.605 78.0502 598.191 72.3097 589.921C61.7072 574.648 57.5224 568.349 52.7238 560.437C46.9114 550.854 31.6804 521.153 30.2486 516.609C29.81 515.218 28.0164 510.704 26.2626 506.579C15.085 480.288 6.32543 444.983 1.70015 407.579C-0.321012 391.235 -0.605179 349.278 1.19897 333.579C5.87603 292.883 11.489 268.927 24.8631 232.579C30.4529 217.388 44.5605 188.859 53.7914 174.079C61.6219 161.542 66.4714 154.455 75.6346 142.158C87.3543 126.43 113.877 98.2402 127.705 86.8152C132.164 83.1312 136.037 79.8683 136.312 79.5643C137.442 78.315 146.646 71.1013 150.198 68.6804C177.172 50.2993 181.597 47.6435 203.668 36.5867C218.851 28.9811 222.705 27.3011 237.312 21.9211C249.393 17.4712 251.786 16.7041 264.312 13.263C285.48 7.4477 289.118 6.68851 310.312 3.66152C351.489 -2.21955 390.091 -1.04229 432.337 7.38298C451.869 11.2783 485.632 21.8706 500.09 28.6389C516.315 36.2346 524.897 40.555 533.097 45.2561C538.204 48.1839 542.565 50.5795 542.787 50.5795C543.858 50.5795 568.969 68.0563 577.812 74.9566C603.175 94.7474 632.95 125.192 647.813 146.531C649.901 149.53 652.012 152.455 652.503 153.031C653.843 154.603 664.352 171.045 669.472 179.579C674.962 188.731 687.339 213.086 690.314 220.592C691.51 223.61 693.383 228.329 694.476 231.079C699.941 244.832 703.924 257.479 709.234 277.937L712.312 289.795L712.312 368.025L712.312 446.254L708.93 459.667C700.809 491.882 687.585 525.048 672.484 551.079C670.251 554.929 667.3 560.15 665.927 562.68C656.632 579.804 632.926 609.913 612.812 630.143C588.051 655.046 565.94 671.892 531.812 691.855C519.53 699.039 490.538 711.825 473.812 717.434C462.441 721.246 436.273 728.134 424.312 730.463C401.813 734.844 361.866 737.177 337.724 735.52ZM399.312 725.11C425.096 721.457 429.802 720.571 446.348 716.252C489.038 705.106 524.975 688.33 562.312 662.116C567.106 658.749 581.912 647.116 583.312 645.616C583.587 645.321 585.837 643.45 588.312 641.459C594.367 636.588 610.218 620.781 619.935 609.923C636.891 590.977 652.573 569.065 665.268 546.579C673.929 531.239 686.194 504.051 690.305 491.079C691.002 488.879 691.869 486.629 692.232 486.079C695.668 480.874 705.554 438.451 708.196 417.579C710.883 396.349 711.311 389.515 711.299 368.012C711.272 318.607 703.261 277.189 684.522 229.579C679.624 217.137 668.255 194.31 661.36 183.079C658.997 179.229 656.172 174.504 655.082 172.579C649.452 162.632 627.16 133.565 616.658 122.478C572.025 75.3611 524.248 44.5529 466.402 25.5898C425.144 12.0644 376.141 6.11609 334.812 9.61641C310.32 11.6907 285.724 16.0233 266.412 21.6652C262.782 22.7257 257.337 24.3213 254.312 25.2109C248.912 26.7987 222.709 36.8385 219.464 38.5625C218.555 39.0454 212.862 41.8889 206.812 44.8815C200.762 47.8741 194.012 51.3616 191.812 52.6315C189.612 53.9014 186.462 55.6636 184.812 56.5474C181.341 58.4061 179.385 59.6333 169.812 65.9551C159.664 72.656 158.67 73.3616 149.312 80.5012C113.344 107.941 80.9261 144.683 58.3627 183.582C33.2328 226.905 19.8792 265.723 11.4072 320.079C8.50144 338.723 7.58806 375.489 9.46947 398.079C14.0697 453.315 32.1325 509.839 59.64 555.079C62.9848 560.58 77.8426 583.076 79.3495 584.92C79.8703 585.558 85.0762 591.929 90.9182 599.079C118.525 632.868 151.482 660.819 187.812 681.256C211.835 694.77 221.249 699.099 244.312 707.238C272.144 717.061 297.901 722.865 325.312 725.49C331.637 726.096 338.612 726.772 340.812 726.993C349.133 727.827 389.243 726.537 399.312 725.11ZM320.312 714.545C283.443 710.224 249.095 700.355 215.812 684.521C197.526 675.822 175.583 662.546 158.863 650.066C145.728 640.262 145.757 640.286 127.931 624.079C107.632 605.624 80.682 571.57 65.8068 545.579C60.3988 536.13 47.3117 510.041 47.3117 508.709C47.3117 508.24 46.0262 504.981 44.455 501.468C35.1049 480.558 25.7724 445.865 21.8893 417.579C15.2263 369.045 18.7992 316.65 31.9134 270.579C38.7913 246.417 50.8891 217.64 64.2839 193.579C73.3337 177.324 93.5015 148.131 99.8628 142.079C100.441 141.529 102.558 139.004 104.566 136.468C116.664 121.193 145.309 95.4217 167.312 80.0171C181.573 70.0325 183.473 68.8636 201.312 59.1007C252.966 30.8309 317.78 16.1729 376.014 19.5912C398.17 20.8917 432.468 25.9321 443.648 29.5306C445.388 30.0907 450.862 31.7133 455.812 33.1364C509.385 48.5386 563.37 81.5598 603.58 123.524C613.233 133.598 628 150.915 632.618 157.579C639.399 167.364 653.545 189.206 654.638 191.579C655.018 192.404 656.292 194.654 657.469 196.579C668.728 214.998 683.108 251.41 690.642 280.579C700.547 318.931 703.96 367.985 699.373 406.079C696.516 429.807 694.569 440.791 690.423 456.579C684.191 480.313 674.605 506.112 664.919 525.225C663.485 528.055 662.312 530.634 662.312 530.957C662.312 531.28 660.595 534.365 658.497 537.812C656.399 541.259 654.366 544.924 653.979 545.957C653.01 548.547 637.541 571.843 631.232 580.214C621.387 593.276 611.771 604.14 597.273 618.579C581.144 634.643 581.492 634.329 568.754 644.323C551.357 657.972 529.883 671.755 512.312 680.551C474.459 699.497 438.21 710.185 395.312 715.047C376.663 717.161 340.564 716.919 320.312 714.545ZM385.533 710.102C402.97 708.674 414.504 707.051 429.312 703.942C441.655 701.351 463.725 695.045 470.812 692.085C472.462 691.396 478.234 689.134 483.639 687.059C495.836 682.375 519.997 670.368 531.34 663.353C556.285 647.928 574.293 633.682 594.841 613.119C614.382 593.562 629.625 574.437 643.491 552.079C644.856 549.879 647.104 546.279 648.487 544.079C651.411 539.427 665.78 510.626 669.185 502.593C675.316 488.127 684.095 460.321 687.66 444.079C689.992 433.454 693.108 413.427 694.427 400.579C695.979 385.467 695.968 349.074 694.407 334.579C690.393 297.304 679.441 255.349 666.789 228.776C664.876 224.76 663.312 221.194 663.312 220.852C663.312 219.986 655.929 205.677 650.531 196.079C644.795 185.882 632.291 166.646 626.94 159.789C620.912 152.063 612.024 141.234 610.764 140.079C610.164 139.529 606.329 135.304 602.243 130.689C585.99 112.338 554.424 86.8541 528.638 71.2669C497.787 52.6185 458.375 37.8047 420.776 30.7252C396.575 26.1681 385.044 25.115 359.812 25.157C333.605 25.2007 318.586 26.7416 291.812 32.1337C251.84 40.1835 207.19 59.2239 174.312 82.2403C165.377 88.4948 155.817 95.5553 153.749 97.4271C152.929 98.1684 149.008 101.469 145.035 104.762C106.937 136.34 73.4488 181.734 52.3095 230.453C42.8034 252.362 33.8448 281.761 30.3311 302.579C29.7277 306.154 28.8036 311.329 28.2775 314.079C26.2601 324.625 24.3117 351.656 24.3117 369.1C24.3117 454.414 55.6549 536.549 112.264 599.579C125.098 613.87 142.336 630.258 153.312 638.605C155.787 640.488 158.037 642.281 158.312 642.591C158.587 642.901 161.962 645.391 165.812 648.126C186.82 663.046 204.291 673.031 228.812 684.131C256.822 696.81 296.521 706.882 328.975 709.542C336.035 710.121 343.612 710.74 345.812 710.919C355.685 711.72 369.15 711.443 385.533 710.102ZM320.514 678.009C318.68 676.724 312.263 666.694 307.764 658.079C306.615 655.879 304.238 651.558 302.48 648.476C300.698 645.349 299.181 641.15 299.049 638.976L298.812 635.079L306.406 635.306L314 635.533L315.263 628.464C316.072 623.936 316.18 621.048 315.564 620.432C314.456 619.324 302.213 617.286 297.916 617.493C296.323 617.57 293.04 616.877 290.619 615.953C288.03 614.964 285.874 614.644 285.382 615.176C284.922 615.673 282.887 620.354 280.861 625.579C278.834 630.804 276.307 636.909 275.244 639.145C274.181 641.381 273.319 643.631 273.327 644.145C273.363 646.295 264.72 665.561 263.717 665.57C261.774 665.587 259.312 662 259.312 659.152C259.312 657.628 259.956 654.964 260.744 653.231C263.195 647.838 270.312 629.021 270.312 627.934C270.312 626.765 268.328 625.764 256.382 620.907C245.602 616.524 241.811 616.671 239.104 621.579C236.159 626.92 237.243 635.06 242.211 644.89C245.418 651.234 245.88 652.808 244.671 653.272C240.964 654.694 238.581 651.893 235.423 642.399C231.4 630.302 230.54 622.362 232.695 617.204C233.584 615.076 234.312 612.945 234.312 612.469C234.312 611.992 231.522 609.572 228.112 607.091C220.091 601.255 215.923 600.96 212.5 605.988C209.558 610.309 208.005 620.756 208.882 630.329L209.547 637.579L206.964 637.579C202.901 637.579 201.953 634.592 202.703 624.152C204.105 604.642 207.667 595.596 214.589 593.969C219.639 592.781 220.96 593.298 232.987 601.173C239.208 605.247 244.749 608.579 245.301 608.579C245.852 608.579 250.692 610.426 256.057 612.684C269.457 618.321 272.682 619.469 273.574 618.917C274.921 618.085 277.388 611.251 276.585 610.577C275.929 610.026 267.962 606.519 260.812 603.632C246.086 597.688 238.028 593.92 236.578 592.301C234.255 589.708 221.432 581.062 218.568 580.157C217.333 579.767 215.625 578.75 214.771 577.896C211.54 574.665 205.086 569.579 204.217 569.579C203.719 569.579 203.312 570.722 203.312 572.119C203.312 576.811 199.488 582.671 195.372 584.288L191.586 585.775L191.033 593.086C190.728 597.107 189.981 601.329 189.371 602.469C187.453 606.052 181.227 609.58 176.83 609.575C170.455 609.568 161.544 602.761 157.201 594.579C155.038 590.507 154.823 588.94 154.933 578.079C155.074 564.169 157.527 553.354 160.68 552.747C164.135 552.082 164.434 554.071 161.756 559.92C159.612 564.603 159.121 567.249 158.981 574.869C158.832 583.017 159.117 584.725 161.359 589.104C163.297 592.888 165.093 594.732 168.859 596.806C175.138 600.263 178.087 600.268 182.595 596.829C189.059 591.9 188.446 585.454 181.129 581.428C177.085 579.203 176.792 578.753 176.507 574.316C176.339 571.711 176.615 569.579 177.119 569.579C177.624 569.579 179.704 570.905 181.742 572.524C183.781 574.144 187.042 575.995 188.989 576.638C192.071 577.655 192.873 577.552 195.171 575.841C197.371 574.204 197.858 572.974 198.092 568.478L198.372 563.079L190.25 556.079C185.783 552.229 180.257 547.398 177.97 545.344C175.683 543.289 173.49 541.601 173.097 541.594C172.704 541.586 171.885 540.651 171.277 539.516C170.458 537.984 170.48 537.081 171.365 536.016C173.28 533.708 175.185 534.309 180.275 538.829C182.907 541.167 190.63 548.016 197.436 554.05C204.243 560.083 211.162 566.277 212.812 567.814C214.462 569.351 218.962 572.488 222.812 574.786C226.662 577.083 233.862 581.707 238.812 585.06C246.381 590.188 258.502 596.579 260.657 596.579C260.985 596.579 263.628 597.662 266.532 598.986C285.813 607.775 290.166 608.911 330.812 615.764C344.663 618.099 346.312 618.734 346.312 621.733C346.312 624.435 343.93 625.023 337.976 623.791C335.136 623.204 331.188 622.457 329.203 622.133L325.595 621.542L324.987 626.311C323.805 635.591 322.347 638.612 315.793 645.362L309.433 651.913L310.978 654.996C313.484 659.995 321.119 671.05 323.816 673.584C325.189 674.873 326.312 676.472 326.312 677.137C326.312 678.981 322.682 679.527 320.514 678.009ZM404.062 675.499C403.099 674.939 402.342 673.94 402.38 673.28C402.417 672.62 406.017 668.954 410.38 665.134C414.742 661.314 418.312 657.826 418.312 657.384C418.312 656.941 417.007 656.579 415.413 656.579C411.943 656.579 402.44 651.745 396.759 647.09C392.807 643.852 392.593 643.369 390.699 633.406L388.735 623.079L385.774 623.079C383.284 623.079 382.761 622.64 382.495 620.324C382.308 618.705 382.721 617.373 383.495 617.096C384.219 616.837 392.462 615.29 401.812 613.658C440.38 606.929 435.124 608.452 458.562 597.211C466.124 593.584 472.312 590.226 472.312 589.75C472.312 588.708 464.584 586.127 456.403 584.437C451.101 583.342 449.991 583.413 446.135 585.09C443.757 586.125 440.617 587.783 439.157 588.775C437.697 589.768 435.763 590.579 434.858 590.579C432.69 590.579 427.312 587.772 427.312 586.64C427.312 585.671 438.84 578.809 444.068 576.666C448.217 574.966 450.444 575.446 466.734 581.55L480.104 586.561L484.694 584.86C489.131 583.215 489.331 583.223 490.715 585.116C492.615 587.715 491.661 588.695 483.823 592.192C480.263 593.78 477.095 595.839 476.783 596.768C476.471 597.697 477.362 600.719 478.764 603.485C480.165 606.25 481.312 608.981 481.312 609.552C481.312 610.124 476.602 612.934 470.846 615.797C462.898 619.749 460.107 621.659 459.249 623.732C457.736 627.383 459.537 632.842 463.003 635.113C466.35 637.306 474.003 637.308 478.24 635.117C480.951 633.715 481.411 633.006 480.913 631.002C480.582 629.67 480.052 627.548 479.734 626.286C478.794 622.547 482.267 619.154 486.9 619.285C492.352 619.44 494.56 622.414 494.136 629.032L493.812 634.079L500.664 637.353C506.562 640.171 507.34 640.841 506.247 642.158C503.141 645.9 501.664 645.741 496.197 641.074C490.291 636.033 489.244 635.78 485.457 638.476C481.515 641.283 475.234 642.664 469.704 641.939C460.924 640.789 455.653 636.866 452.102 628.838C448.825 621.431 451.591 617.33 463.562 611.85C467.824 609.898 471.312 608.124 471.312 607.908C471.312 606.763 468.318 600.579 467.764 600.579C466.94 600.579 462.643 602.523 448.634 609.229C442.487 612.172 436.096 614.579 434.434 614.579C430.545 614.579 429.413 616.669 430.46 621.92C432.721 633.269 437.383 660.969 437.96 666.486L438.613 672.732L434.84 671.156C432.765 670.289 430.913 669.579 430.724 669.579C430.535 669.579 430.081 667.319 429.714 664.557C429.348 661.795 428.642 659.284 428.147 658.978C427.651 658.671 422.814 662.506 417.398 667.5C411.982 672.494 407.159 676.566 406.681 676.549C406.203 676.532 405.024 676.06 404.062 675.499ZM418.772 648.493C426.207 644.998 426.003 645.932 423.338 627.579C422.659 622.904 421.764 618.716 421.35 618.272C420.554 617.419 404.39 619.314 400.562 620.71C397.582 621.796 397.715 624.21 401.85 644.214C402.3 646.387 409.169 650.433 412.573 650.53C413.541 650.557 416.331 649.641 418.772 648.493ZM516.967 612.751C516.056 611.745 515.312 609.961 515.312 608.786C515.312 605.516 520.96 599.751 525.31 598.58C529.399 597.479 531.312 594.244 531.312 588.43C531.312 585.343 529.888 584.797 527.39 586.924C524.613 589.29 517.202 591.665 510.703 592.272C504.46 592.855 504.354 592.822 500.725 589.193C497.329 585.797 497.096 585.187 497.572 580.96C497.974 577.397 498.928 575.532 501.919 572.47C509.061 565.156 516.599 563.002 524.094 566.133C534.979 570.679 541.413 584.178 538.399 596.146C537.752 598.718 537.407 601.008 537.633 601.234C538.005 601.606 545.431 603.492 552.562 605.026C555.624 605.685 556.287 608.525 553.85 610.547C552.321 611.816 551.919 611.739 539.399 607.788C535.068 606.421 533.899 606.34 533.547 607.386C531.598 613.179 520.58 616.744 516.967 612.751ZM523.062 584.116C528.893 581.401 529.425 579.952 526.233 575.469C523.795 572.045 519.454 569.579 515.864 569.579C511.955 569.579 505.312 576.056 505.312 579.867C505.312 586.878 513.116 588.746 523.062 584.116ZM560.177 579.866C554.498 574.484 546.31 566.592 541.982 562.329C534.936 555.391 531.312 553.034 531.312 555.391C531.312 556.949 527.22 560.579 525.464 560.579C524.49 560.579 522.871 559.978 521.865 559.242C519.885 557.794 519.176 558.712 537.017 539.643L542.222 534.079L544.434 536.274L546.645 538.468L542.978 542.527C538.76 547.196 538.584 547.956 541.282 549.846C544.462 552.073 579.312 585.746 579.312 586.592C579.312 587.016 578.074 587.658 576.562 588.019C575.049 588.379 573.067 588.895 572.158 589.164C571.057 589.49 567.05 586.38 560.177 579.866ZM345.312 580.601C296.777 576.866 251.256 556.419 216.812 522.883C203.231 509.66 185.684 486.875 178.842 473.579C165.819 448.274 161.554 436.788 156.329 412.954C144.556 359.251 155.104 299.607 184.59 253.156C201.854 225.959 229.102 199.277 255.312 183.903C280.366 169.206 301.937 161.748 334.377 156.568C346.488 154.634 385.346 155.749 397.312 158.373C425.723 164.606 446.04 172.517 467.54 185.72C482.251 194.753 503.44 212.295 512.999 223.354C516.196 227.053 519.038 230.304 519.314 230.579C520.725 231.983 528.714 243.028 533.42 250.079C544.81 267.149 556.635 293.927 561.782 314.308C575.111 367.087 567.259 428.622 541.607 472.412C539.245 476.445 537.312 479.936 537.312 480.169C537.312 481.05 525.832 497.338 520.813 503.579C511.596 515.041 496.338 529.887 484.435 538.974C445.04 569.051 393.934 584.342 345.312 580.601ZM386.812 573.569C413.763 569.533 440.19 560.224 462.812 546.8C478.691 537.376 501.991 517.194 515.018 501.579C545.56 464.97 562.526 417.635 562.509 369.079C562.5 343.767 559.322 323.73 551.6 300.295C547.725 288.538 537.122 266.49 529.578 254.508C514.621 230.748 490.856 207.071 466.812 191.975C432.39 170.363 390.528 159.034 352.312 160.99C310.516 163.128 271.774 177.094 239.058 201.816C230.856 208.013 209.101 229.079 203.272 236.466C172.778 275.118 157.288 319.94 157.32 369.435C157.345 408.31 168.82 447.421 190.185 481.448C204.903 504.889 230.578 530.393 253.59 544.431C280.443 560.812 305.884 569.852 336.876 574.027C348.864 575.642 374.543 575.407 386.812 573.569ZM346.812 552.911C344.612 552.655 342.489 552.13 342.094 551.745C341.699 551.36 342.547 547.452 343.978 543.062C348.825 528.192 347.992 502.154 342.255 489.184C341.123 486.626 339.578 481.573 338.821 477.956C338.065 474.339 337.257 471.191 337.026 470.96C336.258 470.192 325.274 482.044 324.696 484.265C324.31 485.748 325.155 487.945 327.324 491.097C334.938 502.164 336.339 515.492 331.061 526.64C326.823 535.59 317.292 543.579 310.851 543.579C307.78 543.579 307.511 541.089 309.864 534.455C313.425 524.417 310.739 511.642 303.621 504.759C299.453 500.728 298.513 501.264 295.813 509.206C293.147 517.051 288.559 521.579 283.278 521.579C278.772 521.579 278.177 519.983 280.805 514.944C282.757 511.202 282.715 507.159 280.708 505.493C279.357 504.372 278.607 504.451 275.958 505.991C271.016 508.864 262.365 511.579 258.155 511.579C254.799 511.579 254.312 511.285 254.312 509.254C254.312 507.975 255.437 505.871 256.812 504.579C258.843 502.671 259.311 501.279 259.308 497.155C259.302 488.769 258.797 488.225 234.812 470.741C223.196 462.275 208.832 446.81 203.044 436.539C198.727 428.881 192.312 411.84 192.312 408.034C192.312 407.197 190.737 405.583 188.812 404.447C184.493 401.899 184.408 399.92 188.376 394.29C192.109 388.994 191.693 385.902 186.711 381.93C182.165 378.305 182.296 375.552 187.199 371.668C189.898 369.531 191.289 367.516 191.745 365.081C192.574 360.665 198.351 349.626 203.26 343.079C210.074 333.993 225.448 320.373 226.666 322.343C227.342 323.437 225.526 325.497 219.484 330.491C208.795 339.327 195.312 360.478 195.312 368.409C195.312 372.798 197.38 374.59 204.833 376.656C219.129 380.621 251.416 377.475 257.351 371.54C261.661 367.23 258.923 356.324 250.143 342.829C247.033 338.049 245.516 336.579 243.694 336.579C241.499 336.579 241.304 336.992 241.216 341.829C241.093 348.548 239.165 356.8 237.597 357.32C236.688 357.621 236.383 354.572 236.383 345.181C236.383 334.54 236.075 332.035 234.347 328.649C231.948 323.945 231.896 323.579 233.633 323.579C235.171 323.579 247.926 336.577 254.242 344.579C256.63 347.604 259.442 352.104 260.491 354.579C261.541 357.054 264.378 362.004 266.796 365.579L271.193 372.079L270.091 377.474C268.993 382.853 268.998 382.875 272.16 385.474C276.883 389.356 276.103 393.579 270.662 393.579C269.686 393.579 269.373 392.961 269.749 391.777C270.597 389.106 268.398 386.943 263.027 385.164C257.087 383.197 253.705 383.178 244.811 385.062C240.961 385.878 235.112 386.568 231.812 386.597C219.661 386.703 198.493 391.899 194.301 395.804C191.843 398.094 191.718 400.583 194.062 400.568C195.024 400.562 200.722 398.746 206.725 396.533C216.96 392.759 218.636 392.447 233.725 391.522C242.572 390.979 250.374 390.334 251.061 390.089C251.747 389.844 253.322 390.03 254.561 390.504L256.812 391.364L254.312 391.978C252.937 392.316 248.703 393.015 244.903 393.533C241.104 394.05 237.61 395.06 237.138 395.776C235.827 397.771 237.234 408.829 240.418 421.557C243.097 432.265 243.81 433.808 251.05 444.557C263.742 463.399 263.308 462.977 279.812 472.51C284.85 475.42 287.959 476.557 290.907 476.566C295.129 476.58 298.312 474.382 298.312 471.454C298.312 469.671 292.692 464.261 285.49 459.11C278.582 454.169 273.481 447.172 268.906 436.362C264.644 426.29 263.326 419.49 263.317 407.541C263.313 401.143 262.837 398.071 261.417 395.285C259.297 391.128 259.613 390.532 263.537 391.282C267.701 392.078 268.231 393.403 267.058 400.079C266.291 404.442 266.33 408.727 267.202 415.783C268.864 429.226 270.671 433.909 276.435 439.703C280.92 444.212 281.654 444.579 286.176 444.579C289.214 444.579 291.52 444.034 292.262 443.139C294.27 440.719 296.312 442.446 296.312 446.564C296.312 448.706 296.964 450.876 297.821 451.587C299.081 452.633 299.917 452.217 302.89 449.065C306.05 445.714 306.619 445.458 307.946 446.785C308.768 447.608 310.144 451.36 311.002 455.124L312.563 461.967L309.75 464.21C307.101 466.323 307.003 466.668 308.076 470.164C308.985 473.127 308.922 474.575 307.763 477.349C305.044 483.858 305.715 485.906 312.316 491.233C317.99 495.813 320.261 498.964 318.882 500.342C318.545 500.679 316.318 499.039 313.933 496.698C310.134 492.97 309.122 492.481 305.781 492.761C303.683 492.936 301.805 493.57 301.609 494.17C301.412 494.77 303.686 497.695 306.661 500.67C314.833 508.842 316.621 513.057 317.121 525.329C317.397 532.1 317.924 535.568 318.675 535.546C320.944 535.48 324.273 531.715 327.26 525.837C332.809 514.918 330.835 501.872 321.766 489.518L318.118 484.548L323.154 479.814C332.989 470.569 337.899 454.536 333.511 446.001C330.862 440.85 326.001 436.294 323.661 436.772C322.049 437.101 321.847 438.011 322.084 443.87C322.342 450.221 320.567 456.579 318.536 456.58C318.138 456.58 317.812 452.517 317.812 447.551L317.812 438.522L313.472 434.39C309.768 430.863 309.373 430.125 310.775 429.34C314.797 427.089 325.189 430.892 331.633 436.974C333.735 438.957 335.842 440.579 336.315 440.579C337.652 440.579 338.172 437.984 339.324 425.579C339.911 419.254 340.559 412.729 340.764 411.079C343.534 388.714 343.607 385.238 341.451 378.025C336.061 359.986 317.693 342.628 295.441 334.548C290.695 332.824 279.837 329.855 271.312 327.95C247.247 322.572 228.904 316.938 218.88 311.847C204.25 304.416 194.312 296.939 194.312 293.361C194.312 289.277 206.275 266.579 208.428 266.579C208.962 266.579 211.767 269.005 214.661 271.969C225.185 282.748 244.194 289.88 281.812 297.161C310.393 302.694 333.107 312.278 346.967 324.655C351.232 328.464 355.319 331.579 356.05 331.579C357.09 331.579 357.318 329.259 357.095 320.908L356.812 310.236L352.312 307.818C349.837 306.487 341.512 302.908 333.812 299.863C326.112 296.819 317.337 293.093 314.312 291.584C311.287 290.075 307.687 288.507 306.312 288.099C304.937 287.691 302.237 286.686 300.312 285.866C298.387 285.046 295.912 284.018 294.812 283.581C293.712 283.144 290.112 281.566 286.812 280.074C283.512 278.581 278.562 276.489 275.812 275.425C273.062 274.36 269.394 272.834 267.661 272.034C265.927 271.234 264.28 270.579 264 270.579C263.719 270.579 259.962 268.899 255.651 266.845C245.548 262.033 240.747 261.943 229.986 266.364C221.495 269.853 219.302 270.257 219.329 268.329C219.372 265.237 228.734 258.879 245.908 250.278C253.111 246.67 261.211 242.241 263.908 240.436C273.436 234.056 280.537 228.563 282.526 226.034C287.305 219.958 303.528 210.087 315.333 206.072C322.135 203.759 334.531 201.836 339.087 202.387C342.727 202.828 346.731 199.763 350.4 193.724C352.276 190.636 353.983 187.653 354.192 187.094C355.096 184.684 357.798 182.579 359.989 182.579C361.855 182.579 363.508 184.346 367.797 190.927C370.79 195.518 373.817 199.739 374.525 200.307C375.233 200.875 379.412 201.653 383.812 202.036C404.178 203.809 422.114 211.725 436.862 225.449C440.19 228.546 443.947 231.901 445.211 232.904C452.78 238.914 460.295 243.969 464.261 245.719C484.523 254.659 500.312 264.534 500.312 268.267C500.312 270.232 498.337 269.891 490.199 266.517C486.136 264.832 480.749 263.204 478.227 262.897C473.598 262.335 469.069 263.956 446.626 274.21C443.773 275.513 441.109 276.579 440.704 276.579C440.3 276.579 439.259 277.185 438.39 277.924C437.522 278.664 435.012 279.984 432.812 280.857C430.612 281.73 422.062 285.222 413.812 288.616C405.562 292.011 394.017 296.747 388.158 299.141C382.298 301.535 374.086 305.073 369.908 307.003L362.312 310.512L362.312 320.546C362.312 332.442 362.888 332.854 370.372 326.308C384.272 314.148 404.796 306.15 442.812 298.076C456.238 295.225 485.165 286.687 490.418 284.025C493.144 282.644 498.752 278.305 502.881 274.384C507.209 270.272 510.741 267.64 511.225 268.167C511.921 268.923 516.375 277.096 523.986 291.579C526.146 295.69 525.564 297.086 520.062 300.987C501.664 314.031 493.5 317.384 452.812 328.607C431.584 334.462 411.85 341.279 402.812 345.879C394.368 350.176 384.953 358.235 381.83 363.838C379.859 367.373 378.928 370.973 378.208 377.838C377.675 382.921 375.627 397.57 373.657 410.392C370.361 431.848 370.116 434.954 370.58 449.392C370.971 461.581 371.67 467.532 373.715 476.079C380.392 503.991 380.518 504.767 380.666 519.079C380.797 531.632 379.175 551.049 377.889 552.335C377.211 553.014 351.756 553.485 346.812 552.911ZM292.745 512.078C293.883 509.68 294.313 506.607 294.109 502.328C293.848 496.845 293.567 496.079 291.812 496.079C290.124 496.079 289.795 496.782 289.703 500.579C289.643 503.054 289.08 506.346 288.453 507.895C285.488 515.209 289.435 519.055 292.745 512.078ZM269.84 505.385C274.878 503.089 277.077 493.623 272.28 494.878C271.258 495.145 270.204 494.741 269.908 493.969C269.614 493.205 268.517 492.579 267.468 492.579C265.368 492.579 264.312 495.966 264.312 502.704C264.312 506.953 265.322 507.443 269.84 505.385ZM301.637 484.208C304.503 478.332 304.606 475.146 301.895 476.186C299.897 476.953 296.312 484.525 296.312 487.979C296.312 492.245 298.459 490.725 301.637 484.208ZM284.062 486.329C283.832 485.642 283.045 485.079 282.312 485.079C281.578 485.079 280.791 485.642 280.562 486.329C280.314 487.073 281.023 487.579 282.312 487.579C283.601 487.579 284.31 487.073 284.062 486.329ZM270.312 479.579C270.312 479.029 269.637 478.579 268.812 478.579C267.987 478.579 267.312 479.029 267.312 479.579C267.312 480.129 267.987 480.579 268.812 480.579C269.637 480.579 270.312 480.129 270.312 479.579ZM277.816 479.572C278.158 479.019 277.715 478.288 276.832 477.949C274.917 477.214 273.85 478.024 274.771 479.513C275.601 480.857 277.005 480.884 277.816 479.572ZM252.576 475.982C253.53 475.027 252.226 472.579 250.764 472.579C249.089 472.579 247.996 474.259 248.812 475.579C249.495 476.685 251.644 476.914 252.576 475.982ZM261.812 474.566C261.812 473.748 260.799 472.936 259.562 472.76C257.373 472.449 256.438 474.373 258.013 475.947C259.178 477.112 261.812 476.155 261.812 474.566ZM253.812 466.079C253.812 463.783 253.314 463.008 251.689 462.777C249.281 462.433 247.937 464.822 248.875 467.779C249.276 469.044 250.22 469.591 251.648 469.388C253.317 469.15 253.812 468.394 253.812 466.079ZM233.149 459.701C235.29 458.344 234.163 454.129 231.562 453.76C229.672 453.491 229.312 453.905 229.312 456.343C229.312 460.393 230.465 461.402 233.149 459.701ZM240.614 451.093C240.723 450.551 240.024 449.955 239.062 449.77C237.967 449.559 237.312 450.049 237.312 451.079C237.312 452.819 240.267 452.831 240.614 451.093ZM249.062 448.996C248.109 448.043 246.198 449.587 246.908 450.736C247.33 451.419 247.89 451.401 248.608 450.683C249.197 450.095 249.401 449.335 249.062 448.996ZM225.272 449.127C227.189 446.817 226.126 444.079 223.312 444.079C221.727 444.079 220.715 444.725 220.493 445.877C220.147 447.675 221.888 450.579 223.312 450.579C223.727 450.579 224.609 449.926 225.272 449.127ZM234.312 444.02C234.312 442.517 233.735 441.579 232.812 441.579C231.315 441.579 230.663 445.598 231.951 446.886C233.085 448.019 234.312 446.53 234.312 444.02ZM243.645 441.006C243.344 440.222 242.722 439.579 242.264 439.579C240.912 439.579 240.088 441.553 240.735 443.24C241.208 444.474 241.637 444.554 242.764 443.619C243.55 442.967 243.946 441.791 243.645 441.006ZM220.312 439.034C220.312 438.223 219.412 436.789 218.312 435.847C217.096 434.807 216.312 432.897 216.312 430.98C216.312 429.244 215.588 427.224 214.703 426.49C213.34 425.358 212.894 425.431 211.772 426.964C211.044 427.96 210.621 429.293 210.831 429.927C211.041 430.561 211.697 432.972 212.289 435.284C213.693 440.773 215.791 442.928 218.381 441.542C219.443 440.974 220.312 439.846 220.312 439.034ZM228.976 435.147C228.124 432.928 225.312 433.196 225.312 435.496C225.312 437.602 227.303 438.795 228.694 437.522C229.18 437.077 229.307 436.009 228.976 435.147ZM238.645 436.153C239.456 434.04 236.872 432.2 235.468 433.891C234.653 434.873 234.671 435.538 235.535 436.403C237.091 437.959 237.979 437.887 238.645 436.153ZM227.146 426.445C226.925 424.883 226.046 423.971 224.557 423.759C221.198 423.282 220.411 426.432 223.305 428.775C226.006 430.962 227.645 429.968 227.146 426.445ZM206.718 418.861C205.186 416.433 203.312 416.122 203.312 418.296C203.312 420.888 205.41 422.881 206.739 421.552C207.443 420.849 207.436 420 206.718 418.861ZM213.132 412.825C213.529 410.026 210.735 408.728 208.697 410.765C206.696 412.766 207.991 415.767 210.689 415.382C212.01 415.194 212.933 414.228 213.132 412.825ZM233.812 412.566C233.812 410.422 230.906 410.732 230.485 412.92C230.227 414.257 230.634 414.664 231.971 414.407C232.983 414.212 233.812 413.383 233.812 412.566ZM226.146 409.714C226.576 406.676 225.076 405.202 222.412 406.048C220.35 406.702 219.476 410.411 221.021 411.955C222.541 413.476 225.817 412.043 226.146 409.714ZM205.149 407.701C207.154 406.43 206.204 402.079 203.921 402.079C201.586 402.079 199.778 404.745 200.621 406.944C201.307 408.731 203.061 409.025 205.149 407.701ZM219.126 400.823C219.343 398.57 218.953 397.379 217.863 396.961C215.738 396.145 213.312 398.317 213.312 401.035C213.312 403.862 214.219 404.737 216.771 404.372C218.267 404.157 218.895 403.21 219.126 400.823ZM230.312 399.079C230.312 396.228 229.935 395.579 228.28 395.579C225.725 395.579 224.821 397.794 226.27 400.501C228.079 403.881 230.312 403.096 230.312 399.079ZM202.041 381.893C202.654 380.053 197.471 377.02 196.084 378.407C195.251 379.241 195.442 380.066 196.824 381.593C198.782 383.756 201.371 383.905 202.041 381.893ZM357.334 304.329C357.346 303.642 357.336 285.788 357.312 264.655C357.279 236.186 356.955 225.854 356.061 224.777C355.084 223.6 352.665 223.425 343.333 223.856C328.97 224.518 326.417 225.332 302.312 236.924C297.087 239.436 288.987 243.917 284.312 246.88C275.347 252.562 267.099 256.404 258.812 258.758C255.763 259.624 253.812 260.745 253.812 261.629C253.812 263.356 260.763 267.066 273.508 272.139C283.333 276.051 284.681 276.62 301.312 283.872C307.087 286.39 312.929 288.768 314.295 289.156C315.661 289.545 320.836 291.773 325.795 294.108C343.795 302.583 350.874 305.438 354.062 305.508C356.022 305.551 357.321 305.083 357.334 304.329ZM369.661 304.183C371.394 303.414 376.412 301.371 380.812 299.641C394.31 294.335 400.049 291.887 413.312 285.777C416.887 284.13 424.388 280.97 429.98 278.755C435.573 276.54 444.348 272.853 449.48 270.561C454.613 268.269 460.724 265.541 463.062 264.499C465.399 263.458 467.312 262.198 467.312 261.699C467.312 261.201 463.599 259.574 459.062 258.084C449.442 254.924 444.264 252.452 435.312 246.745C431.737 244.466 423.187 239.859 416.312 236.507C409.437 233.155 402.953 229.952 401.904 229.389C394.085 225.195 367.181 221.783 363.834 224.561C362.518 225.653 362.312 231.221 362.312 265.702C362.312 305.539 362.314 305.579 364.411 305.579C365.565 305.579 367.927 304.951 369.661 304.183ZM260.977 255.023C276.221 250.12 286.471 243.444 284.349 239.801C282.49 236.611 280.598 234.579 279.486 234.579C278.878 234.579 274.427 237.161 269.596 240.317C264.765 243.472 257.016 248.085 252.377 250.567C247.737 253.049 243.775 255.604 243.571 256.245C242.662 259.109 249.841 258.604 260.977 255.023ZM476.058 256.579C476.232 255.587 473.558 253.725 468.158 251.079C460.51 247.332 450.126 240.939 444.504 236.516C443.15 235.451 441.387 234.579 440.587 234.579C438.534 234.579 435.385 238.649 435.345 241.351C435.244 248.219 474.922 263.06 476.058 256.579ZM433.604 237.256C435.809 233.89 436.227 228.579 434.287 228.579C433.19 228.579 431.515 232.343 430.614 236.829C429.938 240.197 431.528 240.424 433.604 237.256ZM289.312 237.202C289.312 234.925 286.358 228.579 285.298 228.579C283.753 228.579 284.143 233.893 285.868 236.357C287.621 238.86 289.312 239.274 289.312 237.202ZM305.543 232.079C310.768 229.604 315.441 227.577 315.927 227.574C316.414 227.571 318.053 226.559 319.57 225.324C322.086 223.276 322.241 222.771 321.337 219.562C320.792 217.628 319.034 214.478 317.429 212.562L314.512 209.079L307.662 212.414C298.589 216.831 290.495 222.428 289.74 224.805C288.551 228.553 291.932 236.579 294.701 236.579C295.439 236.579 300.319 234.554 305.543 232.079ZM428.291 232.619C431.248 226.823 430.912 224.275 426.772 221.117C421.126 216.811 406.397 209.333 404.781 209.953C403.051 210.617 397.312 219.353 397.312 221.323C397.312 223.428 401.847 227.12 406.025 228.414C408.108 229.06 412.737 231.121 416.312 232.995C419.887 234.869 423.59 236.443 424.541 236.491C425.597 236.545 427.058 235.036 428.291 232.619ZM351.562 219.89C353.013 219.06 352.28 216.268 349.196 210.877C345.223 203.932 343.016 202.88 335.814 204.492L330.312 205.723L330.325 211.401C330.351 222.006 330.101 221.785 341.192 221C346.483 220.626 351.149 220.126 351.562 219.89ZM388.707 214.429C389.98 204.966 389.699 204.579 381.554 204.579L374.734 204.579L371.273 210.244C368.065 215.493 366.074 219.492 366.594 219.642C366.714 219.677 370.412 219.941 374.812 220.229C379.212 220.517 383.018 220.958 383.271 221.209C383.523 221.459 384.648 221.532 385.771 221.372C387.482 221.127 387.956 220.006 388.707 214.429ZM327.83 218.521C328.189 217.389 327.95 214.239 327.298 211.521C326.049 206.315 323.84 205.033 321.33 208.058C320.343 209.247 320.55 210.617 322.391 215.058C324.773 220.805 326.713 222.04 327.83 218.521ZM395.919 218.829C396.219 217.867 397.307 215.298 398.336 213.12C400.336 208.889 399.649 206.579 396.389 206.579C393.434 206.579 392.312 208.836 392.312 214.779C392.312 219.321 392.644 220.579 393.843 220.579C394.685 220.579 395.62 219.792 395.919 218.829ZM363.853 215.514C367.946 209.03 370.312 204.604 370.312 203.429C370.312 202.83 368.422 199.019 366.113 194.96C361.631 187.082 359.405 185.827 357.013 189.829C356.274 191.067 354.239 194.472 352.49 197.396C350.742 200.32 349.312 203.029 349.312 203.417C349.312 205.36 358.56 219.579 359.824 219.579C360.628 219.579 362.441 217.75 363.853 215.514ZM402.656 541.159C396.409 538.251 390.403 531.089 387.285 522.832C383.457 512.693 385.129 503.511 393.276 489.925L396.367 484.77L390.81 478.425C382.867 469.356 379.807 462.707 379.832 454.579C379.848 449.622 380.411 447.097 382.205 443.939C384.991 439.034 391.634 433.243 397.559 430.554C402.112 428.487 408.803 427.947 409.803 429.566C410.138 430.108 408.577 432.462 406.333 434.798C401.251 440.086 399.809 444.499 401.183 450.552C402.404 455.925 401.802 456.897 399.226 453.719C397.729 451.873 397.312 449.759 397.312 444.028C397.312 439.996 396.842 436.407 396.268 436.052C393.342 434.244 386.592 443.298 384.846 451.374C383.21 458.938 389.618 474.228 397.015 480.411C399.378 482.387 401.312 484.317 401.312 484.701C401.312 485.086 399.605 487.578 397.519 490.24C391.954 497.342 389.96 502.221 389.494 509.88C388.99 518.171 391.91 527.376 396.616 532.329C401.475 537.444 402.078 536.779 402.504 525.829C402.966 513.951 404.961 509.254 412.856 501.456C418.412 495.969 419.252 494.279 417.09 492.943C414.309 491.224 409.766 492.698 405.776 496.614C401.457 500.853 400.312 501.394 400.312 499.196C400.312 497.919 404.231 494.159 410.959 488.981L413.686 486.882L412.438 479.898C411.751 476.056 411.497 471.688 411.873 470.191C412.394 468.116 412.012 466.889 410.267 465.032C408.997 463.68 407.991 461.368 408.008 459.838C408.053 455.612 410.172 448.862 412.04 446.994C413.607 445.427 413.915 445.556 416.804 448.998C420.782 453.736 423.312 453.13 423.312 447.441C423.312 442.719 424.654 441.989 429.567 444.042C435.033 446.326 440.628 443.49 447.354 435.026C450.624 430.911 453.363 417.546 453.212 406.436C453.07 395.979 452.402 394.145 448.597 393.772C446.872 393.602 444.905 392.795 444.227 391.977C443.208 390.749 443.63 389.838 446.652 386.743C450.416 382.889 451.293 379.281 449.349 375.65C448.645 374.333 448.98 372.746 450.599 369.731C463.872 345.017 463.641 345.36 474.386 334.383C484.34 324.214 488.479 321.201 486.824 325.329C484.245 331.763 483.332 337.223 483.322 346.27C483.312 355.811 482.438 359.211 480.713 356.42C480.308 355.765 479.645 351.225 479.24 346.333C478.834 341.44 478.256 337.19 477.954 336.888C477.652 336.586 476.343 336.606 475.045 336.932C470.478 338.078 461.473 355.291 460.545 364.646C460.173 368.403 460.511 369.696 462.452 371.938C464.659 374.487 465.845 374.796 480.812 376.714C509.613 380.406 524.875 377.486 524.616 368.333C524.38 360.017 514.859 344.91 501.934 332.344C493.045 323.703 491.357 320.465 497.592 324.02C507.893 329.892 522.516 349.141 527.351 363.194C528.707 367.134 530.453 369.896 532.827 371.852C534.743 373.432 536.312 375.425 536.312 376.281C536.312 377.137 534.737 379.58 532.812 381.711C528.521 386.461 528.212 390.484 531.812 394.762C535.208 398.798 534.984 401.543 530.997 404.725C528.408 406.79 527.388 408.654 526.343 413.225C523.463 425.818 512.636 444.957 502.078 456.118C496.003 462.54 482.839 473.292 473.04 479.837C463.844 485.978 460.312 490.553 460.312 496.323C460.312 499.63 460.961 501.563 462.812 503.762C465.324 506.748 466.058 510 464.444 510.998C462.839 511.99 448.142 508.595 445.309 506.577C441.777 504.063 439.669 504.043 438.347 506.514C436.924 509.172 437.058 511.569 438.818 514.944C441.46 520.01 440.857 521.579 436.266 521.579C433.304 521.579 431.563 520.922 429.766 519.125C427.336 516.695 426.566 514.579 428.112 514.579C428.552 514.579 429.452 515.119 430.112 515.779C431.007 516.675 431.6 516.691 432.448 515.843C433.296 514.995 433.169 513.439 431.948 509.706C431.048 506.955 430.312 502.862 430.312 500.61C430.312 497.779 429.818 496.327 428.711 495.902C426.382 495.009 425.223 497.447 425.537 502.579C425.854 507.775 424.398 509.044 422.507 505.218C419.959 500.064 415.655 502.421 411.62 511.18C407.834 519.398 407.38 527.739 410.293 535.528C413.549 544.236 411.89 545.459 402.656 541.159ZM454.973 505.018C455.885 502.642 453.989 493.294 452.496 492.802C451.772 492.564 450.932 493.316 450.629 494.474C450.018 496.812 449.228 497.095 447.669 495.537C446.946 494.814 446.227 494.976 445.322 496.067C443.496 498.267 445.362 502.03 449.541 504.578C453.488 506.984 454.197 507.042 454.973 505.018ZM423.312 487.569C423.312 484.495 419.271 476.579 417.702 476.579C415.944 476.579 415.96 477.33 417.825 482.617C420.134 489.162 423.312 492.029 423.312 487.569ZM438.769 486.649C439.508 485.452 437.627 484.266 436.295 485.09C435.177 485.781 435.911 487.579 437.312 487.579C437.797 487.579 438.453 487.161 438.769 486.649ZM452.312 479.579C452.312 479.029 451.835 478.579 451.253 478.579C450.67 478.579 450.472 479.029 450.812 479.579C451.152 480.129 451.628 480.579 451.871 480.579C452.113 480.579 452.312 480.129 452.312 479.579ZM445.12 478.504C444.923 477.913 444.334 477.429 443.812 477.429C443.289 477.429 442.7 477.913 442.503 478.504C442.306 479.096 442.895 479.579 443.812 479.579C444.728 479.579 445.317 479.096 445.12 478.504ZM441.226 471.829C453.766 464.892 457.683 460.685 472.537 438.205C476.099 432.814 478.927 424.428 481.346 412.079C483.686 400.14 483.827 395.714 481.892 394.972C481.111 394.672 476.113 393.874 470.786 393.199L461.101 391.971L459.541 394.352C458.568 395.837 457.684 400.562 457.193 406.907C455.889 423.77 454.412 430.436 449.955 439.579C445.477 448.766 438.585 456.556 428.062 464.324C423.316 467.827 422.312 469.085 422.312 471.525C422.312 478.17 429.553 478.287 441.226 471.829ZM461.661 475.111C462.366 473.274 460.491 472 459.112 473.379C458.044 474.447 458.812 476.579 460.264 476.579C460.722 476.579 461.351 475.919 461.661 475.111ZM470.866 475.492C471.896 473.825 469.578 471.913 468.199 473.292C467.045 474.446 467.767 476.579 469.312 476.579C469.797 476.579 470.496 476.09 470.866 475.492ZM470.301 468.092C471.818 466.264 470.932 463.579 468.812 463.579C466.977 463.579 465.854 465.943 466.673 468.079C467.405 469.985 468.726 469.99 470.301 468.092ZM490.809 457.588C491.61 455.066 490.705 453.579 488.369 453.579C486.573 453.579 484.902 457.108 485.919 458.753C486.902 460.343 490.183 459.562 490.809 457.588ZM482.082 451.392C481.464 449.538 479.312 449.23 479.312 450.996C479.312 451.867 480.024 452.579 480.895 452.579C481.766 452.579 482.3 452.045 482.082 451.392ZM498.673 448.079C499.527 445.854 498.265 443.383 496.601 444.022C495.802 444.329 494.96 444.579 494.73 444.579C494.5 444.579 494.312 445.704 494.312 447.079C494.312 448.866 494.852 449.579 496.205 449.579C497.246 449.579 498.357 448.904 498.673 448.079ZM488.312 444.638C488.312 442.354 486.735 441.085 485.792 442.611C484.952 443.97 485.931 446.579 487.28 446.579C487.848 446.579 488.312 445.706 488.312 444.638ZM479.312 441.52C479.312 441.003 478.637 440.579 477.812 440.579C476.265 440.579 475.825 441.759 476.951 442.886C477.75 443.685 479.312 442.781 479.312 441.52ZM506.247 438.821C506.911 437.365 507.71 434.014 508.022 431.376C508.545 426.965 508.418 426.579 506.451 426.579C504.692 426.579 504.312 427.174 504.312 429.924C504.312 431.999 503.552 433.957 502.312 435.079C500.085 437.094 499.732 439.6 501.434 441.301C503.004 442.872 504.831 441.931 506.247 438.821ZM484.312 435.079C484.312 433.524 483.745 432.579 482.812 432.579C481.878 432.579 481.312 433.524 481.312 435.079C481.312 436.635 481.878 437.579 482.812 437.579C483.745 437.579 484.312 436.635 484.312 435.079ZM494.312 435.579C494.312 434.246 493.645 433.579 492.312 433.579C490.978 433.579 490.312 434.246 490.312 435.579C490.312 436.913 490.978 437.579 492.312 437.579C493.645 437.579 494.312 436.913 494.312 435.579ZM496.73 428.972C498.775 428.188 498.778 424.696 496.734 423.911C495.866 423.578 494.455 424.008 493.597 424.865C492.74 425.723 492.31 427.134 492.643 428.002C493.295 429.701 494.244 429.926 496.73 428.972ZM516.312 419.472C516.312 417.458 513.866 416.873 512.782 418.627C512.426 419.204 512.382 420.321 512.685 421.11C513.447 423.097 516.312 421.803 516.312 419.472ZM511.312 414.079C512.305 412.883 512.305 412.276 511.312 411.079C509.68 409.114 507.682 409.171 506.901 411.206C506.289 412.801 507.821 415.579 509.312 415.579C509.727 415.579 510.627 414.904 511.312 414.079ZM488.312 412.52C488.312 411.388 487.862 410.74 487.312 411.079C486.762 411.419 486.312 412.346 486.312 413.138C486.312 413.931 486.762 414.579 487.312 414.579C487.862 414.579 488.312 413.653 488.312 412.52ZM499.312 409.638C499.312 406.344 498.26 405.278 495.902 406.183C494.955 406.546 494.312 407.964 494.312 409.686C494.312 412.106 494.721 412.579 496.812 412.579C498.912 412.579 499.312 412.109 499.312 409.638ZM518.686 403.811C517.275 401.574 515.32 401.605 513.921 403.888C513.032 405.337 513.2 405.985 514.766 407.148C516.481 408.421 516.908 408.412 518.249 407.07C519.414 405.905 519.518 405.13 518.686 403.811ZM506.138 401.774C506.507 399.172 504.771 396.579 502.658 396.579C500.78 396.579 499.948 398.995 500.739 402.147C501.582 405.504 505.649 405.224 506.138 401.774ZM493.312 398.399C493.312 396.12 492.909 395.51 491.573 395.768C489.72 396.124 488.788 398.773 489.689 401.121C490.635 403.585 493.312 401.573 493.312 398.399ZM527.576 399.982C528.784 398.774 526.97 396.447 523.438 394.673C514.894 390.381 493.886 385.84 488.74 387.173C487.679 387.447 482.087 386.753 476.312 385.629C463.061 383.05 461.943 383.072 455.562 386.043C451.6 387.888 450.312 389.018 450.312 390.65C450.312 392.426 450.714 392.692 452.562 392.139C458.536 390.349 468.08 389.873 481.312 390.705C499.876 391.872 504.908 392.803 515.312 396.992C523.882 400.443 526.481 401.077 527.576 399.982ZM523.275 381.123C523.94 380.322 524.204 379.214 523.862 378.661C523.016 377.291 518.312 379.477 518.312 381.24C518.312 383.031 521.759 382.95 523.275 381.123ZM209.766 364.125C203.719 358.077 210.429 349.392 218.714 352.542C223.615 354.406 223.378 362.459 218.347 365.061C214.294 367.157 212.615 366.974 209.766 364.125ZM502.312 365.285C496.974 362.585 496.394 355.211 501.313 352.579C503.607 351.351 510.157 352.884 511.546 354.974C513.266 357.56 512.309 362.436 509.677 364.507C506.622 366.91 505.713 367.006 502.312 365.285ZM73.0107 424.835C72.7767 424.419 73.8725 420.029 75.4459 415.079C77.0192 410.129 78.3077 405.179 78.3091 404.079C78.3113 402.337 72.5338 396.579 70.7834 396.579C69.3168 396.579 61.3812 389.276 61.9129 388.416C62.2323 387.899 63.6902 387.567 65.1527 387.678C66.6151 387.79 71.469 387.813 75.9391 387.73L84.0665 387.579L87.4391 377.173C89.294 371.449 91.1966 366.611 91.6671 366.423C92.1376 366.234 93.8591 370.354 95.4927 375.579C97.1262 380.804 98.6396 385.642 98.8558 386.329C99.1389 387.23 102.32 387.579 110.221 387.579C116.256 387.579 121.435 387.971 121.731 388.449C122.238 389.27 114.068 396.111 108.062 399.893C104.472 402.155 104.513 404.842 108.312 416.079C109.962 420.961 111.312 425.095 111.312 425.267C111.312 426.412 108.767 424.993 104.153 421.276C101.215 418.909 97.0974 415.931 95.0021 414.658L91.1925 412.343L88.9377 414.461C87.6975 415.626 86.2044 416.579 85.6196 416.579C85.0349 416.579 83.9648 417.292 83.2416 418.164C81.172 420.658 73.4822 425.672 73.0107 424.835ZM609.312 424.212C609.312 423.46 610.662 418.748 612.312 413.741C613.962 408.734 615.312 404.172 615.312 403.604C615.312 403.036 611.599 399.818 607.062 396.454C602.524 393.09 598.812 389.829 598.812 389.208C598.812 388.477 601.453 388.052 606.312 388.003C619.688 387.866 620.279 387.761 621.298 385.329C621.816 384.092 623.433 379.147 624.89 374.341C626.348 369.535 627.906 365.829 628.352 366.105C628.799 366.381 630.567 371.119 632.28 376.634C636.019 388.669 636.436 388.944 649.445 387.962C660.945 387.094 660.995 388.192 649.81 396.054C645.136 399.339 641.312 402.742 641.312 403.616C641.312 404.49 642.672 409.226 644.335 414.142C648.041 425.1 647.931 426.544 643.624 423.404C641.871 422.125 637.666 419.121 634.28 416.728L628.122 412.376L623.467 415.676C620.907 417.491 618.587 419.227 618.312 419.534C617.315 420.644 610.431 425.579 609.878 425.579C609.567 425.579 609.312 424.964 609.312 424.212ZM557.916 252.992C557.584 252.125 557.312 249.924 557.312 248.101C557.312 244.494 559.842 241.751 568.947 235.486C571.598 233.663 574.452 231.617 575.289 230.941C576.126 230.265 581.762 226.019 587.812 221.507C604.564 209.012 603.561 210.891 597.9 202.607C595.26 198.742 592.55 195.579 591.879 195.579C591.207 195.579 586.418 198.759 581.235 202.645C564.587 215.128 563.428 215.495 560.767 209.126C558.057 202.641 559.506 189.489 563.081 188.112C564.32 187.634 565.731 188.529 568.047 191.262C569.826 193.362 571.289 195.417 571.297 195.829C571.329 197.459 573.8 196.392 579.397 192.329C582.618 189.992 585.266 187.341 585.283 186.439C585.299 185.537 583.245 181.992 580.719 178.56L576.126 172.321L578.135 170.311C579.241 169.206 580.747 168.532 581.482 168.815C582.218 169.097 590.017 179.526 598.815 191.991C607.613 204.456 616.285 216.728 618.086 219.261C621.178 223.612 621.267 223.971 619.681 225.724C617.144 228.528 615.705 228.011 612.312 223.079C610.609 220.604 608.624 218.579 607.902 218.579C607.179 218.579 604.613 220.149 602.2 222.068C597.162 226.073 561.39 252.82 559.666 253.87C559.037 254.254 558.249 253.859 557.916 252.992ZM141.312 244.133C132.787 238.942 124.912 234.077 123.812 233.323C122.712 232.568 118.934 230.22 115.417 228.105L109.022 224.259L106.345 227.539C103.897 230.539 103.482 230.703 101.49 229.459C98.9699 227.885 98.7655 225.886 100.843 223.138C103.177 220.053 102.65 219.579 96.8884 219.579C84.9579 219.579 80.3704 208.941 86.9043 196.426C91.6672 187.303 106.429 175.492 122.921 167.608C133.067 162.758 134.719 162.433 135.115 165.208C135.334 166.739 134.761 167.501 133.073 167.924C131.783 168.248 126.022 171.094 120.27 174.247C107.24 181.392 96.5617 191.463 93.9793 199.042C91.83 205.349 91.8827 207.364 94.3007 211.329C95.9169 213.98 96.9153 214.579 99.7152 214.579C104.909 214.579 106.115 213.791 109.849 207.953C113.522 202.211 114.636 201.658 117.429 204.185C119.121 205.717 119.09 205.971 116.757 209.665C115.412 211.796 114.323 214.111 114.338 214.81C114.366 216.22 120.789 220.348 153.655 240.077C160.066 243.925 165.312 247.629 165.312 248.307C165.312 249.258 158.558 253.592 157.101 253.576C156.942 253.574 149.837 249.325 141.312 244.133ZM154.256 219.735C152.807 218.562 151.978 216.806 151.978 214.908C151.978 211.469 157.661 202.579 159.86 202.579C163.11 202.579 165.312 198.767 165.312 193.138C165.312 190.146 164.88 187.431 164.352 187.104C163.824 186.778 161.652 188.084 159.524 190.007C153.864 195.12 143.843 199.578 138.005 199.579C133.891 199.579 132.785 199.127 130.328 196.436C128.748 194.707 127.186 192.215 126.856 190.898C125.366 184.964 130.228 176.56 138.712 170.408C141.866 168.12 143.662 167.579 148.102 167.579C162.709 167.579 175.755 182.741 173.988 197.661C173.295 203.512 173.432 203.579 185.893 203.579C191.073 203.579 195.312 204 195.312 204.514C195.312 205.029 194.85 206.665 194.285 208.15C193.258 210.85 193.256 210.85 185.632 210.159C181.438 209.779 176.779 209.223 175.28 208.923C172.923 208.452 172.255 208.9 170.356 212.229C167.955 216.436 161.384 221.579 158.409 221.579C157.377 221.579 155.508 220.75 154.256 219.735ZM151.312 190.474C155.809 187.778 160.312 183.542 160.312 182.009C160.312 181.351 158.51 179.185 156.309 177.196C152.838 174.06 151.643 173.579 147.325 173.579C140.423 173.579 136.338 177.165 135.581 183.886C135.166 187.566 135.447 189.071 136.834 190.604C139.304 193.334 146.651 193.268 151.312 190.474ZM518.524 200.568C515.983 193.691 516.108 192.877 520.397 188.379C522.652 186.014 527.479 180.704 531.125 176.579C536.751 170.213 541.379 165.214 552.562 153.424C553.524 152.41 554.312 151.223 554.312 150.788C554.312 149.022 539.616 136.534 537.628 136.611C537.179 136.629 534.664 139.666 532.04 143.361C525.655 152.351 513.642 168.71 512.054 170.579C511.352 171.404 509.211 174.319 507.295 177.056C505.379 179.793 503.004 182.937 502.017 184.042C499.962 186.344 499.357 185.777 497.336 179.652L496.11 175.939L504.123 165.33C510.522 156.856 511.901 154.439 510.973 153.324C509.473 151.521 496.057 143.579 494.511 143.579C493.861 143.579 492.313 145.149 491.071 147.067C488.25 151.422 486.096 151.492 482.981 147.329C477.178 139.577 474.525 129.307 477.654 126.71C478.973 125.615 480.048 125.855 484.373 128.21C489.379 130.934 489.561 130.959 490.917 129.105C493.113 126.101 492.62 124.888 487.878 121.625C481.394 117.164 478.812 113.068 478.812 107.243C478.812 103.183 479.262 102.019 481.617 99.9929C487.982 94.5182 500.119 99.5171 505.403 109.79C508.14 115.11 507.849 116.92 502.747 126.357C500.236 131.001 498.395 135.354 498.655 136.031C499.317 137.756 515.378 146.713 517.185 146.365C518.002 146.208 520.664 143.154 523.102 139.579C525.539 136.004 527.934 132.929 528.423 132.746C530.301 132.042 529.183 128.86 526.312 126.738C522.854 124.181 522.565 122.566 525.147 120.228C526.88 118.66 527.367 118.872 533.897 124.043C537.7 127.055 543.595 131.7 546.997 134.366C554.45 140.206 575.312 160.1 575.312 161.368C575.312 161.864 574.418 163.078 573.327 164.066C571.397 165.812 571.216 165.746 566.769 161.647C561.354 156.656 561.619 156.533 551.025 168.981C548.77 171.631 532.632 189.123 525.128 197.052C519.499 202.999 519.435 203.033 518.524 200.568ZM498.322 116.059C500.883 110.767 500.538 109.298 496.095 106.589C486.402 100.679 481.036 108.539 489.194 116.697C491.329 118.832 493.764 120.579 494.605 120.579C495.445 120.579 497.118 118.545 498.322 116.059ZM200.613 188.843C198.138 185.542 192.82 179.016 178.812 162.091C176.612 159.434 173.478 155.531 171.848 153.419C168.368 148.912 167.442 148.757 163.547 152.035C160.862 154.294 160.457 154.369 158.47 152.978C157.283 152.146 156.312 150.887 156.312 150.179C156.312 149.471 160.024 145.814 164.562 142.051C169.099 138.289 173.275 134.731 173.84 134.145C174.406 133.559 176.089 131.993 177.58 130.665C180.213 128.32 180.349 128.303 182.301 130.07C183.407 131.071 184.312 132.341 184.312 132.893C184.312 133.446 182.223 135.815 179.67 138.159L175.028 142.421L177.42 145.549C178.735 147.269 181.838 151.017 184.314 153.878C188.445 158.651 197.458 169.629 209.596 184.673L214.38 190.603L211.781 191.591C206.586 193.566 203.603 192.832 200.613 188.843ZM242.526 160.548C237.453 157.034 236.117 156.918 231.749 159.618C227.475 162.259 219.648 163.176 214.859 161.595C207.977 159.324 203.562 149.313 206.284 142.153C207.71 138.402 206.572 136.645 202.27 135.957C196.661 135.06 191.312 129.838 191.312 125.261C191.312 122.347 192.153 120.895 196.021 117.135C204.701 108.699 214.715 108.424 221.98 116.42C224.092 118.746 224.339 119.801 223.948 124.829C223.702 127.992 223.66 130.579 223.853 130.579C225.725 130.579 236.976 122.635 239.432 119.579C242.039 116.335 242.908 115.828 244.448 116.653C246.926 117.979 246.919 116.008 244.428 110.924C243.392 108.809 242.029 105.792 241.399 104.218C240.448 101.844 239.833 101.461 237.782 101.968C236.424 102.305 234.207 102.853 232.858 103.187C230.803 103.696 230.294 103.359 229.731 101.114C229.361 99.6395 229.453 98.0835 229.935 97.6564C232.09 95.7477 256.433 85.4119 257.662 85.8837C258.417 86.1733 259.284 87.3656 259.589 88.5334C260.048 90.2874 259.203 91.1882 254.728 93.7135C251.749 95.3948 249.312 97.3557 249.312 98.0711C249.312 98.7865 250.835 102.681 252.697 106.726C254.559 110.77 257.996 118.579 260.334 124.079C262.673 129.579 266.324 137.837 268.449 142.429C273.036 152.344 273.299 154.579 269.877 154.579C263.438 154.579 263.5 154.665 252.726 130.829C250.674 126.292 248.622 122.579 248.165 122.579C247.708 122.579 244.741 124.522 241.573 126.896C235.934 131.12 230.988 133.378 222.671 135.528C219.341 136.388 218.187 137.322 216.775 140.298C214.525 145.04 213.773 151.705 215.19 154.352C216.786 157.334 221.316 158.022 225.674 155.944C229.494 154.122 229.61 153.904 229.354 149.039C228.958 141.501 237.815 137.591 242.318 143.315C243.733 145.113 244.296 146.911 243.961 148.565C242.676 154.923 242.624 154.802 247.312 156.359C249.787 157.181 251.968 157.986 252.16 158.148C252.775 158.669 248.848 163.517 247.812 163.516C247.262 163.516 244.883 162.18 242.526 160.548ZM212.53 130.829C213.371 129.867 214.606 127.375 215.275 125.291C216.31 122.069 216.246 121.128 214.843 118.988C212.613 115.583 211.328 115.257 207.101 117.023C202.496 118.947 199.076 123.19 199.875 125.987C201.452 131.502 209.314 134.511 212.53 130.829ZM148.455 160.689C146.689 159.57 147.823 155.911 150.356 154.556C152.483 153.417 156.312 155.149 156.312 157.249C156.312 160.439 151.432 162.576 148.455 160.689ZM434.367 146.329C432.692 144.542 431.319 142.736 431.316 142.317C431.313 141.897 432.205 138.329 433.298 134.386C434.39 130.444 435.049 126.984 434.762 126.696C434.474 126.409 430.318 126.147 425.525 126.115C417.553 126.061 416.432 125.801 412.356 123.059C409.906 121.411 406.418 118.119 404.606 115.743C401.891 112.184 401.312 110.541 401.312 106.403C401.312 100.067 403.437 95.5376 407.578 93.0453C410.179 91.4798 412.505 91.1248 419.468 91.2306C431.172 91.4086 434.872 92.7176 436.353 97.2048C436.99 99.1345 437.324 100.901 437.095 101.129C436.866 101.358 435.137 101.103 433.252 100.562C428.663 99.2462 414.996 99.3104 412.03 100.662C408.426 102.304 406.866 107.578 408.692 111.947C410.375 115.975 413.825 118.031 420.54 119.008C426.857 119.927 437.135 117.139 438.368 114.171C440.744 108.452 445.383 88.2505 444.518 87.3862C443.996 86.8643 438.674 85.1213 432.691 83.5127C403.809 75.7485 404.84 76.1245 404.495 73.2279C403.929 68.4794 404.268 68.5053 428.812 75.0844C442.071 78.6386 459.176 83.3432 464.306 84.8469C469.123 86.2587 470.181 88.0082 468.012 90.9743C466.74 92.7141 466.336 92.7371 461.573 91.3407C458.777 90.5213 456.017 90.1433 455.439 90.5007C454.364 91.1651 450.974 102.643 446.85 119.579C445.578 124.804 443.639 132.454 442.541 136.579C441.443 140.704 440.259 145.317 439.909 146.829C439.087 150.386 438.084 150.295 434.367 146.329ZM290.673 143.908C286.738 142.557 286.454 142.182 284.9 136.283C277.943 109.876 274.032 94.6738 273.601 92.3616C272.815 88.1496 270.895 87.0648 266.573 88.3914C264.56 89.0091 262.841 89.4166 262.753 89.297C262 88.274 261.542 83.8461 262.103 83.017C262.743 82.0725 288.328 74.5795 290.913 74.5795C292.357 74.5795 294.298 78.9833 293.455 80.3475C293.087 80.9437 290.541 81.9759 287.798 82.6414C285.056 83.3069 282.488 84.1368 282.092 84.4855C281.695 84.8343 282.051 87.5857 282.882 90.5996C284.545 96.6334 292.581 127.441 295.078 137.356C296.036 141.162 296.295 143.966 295.735 144.481C295.223 144.952 292.968 144.696 290.673 143.908ZM375.671 135.657C373.943 134.603 372.239 133.271 371.883 132.695C371.209 131.604 373.897 84.1667 374.909 79.2885C375.648 75.7278 373.872 73.5795 370.189 73.5795C367.682 73.5795 367.312 73.2069 367.312 70.6864C367.312 67.6335 368.744 66.5795 372.893 66.5795C375.831 66.5795 375.848 66.3178 373.254 60.9605C369.84 53.9082 372.086 47.8161 379.516 43.9739C384.861 41.2096 397.134 42.4189 406.215 46.6047C415.459 50.8653 427.222 58.557 434.736 65.2537C439.874 69.8334 440.293 70.4905 438.66 71.4043C437.201 72.2209 436.023 71.7703 432.822 69.171C409.761 50.4453 387.609 44.332 380.252 54.6636C377.897 57.9703 378.204 61.5283 381.18 65.431C382.65 67.358 384.178 67.8793 389.643 68.3179L396.312 68.8533L396.312 72.2164L396.312 75.5795L390.41 75.5795L384.509 75.5795L383.849 87.3295C383.486 93.792 382.542 107.172 381.751 117.063C380.959 126.953 380.312 135.616 380.312 136.313C380.312 138.039 379.356 137.904 375.671 135.657ZM516.32 120.017C512.794 117.528 511.51 115.53 511.382 112.329C511.282 109.852 513.525 110.154 518.771 113.322C523.42 116.131 524.575 118.916 522.112 121.379C520.549 122.942 520.421 122.912 516.32 120.017ZM221.062 106.007C217.699 104.183 217.69 104.033 220.817 101.984C223.85 99.997 226.312 101.439 226.312 105.202C226.312 107.924 224.973 108.13 221.062 106.007Z"/>
 </g>
</svg>
