<?xml version="1.0" encoding="UTF-8" standalone="no"?>
<!-- Created with Inkscape (http://www.inkscape.org/) -->

<svg
   version="1.1"
   id="svg2"
   width="401"
   height="400"
   viewBox="0 0 401 400"
   xmlns="http://www.w3.org/2000/svg"
   xmlnsSvg="http://www.w3.org/2000/svg">
  <defs
     id="defs6" />
  <g
     id="g8">
    <path
       style="fill:#ffffff"
       d="M 180.99412,399.11632 C 148.81555,396.27458 112.88662,382.67113 84.261089,362.49116 68.743349,351.55171 48.794449,331.48973 37.658369,315.62427 16.709089,285.77803 4.7023089,252.85952 1.778479,217.25378 -4.2263811,144.12797 29.240739,74.778449 89.926729,34.595749 127.32159,9.8350674 168.86074,-1.2987273 213.94102,1.3560338 284.54347,5.513786 350.40684,49.867536 380.84673,113.75378 c 15.73059,33.01485 21.93561,67.09888 18.86973,103.65114 -2.92246,34.84248 -13.4752,64.70731 -33.55725,94.96889 -10.17318,15.32993 -31.26328,37.29486 -46.55528,48.48642 -31.43172,23.00354 -66.22374,35.80171 -104.34284,38.38228 -16.37274,1.10839 -20.45754,1.09335 -34.26697,-0.12619 z m 56.36632,-12.92969 c 75.17038,-15.06364 133.50083,-73.18775 149.46155,-148.93285 2.18671,-10.37748 2.42401,-13.91091 2.43117,-36.19924 0.007,-20.88914 -0.31234,-26.36535 -2.06825,-35.5 -4.65096,-24.19542 -15.79447,-50.8337 -30.24537,-72.300763 C 347.14123,78.698207 322.81666,54.373635 308.26109,44.575322 286.79403,30.12443 260.15575,18.980916 235.96033,14.329953 c -15.60996,-3.000623 -54.21305,-3.019017 -69.95101,-0.03333 -24.55027,4.657488 -51.17947,15.745645 -72.748231,30.291702 -14.54043,9.806127 -38.86004,34.125896 -48.66513,48.665454 -14.21028,21.071833 -25.01766,46.612833 -29.87538,70.604283 -2.21108,10.92015 -2.45949,14.59615 -2.45949,36.39572 0,21.87723 0.2423,25.43458 2.47755,36.37436 14.61659,71.53662 66.45818,127.04232 136.947201,146.62646 18.48698,5.13629 26.38224,5.97329 51.6746,5.4782 18.51053,-0.36233 25.84209,-0.91137 34,-2.54617 z m -58.59935,-3.37529 C 107.47172,373.33892 49.126999,325.77204 26.605489,258.76296 c -7.18879,-21.38907 -9.3444,-34.87246 -9.3444,-58.44958 0,-17.46005 0.32012,-21.51414 2.58544,-32.74346 5.42833,-26.90849 14.27578,-48.25172 29.16659,-70.360261 12.40787,-18.422095 31.2437,-37.1557 49.24797,-48.980705 21.998271,-14.448216 43.973721,-23.421755 69.694781,-28.459433 11.06631,-2.167427 15.52115,-2.507792 32.80522,-2.506428 17.19238,0.0014 21.82495,0.352398 33,2.500639 66.82278,12.845708 120.78703,60.02438 141.89328,124.051328 6.55044,19.87111 8.55656,33.00217 8.58334,56.18218 0.0205,17.7341 -0.29661,21.88674 -2.55807,33.5 -5.08613,26.11888 -15.80894,51.46511 -30.97438,73.21626 -10.24795,14.6982 -30.34992,34.42778 -45.24507,44.40689 -31.90833,21.37723 -62.62336,31.34218 -100.1991,32.50782 -10.8884,0.33778 -19.90097,0.06 -26.5,-0.81687 z m 58,-4.74162 c 33.88825,-6.87594 64.72294,-23.27586 89.8439,-47.78491 17.4211,-16.99674 26.17955,-28.93421 36.67357,-49.98483 7.36778,-14.77951 12.21207,-28.66546 15.54189,-44.55015 2.51898,-12.01667 2.5975,-13.40517 2.19001,-38.72977 -0.40891,-25.41261 -0.52313,-26.65629 -3.51443,-38.26628 -4.16147,-16.15176 -8.00173,-26.23703 -15.73762,-41.33002 C 352.73647,99.821635 343.96469,87.921275 328.78287,72.687015 305.0794,48.901665 277.56731,33.125161 245.13835,24.721971 c -14.14394,-3.665063 -22.24041,-4.465452 -45.18496,-4.466827 -25.93335,-0.0016 -33.85125,1.158161 -55.32272,8.102982 -27.17165,8.788509 -50.385431,22.979252 -70.988341,43.395651 -25.65146,25.419249 -40.90167,52.756953 -50.48502,90.500003 -1.82715,7.19604 -2.231,12.25047 -2.63252,32.94778 -0.50559,26.06143 0.0195,32.04334 4.32422,49.26433 4.95288,19.81385 14.19988,40.15573 26.72376,58.78789 8.8843,13.21745 31.01504,35.6383 44.68832,45.27415 9.221841,6.49882 30.868221,18.01889 40.000001,21.28775 10.66923,3.81921 21.29358,6.76107 32.5,8.99917 11.23089,2.24299 13.47413,2.36094 35,1.84023 17.39182,-0.4207 25.43834,-1.0511 33,-2.58536 z m -19.5,-8.52378 c 0,-0.93931 1.66633,-3.41431 3.70295,-5.5 l 3.70295,-3.79216 h -3.52864 c -4.49483,0 -7.76883,-3.32224 -8.48164,-8.6066 -1.0104,-7.49056 -1.3777,-8.3934 -3.41467,-8.3934 -1.09418,0 -1.98095,-0.67148 -1.98095,-1.5 0,-0.825 0.20953,-1.5 0.46562,-1.5 0.25609,0 5.46782,-0.69769 11.58162,-1.55042 11.22064,-1.565 29.60457,-7.21919 29.28308,-9.00634 -0.0933,-0.51878 -3.16273,-1.84942 -6.8209,-2.95698 -3.65818,-1.10755 -6.65307,-2.3563 -6.65532,-2.775 -0.0151,-2.80596 1.35394,-2.70739 9.1161,0.65638 4.61007,1.9978 8.95419,3.63236 9.65358,3.63236 1.41456,0 18.1091,-10.30972 25.87622,-15.97986 6.76077,-4.93549 7.27166,-5.19861 7.95308,-4.09607 0.3252,0.52619 -0.31216,1.79838 -1.41636,2.82709 -1.99521,1.85882 -1.95824,1.93702 5.97783,12.64483 4.392,5.92594 7.98545,11.21739 7.98545,11.75877 0,0.54139 -0.84674,0.84054 -1.88165,0.66479 -1.03491,-0.17575 -5.33585,-4.96971 -9.55764,-10.65325 -7.32902,-9.8666 -7.77261,-10.26954 -9.81355,-8.91442 -3.08085,2.04562 -3.16712,3.26742 -0.41716,5.90818 3.462,3.32451 4.14739,8.47885 1.72777,12.99333 -1.06919,1.99488 -1.66959,3.90146 -1.33421,4.23684 0.33538,0.33537 2.78477,0.60977 5.44311,0.60977 4.1511,0 4.83333,0.2796 4.83333,1.98087 0,1.78424 -0.47151,1.9188 -4.75,1.35555 -13.31788,-1.75323 -13.72673,-1.85782 -14.06169,-3.59711 -0.20684,-1.07406 0.2842,-1.73931 1.28382,-1.73931 2.57354,0 6.52787,-4.62126 6.52787,-7.62886 v -2.71977 l -2.31445,2.17432 c -3.36383,3.16015 -8.9949,2.98555 -10.5036,-0.32569 -1.38873,-3.04795 -2.07657,-3.08474 -6.69762,-0.35825 -3.6485,2.15267 -3.86924,3.04476 -1.98335,8.01535 0.33336,0.87861 -1.13456,2.00132 -4.24573,3.24727 -6.3323,2.53595 -7.25525,3.36314 -7.25525,6.50247 0,3.41375 4.7051,6.45626 8.5082,5.50174 2.22302,-0.55794 2.51029,-1.0479 1.99362,-3.40028 -0.49812,-2.26796 -0.21052,-2.85121 1.64523,-3.3365 2.98483,-0.78055 4.85295,0.92382 4.85295,4.42759 0,1.94132 0.79977,3.37854 2.5,4.49257 2.85096,1.86802 3.14557,2.94633 1.02708,3.75928 -0.81011,0.31086 -2.81471,-0.56383 -4.45467,-1.94377 -2.71497,-2.28449 -3.34041,-2.41239 -6.99051,-1.42952 -7.14037,1.9227 -13.10266,-2.02986 -13.06659,-8.66221 0.0214,-3.93577 0.86182,-4.9055 6.25476,-7.21718 4.86582,-2.08573 5.30358,-2.64535 3.85579,-4.92915 -0.67209,-1.06019 -2.90437,-0.56736 -10.98469,2.42513 -11.6819,4.32632 -10.91854,2.60747 -8.52758,19.20153 0.89518,6.21284 1.36774,11.55593 1.05013,11.87354 -1.27872,1.27872 -3.66372,-0.76419 -3.66372,-3.13823 0,-3.63029 -1.38416,-3.14903 -5.66199,1.96862 -3.90112,4.66699 -6.33801,5.74054 -6.33801,2.79216 z m 8.44966,-14.23653 c 1.46244,-1.61598 1.64092,-2.96712 1.0568,-8 -0.76962,-6.63106 -1.15347,-6.87623 -8.4735,-5.41222 -3.18662,0.63732 -3.21102,0.68696 -2.58054,5.25 1.05287,7.62006 2.40946,10.10659 5.51391,10.10659 1.49803,0 3.51553,-0.87497 4.48333,-1.94437 z m 48.58515,-28.62067 c 1.17659,-2.19847 1.16501,-2.69646 -0.081,-3.48468 -2.10612,-1.33231 -3.60092,-1.16029 -5.38038,0.61917 -1.18468,1.18468 -1.31615,2.04273 -0.53624,3.5 1.45056,2.71039 4.37297,2.40123 5.99764,-0.63449 z m -99.87828,39.25364 c -1.38486,-1.66865 -8.15653,-19.13962 -8.15653,-21.04391 0,-2.18566 2.98319,-2.91107 3.61001,-0.87783 1.05294,3.41551 2.12507,4.73777 4.07962,5.0314 2.53035,0.38012 3.95741,-1.36703 4.79998,-5.87663 l 0.66858,-3.57838 -7.60752,-1.67162 c -4.18413,-0.9194 -8.20592,-1.67163 -8.93731,-1.67163 -0.75386,0 -3.40884,5.02065 -6.13012,11.59222 -4.39936,10.62393 -6.50917,13.71518 -8.20403,12.02033 -0.34899,-0.349 0.78003,-4.11709 2.50893,-8.37354 1.7289,-4.25646 3.27134,-8.36574 3.42766,-9.13175 0.17642,-0.86455 -1.80164,-2.25287 -5.2158,-3.66075 -4.98975,-2.0576 -5.66054,-2.1244 -7.23044,-0.71997 -2.57291,2.3017 -3.09348,7.16869 -1.3052,12.20276 1.25437,3.53109 1.31613,4.5929 0.30454,5.23604 -0.87276,0.55488 -1.82829,-0.35963 -3.06072,-2.9293 -1.41067,-2.9413 -1.67952,-5.27547 -1.26388,-10.97279 l 0.52795,-7.23676 -3.94629,-2.01324 c -2.17045,-1.10729 -4.64886,-2.01325 -5.50756,-2.01325 -2.79969,0 -3.98131,4.5033 -2.89891,11.04809 0.76983,4.65485 0.70829,5.95191 -0.28239,5.95191 -1.82305,0 -3.13326,-2.93348 -3.83083,-8.57703 -0.48828,-3.95033 -0.20213,-5.57171 1.44834,-8.20655 1.13126,-1.80597 2.75601,-3.55188 3.61056,-3.8798 0.85454,-0.32792 5.01447,1.01278 9.24427,2.97933 4.22981,1.96655 10.72386,4.70322 14.43124,6.08148 6.72239,2.49913 6.74363,2.5004 7.83102,0.4686 0.59969,-1.12053 0.93016,-2.1975 0.73439,-2.39327 -0.19577,-0.19577 -4.0737,-1.94721 -8.61763,-3.89209 -4.54392,-1.94488 -12.7501,-6.02117 -18.23595,-9.05841 -5.48585,-3.03724 -10.41937,-5.52226 -10.96339,-5.52226 -0.54402,0 -0.98912,0.86734 -0.98912,1.92742 0,1.06008 -1.125,2.81234 -2.5,3.89392 -1.72035,1.35322 -2.5,2.9478 -2.5,5.11307 0,1.73062 -0.98463,4.47835 -2.18806,6.10608 -1.80943,2.44739 -2.90184,2.95951 -6.31291,2.95951 -7.944411,0 -11.397821,-7.09368 -9.965341,-20.46992 0.63794,-5.95704 0.90234,-6.53008 3.013,-6.53008 2.133891,0 2.241411,0.25206 1.383511,3.2434 -0.511611,1.78387 -0.930201,6.19901 -0.930201,9.81144 0,5.22762 0.41612,7.01468 2.038961,8.7566 2.63495,2.82829 4.47751,2.763 7.50649,-0.26599 3.36646,-3.36645 3.07941,-5.83147 -1.04545,-8.97765 -1.925,-1.46827 -3.5,-3.35918 -3.5,-4.20202 0,-0.84285 0.3375,-1.37071 0.75,-1.17303 0.4125,0.19769 2.41589,1.20823 4.45197,2.24565 4.37132,2.22726 6.80117,1.04302 6.79326,-3.31084 -0.004,-2.2112 -1.43374,-3.54801 -9.02267,-8.43637 -7.763521,-5.00082 -10.215241,-7.69119 -7.00896,-7.69119 0.46506,0 5.726,3.22016 11.69098,7.15591 23.1024,15.24318 42.64686,24.5212 63.51653,30.15217 8.48703,2.28993 12.32889,3.77297 12.32889,4.75922 0,0.90042 -0.81508,1.32 -2.19387,1.12935 -1.8146,-0.25091 -2.41285,0.44061 -3.46051,4 -1.41903,4.82113 -3.27304,6.72458 -6.59562,6.77155 -2.92134,0.0413 -2.8639,1.88681 0.25,8.0318 1.375,2.71343 2.5,5.39847 2.5,5.96676 0,1.46622 -2.54886,1.28176 -3.84347,-0.27816 z m -0.65653,-48.13546 c -22.81367,-5.50072 -40.81148,-15.52179 -57.69671,-32.12514 -15.35952,-15.10312 -26.695051,-34.72632 -32.596161,-56.428 -2.368,-8.70844 -2.57834,-11.08311 -2.52441,-28.5 0.0534,-17.25165 0.30235,-19.92018 2.7052,-29 5.78919,-21.87606 15.26729,-39.03742 30.023431,-54.36146 12.34963,-12.82491 25.90239,-21.932452 42.65793,-28.666386 17.11326,-6.8777 23.44995,-7.981422 45.43072,-7.913102 17.68599,0.05497 19.68896,0.253079 28.96209,2.864548 23.24936,6.547409 40.58421,16.72818 56.60526,33.24431 14.90854,15.36924 24.91121,33.18779 30.64731,54.59444 2.54692,9.50492 2.74005,11.59751 2.69834,29.23765 -0.0414,17.52691 -0.25718,19.77531 -2.7828,29 -5.93576,21.6801 -16.5794,40.16823 -31.94656,55.4916 -15.14845,15.10527 -34.67864,26.4565 -54.66753,31.77355 -8.25584,2.19606 -12.03239,2.57552 -28.51611,2.86522 -17.32448,0.30448 -19.88185,0.1213 -29,-2.07723 z m 55.60658,-2.95507 c 42.58194,-11.15702 74.78543,-43.25855 85.86996,-85.59807 2.77996,-10.61859 3.0112,-12.81077 3.01708,-28.60209 0.006,-15.14785 -0.29284,-18.29024 -2.61221,-27.5 -5.82147,-23.11588 -15.27272,-39.53597 -32.38141,-56.25772 -16.87379,-16.49215 -32.77396,-25.506181 -54.87214,-31.107782 -8.84679,-2.242545 -12.03505,-2.532411 -27.85425,-2.532411 -15.90884,0 -18.93595,0.27862 -27.65884,2.545765 -12.01476,3.122727 -24.98096,8.625181 -35.31562,14.986858 -11.25745,6.92971 -31.25042,27.25551 -37.694841,38.32235 -6.19424,10.6372 -11.06186,22.58389 -14.22975,34.9243 -2.32786,9.06808 -2.46855,10.99639 -2.09552,28.72073 0.32572,15.47642 0.7944,20.40401 2.52725,26.57079 9.55464,34.00268 31.733051,61.39726 61.860301,76.4093 10.22294,5.09396 21.66539,9.00413 32.33341,11.04913 11.84051,2.26976 36.82301,1.28731 49.10658,-1.93115 z m -47.90946,-1.1064 c -23.73762,-4.47256 -45.5285,-15.86526 -61.8109,-32.31596 -14.34711,-14.49539 -24.204381,-31.29598 -30.025911,-51.17571 -2.49446,-8.51826 -2.81992,-11.37722 -3.14938,-27.66527 -0.35669,-17.63452 -0.27901,-18.49643 2.65865,-29.5 11.176591,-41.86408 41.016261,-72.0894 82.675991,-83.744521 10.47482,-2.930533 11.97333,-3.089874 29,-3.083665 16.88582,0.0062 18.59415,0.185164 28.70283,3.007639 20.82423,5.814395 36.13644,14.534907 51.43647,29.293747 14.52373,14.01 23.93495,29.60587 30.5898,50.69207 2.79081,8.84279 3.02969,10.82876 3.45314,28.70743 0.45217,19.09122 0.43602,19.27575 -2.6699,30.5 -3.741,13.51931 -11.88577,30.66035 -19.14549,40.29257 -15.76535,20.91751 -38.39021,36.11652 -63.22369,42.47262 -13.93761,3.56732 -36.66256,4.74784 -48.49161,2.51905 z m 24.27784,-3.49167 h 7.22496 l 0.66829,-11.82506 c 0.62921,-11.13365 0.43377,-13.04857 -3.34258,-32.75 -2.20597,-11.50872 -4.01418,-23.32807 -4.01824,-26.26523 -0.008,-6.05699 4.64102,-36.85473 6.3608,-42.13414 2.25589,-6.92515 21.28356,-16.20733 48.61355,-23.71493 12.27048,-3.37072 19.46857,-6.02481 28.17139,-10.3874 6.42931,-3.22292 11.98298,-6.33445 12.34148,-6.91452 0.3585,-0.58007 -1.02624,-4.08183 -3.0772,-7.7817 -6.35889,-11.4712 -5.37742,-11.03021 -11.69611,-5.25528 -7.75674,7.08922 -17.68689,11.3828 -31.24207,13.50838 -16.12742,2.52894 -25.89279,5.71179 -41.47678,13.51865 -7.68669,3.85068 -14.46356,7.00123 -15.05972,7.00123 -0.59615,0 -3.18965,-1.7665 -5.76332,-3.92556 -8.47279,-7.10783 -28.01737,-14.64361 -51.79135,-19.96911 -13.53013,-3.03083 -23.66318,-7.22928 -28.57836,-11.84095 -1.47967,-1.3883 -3.3328,-2.27763 -4.11807,-1.97629 -1.80235,0.69163 -8.59502,12.73617 -8.93619,15.84535 -0.210441,1.91789 0.8014,2.89734 5.74456,5.56064 9.69219,5.22202 19.95514,8.93118 37,13.37229 21.50917,5.6043 32.18571,10.62473 39.54123,18.59345 5.52337,5.98383 7.94936,11.14641 7.96804,16.9562 0.005,1.58619 -1.20151,10.15917 -2.68136,19.05106 l -2.69065,16.16708 1.706,9.83292 c 0.93829,5.40811 2.36053,12.75792 3.16052,16.33292 0.9159,4.09295 1.46226,12.11701 1.47538,21.66821 0.0115,8.34252 0.3106,15.92332 0.66475,16.84622 0.48342,1.25978 1.38692,1.5294 3.625,1.08179 1.6396,-0.32792 6.23232,-0.59622 10.20605,-0.59622 z m -27.40706,-32.58007 c 0.34933,-7.94725 1.16182,-14.45947 2.111,-16.91993 1.34266,-3.48046 1.36424,-4.61057 0.16617,-8.70082 -0.7573,-2.58545 -1.72888,-4.91835 -2.15905,-5.18422 -0.43018,-0.26586 -3.00944,1.27362 -5.73169,3.42106 -5.91251,4.6641 -12.32126,6.37911 -18.06154,4.83336 -2.72147,-0.73284 -5.86109,-3.05239 -10.43426,-7.70882 -7.15114,-7.28133 -10.21519,-12.16755 -14.53587,-23.18026 l -2.83875,-7.23549 -6.81627,0.57145 c -7.63081,0.63974 -8.02033,-0.18424 -1.3003,-2.75064 6.57894,-2.51252 5.8098,-3.94965 -1.71734,-3.20883 -6.82262,0.67147 -6.89139,0.84158 1.85363,-4.58477 l 4.39637,-2.72797 -0.005,-8.27203 c -0.004,-7.25378 -0.3029,-8.6413 -2.42536,-11.27202 -3.01416,-3.73595 -3.76875,-3.01996 -6.09273,5.78106 -1.02965,3.89934 -2.25516,6.60849 -2.88377,6.375 -0.60124,-0.22333 -1.03519,-0.79981 -0.96432,-1.28106 0.9652,-6.55422 1.29164,-20.375 0.48126,-20.375 -2.03843,0 -8.67604,9.25326 -10.96779,15.2898 -2.529591,6.66304 -4.055291,24.0301 -2.731131,31.0885 0.60987,3.25084 0.94229,3.57109 3.135501,3.02063 1.78367,-0.44768 2.45331,-0.20833 2.45331,0.87687 0,3.49533 8.33628,17.80194 13.93005,23.90656 7.80394,8.51662 15.6138,13.48947 31.94175,20.33857 17.12092,7.18174 20.27067,9.30684 23.79707,16.05568 1.55712,2.98002 3.28113,5.27085 3.83113,5.09073 0.5577,-0.18264 1.25118,-6.04197 1.5679,-13.24741 z m -75.02807,-82.87194 c -1.17267,-1.41298 -0.58979,-5.56169 0.77756,-5.53434 4.87485,0.0975 6.97991,3.9541 3.24835,5.95117 -2.47723,1.32577 -2.58931,1.31416 -4.02591,-0.41683 z m 124.36815,92.70201 c 3.64756,-7.99095 6.4516,-9.9635 25.96638,-18.26646 8.1809,-3.48073 17.41131,-8.1962 20.51203,-10.47882 8.59733,-6.32899 15.72948,-14.96849 20.85751,-25.26563 3.70325,-7.43616 4.96022,-9.15039 6.37934,-8.69997 2.50626,0.79545 3.27206,-4.29586 2.61993,-17.41816 -0.38496,-7.74639 -1.16592,-12.30175 -2.88549,-16.83116 -2.27902,-6.003 -8.92586,-15.2898 -10.94338,-15.2898 -0.82213,0 -0.63884,7.24499 0.49332,19.5 0.0508,0.55 -0.35762,1.14928 -0.90762,1.33173 -0.55,0.18244 -1.95941,-2.72486 -3.13202,-6.46068 -1.17261,-3.73582 -2.58877,-6.94465 -3.14701,-7.13073 -0.55825,-0.18608 -1.96134,0.99069 -3.11798,2.61505 -1.7222,2.41859 -2.10299,4.42373 -2.10299,11.07362 v 8.12025 l 4.59054,2.72538 c 8.49221,5.04178 8.56402,5.23899 1.65946,4.55742 -7.4728,-0.73766 -8.24843,0.63304 -1.76034,3.11086 6.6459,2.53809 6.26917,3.34435 -1.3093,2.80212 l -6.77046,-0.48443 -2.83565,7.2276 c -4.31612,11.00107 -7.38167,15.89046 -14.53278,23.17898 -7.31829,7.45891 -11.60135,9.27273 -18.70899,7.92297 -2.29213,-0.43529 -6.11713,-2.29205 -8.5,-4.12614 -2.38286,-1.8341 -4.89494,-3.75637 -5.58238,-4.27172 -0.90252,-0.67659 -1.66681,0.0608 -2.75,2.65324 -1.91704,4.58812 -1.89671,8.30151 0.0754,13.77875 1.07732,2.99207 1.54239,7.56693 1.47074,14.4677 -0.14465,13.93287 1.12607,16.74659 4.36172,9.65803 z m 66.34202,-91.99817 c -2.08237,-0.47416 -2.24239,-2.19619 -0.4339,-4.66944 1.71729,-2.34853 5.09757,-1.66556 5.49458,1.11016 0.34388,2.40418 -2.2186,4.20643 -5.06068,3.55928 z m -164.75,68.24817 c -5.32959,-5.39663 -8,-6.79428 -8,-4.18709 0,2.41682 9.16609,9.51027 12.46584,9.64705 0.53121,0.022 -1.47842,-2.43496 -4.46584,-5.45996 z m 145.63621,1.90627 c 4.02688,-2.32686 5.93543,-5.23463 4.42633,-6.74373 -0.80223,-0.80223 -2.65926,0.46619 -6.83211,4.66656 -5.81848,5.85687 -5.14368,6.4395 2.40578,2.07717 z M 154.21578,248.69918 c -2.21335,-2.66692 -5.03196,-3.77021 -6.31205,-2.47072 -1.48991,1.51249 1.73807,4.02532 5.17093,4.02532 2.08574,0 2.24793,-0.22097 1.14112,-1.5546 z m 98.41911,0.43014 c 1.4589,-0.66471 2.2521,-1.68685 1.94007,-2.5 -0.78684,-2.05045 -2.86482,-1.67247 -6.00811,1.09286 -2.69081,2.36727 -2.71551,2.46969 -0.60281,2.5 1.21162,0.0174 3.3135,-0.4744 4.67085,-1.09286 z m -112.07912,-21.8944 c 0.53475,-2.04487 -5.5437,-12.29328 -8.96222,-15.11051 -1.52347,-1.25551 -1.60784,-0.96407 -1.00452,3.46999 0.36225,2.66234 1.53636,6.82484 2.60912,9.25 1.53696,3.47455 2.46769,4.40938 4.39008,4.40938 1.60619,0 2.61995,-0.68968 2.96754,-2.01886 z m 127.56616,-1.73114 c 1.04583,-2.0625 2.23619,-6.21426 2.64527,-9.22614 0.67673,-4.98256 0.59751,-5.35474 -0.87898,-4.12937 -0.89252,0.74072 -3.41729,4.03411 -5.61062,7.31864 -3.21285,4.81128 -3.78947,6.34259 -2.967,7.87937 1.67846,3.13623 4.70144,2.3185 6.81133,-1.8425 z m -62.4849,-60.00693 c 2.30654,-2.02517 12.08883,-5.80505 36.85537,-14.24092 26.21978,-8.93088 33.44343,-11.7487 32.49205,-12.6746 -0.67285,-0.65483 -6.62336,-4.28779 -13.22336,-8.07326 -6.6,-3.78546 -16.41461,-9.94481 -21.81024,-13.68744 -14.72589,-10.21447 -16.03388,-10.56685 -39.22244,-10.56685 -19.41044,0 -19.54441,0.015 -25.93249,2.91154 -3.53169,1.60134 -10.60931,5.81639 -15.72805,9.36677 -5.11873,3.55038 -14.5891,9.47478 -21.04528,13.16534 -6.45617,3.69056 -11.93292,7.0247 -12.17055,7.4092 -0.23764,0.3845 14.6296,5.81689 33.0383,12.07198 23.67962,8.04609 34.51984,12.2069 37.05806,14.22403 4.45905,3.5436 5.74574,3.55612 9.68863,0.0942 z m -8.46737,-1.4139 c -0.96276,-1.79895 -0.85039,-2.39854 0.65595,-3.5 0.99976,-0.73105 2.32072,-1.32917 2.93548,-1.32917 0.61476,0 1.93572,0.59812 2.93548,1.32917 1.50634,1.10146 1.61871,1.70105 0.65595,3.5 -0.70288,1.31333 -2.12152,2.17083 -3.59143,2.17083 -1.46991,0 -2.88855,-0.8575 -3.59143,-2.17083 z M 161.7688,150.65816 c -16.49577,-5.76893 -30.39836,-10.89503 -30.89465,-11.39132 -0.53647,-0.53647 0.27136,-1.14345 1.9923,-1.49695 10.03953,-2.06225 16.36811,-4.49498 31.68848,-12.18119 14.64599,-7.34788 27.56449,-12.25072 32.45616,-12.31778 0.96322,-0.0132 1.25,5.10939 1.25,22.32787 0,20.3775 -0.16102,22.49074 -1.82874,24 -1.00581,0.91025 -2.46831,1.63099 -3.25,1.60167 -0.78169,-0.0293 -14.91779,-4.77336 -31.41355,-10.5423 z m 42.73284,8.60919 c -1.78633,-2.86036 -1.77746,-46.02093 0.009,-45.99643 4.89167,0.0671 17.81017,4.9699 32.45616,12.31778 15.32037,7.68621 21.64895,10.11894 31.68848,12.18119 1.78526,0.36672 2.53809,0.95116 1.96431,1.52494 -1.11911,1.11911 -61.21249,21.93306 -63.3684,21.94829 -0.8302,0.006 -2.0677,-0.88323 -2.75,-1.97577 z M 47.259029,226.7513 c -1.19059,-1.43457 -1.07617,-3.31204 0.61737,-10.13086 l 0.71198,-2.86666 -4.16652,3.75 c -4.43024,3.98735 -7.82163,4.79736 -8.8513,2.11408 -0.9984,-2.6018 0.95314,-4.60831 6.25966,-6.43599 5.15627,-1.77594 5.10932,-1.87024 -2.06913,-4.15498 -3.16725,-1.00807 -4.06325,-1.81841 -4.30381,-3.89241 -0.23474,-2.0238 0.21833,-2.75584 1.99284,-3.21988 1.78573,-0.46698 3.24369,0.32887 6.55381,3.5775 4.45685,4.37407 4.99281,3.95091 3.1951,-2.52266 -1.47032,-5.29464 -0.46204,-7.91241 2.8979,-7.5238 2.94929,0.34112 3.18042,1.59042 1.81464,9.80814 l -0.7479,4.5 4.43463,-4.34624 c 3.9319,-3.85354 4.68116,-4.2143 6.60939,-3.18234 3.75831,2.01138 2.28986,5.28414 -3.18649,7.1018 -2.60694,0.86528 -4.98234,1.81568 -5.27867,2.11201 -0.29634,0.29634 1.47659,1.10306 3.93983,1.79273 2.46324,0.68966 5.19748,2.04827 6.0761,3.01913 1.46375,1.61743 1.46196,1.90072 -0.0214,3.38406 -2.3972,2.3972 -4.03644,2.01076 -8.47311,-1.99751 -4.21309,-3.80627 -4.67861,-3.3569 -2.95433,2.85179 1.65178,5.94763 -1.78015,10.20276 -5.05062,6.26209 z m 302.004921,0.006 c -0.95831,-1.1547 -0.98628,-2.51221 -0.12244,-5.94282 1.71853,-6.82492 1.45718,-7.02777 -3.46841,-2.69209 -3.95207,3.47874 -4.85301,3.873 -6.5,2.84444 -2.18424,-1.36408 -2.50081,-3.98802 -0.66201,-5.48726 0.6875,-0.56054 3.1625,-1.58687 5.5,-2.28073 4.45941,-1.32373 5.68039,-2.94499 2.21788,-2.94499 -1.11766,0 -3.59266,-0.65204 -5.5,-1.44897 -2.63738,-1.10204 -3.46788,-2.04384 -3.46788,-3.93269 0,-3.97424 3.54926,-4.41627 7.35009,-0.9154 6.5696,6.05113 6.66912,6.05323 5.09373,0.10758 -1.7874,-6.74582 -1.15378,-9.02884 2.39202,-8.61873 2.32941,0.26942 2.65871,0.74792 2.62079,3.80814 -0.0239,1.925 -0.40779,5.075 -0.85319,7 l -0.80983,3.5 4.36036,-4.21988 c 3.38722,-3.27809 4.87292,-4.08585 6.657,-3.6193 1.77451,0.46404 2.22758,1.19608 1.99284,3.21988 -0.24837,2.14131 -1.16879,2.9064 -5.0437,4.19252 -2.60694,0.86528 -4.96398,1.79732 -5.23787,2.07121 -0.27389,0.27388 1.99842,1.28489 5.04957,2.24668 5.07666,1.60028 5.52126,1.9762 5.23787,4.4288 -0.48423,4.19074 -3.89865,3.99535 -8.90357,-0.5095 l -4.2334,-3.81041 0.71198,2.86666 c 1.69355,6.81882 1.80796,8.69629 0.61737,10.13086 -1.58622,1.91128 -3.4161,1.91345 -4.9992,0.006 z m -15.56878,-54.91009 c -0.60478,-2.40963 -0.30097,-3.21489 1.78667,-4.73563 2.22057,-1.61757 2.43135,-2.29169 1.79856,-5.75212 -0.97509,-5.33234 0.9839,-9.66263 5.30307,-11.7223 5.39021,-2.57041 8.78938,-0.9479 10.73971,5.12634 1.65709,5.16094 3.28317,6.63895 4.32297,3.92929 1.07951,-2.81324 -5.30384,-21.43901 -7.34747,-21.43901 -0.58546,0 -5.9905,2.2052 -12.0112,4.90045 -9.00039,4.02914 -11.14693,4.65924 -12.07265,3.54381 -1.46326,-1.76312 -0.69031,-2.89652 3.0248,-4.43537 3.00195,-1.24345 3.93557,-3.3259 2.02146,-4.50889 -0.55,-0.33992 -1,-2.79852 -1,-5.46356 0,-4.82151 0.0269,-4.86068 5.41749,-7.90296 2.97961,-1.68159 5.65629,-3.44385 5.94817,-3.91611 0.29188,-0.47227 -0.35438,-2.31405 -1.43613,-4.09284 l -1.96681,-3.23417 -2.73136,1.89209 c -4.30587,2.98281 -6.14481,3.31367 -9.31267,1.6755 -3.37782,-1.74673 -3.24802,-1.89927 -5.33065,6.26462 -1.20074,4.7069 -3.77727,6.83264 -4.86041,4.01002 -0.53979,-1.40665 3.97095,-16.4803 6.12934,-20.48259 0.66737,-1.2375 2.08896,-2.25 3.15908,-2.25 1.73071,0 1.87754,0.4972 1.3289,4.5 -0.58284,4.25228 -0.48546,4.49878 1.76913,4.47776 1.31225,-0.0122 3.47539,-0.85972 4.80696,-1.88331 l 2.42104,-1.86109 -4.77146,-6.6866 c -2.6243,-3.677631 -5.41278,-6.932699 -6.19661,-7.233484 -0.86614,-0.332368 -4.90867,2.636922 -10.30605,7.569924 -8.52457,7.79114 -12.06796,9.75382 -12.06796,6.68442 0,-0.78781 4.05,-5.16738 9,-9.732385 4.95,-4.565 9,-8.786237 9,-9.380528 0,-0.59429 -1.27471,-2.301775 -2.83268,-3.79441 l -2.83269,-2.713883 -8.25954,9.526791 c -4.54275,5.239736 -8.86649,9.526795 -9.6083,9.526795 -2.61968,0 -2.65384,-2.19532 -0.076,-4.885982 2.57945,-2.6924 3.41062,-5.114021 1.75523,-5.114021 -0.46968,0 -2.04468,-1.103513 -3.5,-2.452251 -3.81171,-3.532577 -3.41125,-6.87109 1.60398,-13.371971 2.74551,-3.558801 3.8075,-5.656491 3,-5.925705 -1.51671,-0.50566 -1.64758,-2.886322 -0.20758,-3.77629 1.0638,-0.657466 7.55585,4.512404 18.53457,14.759793 6.06089,5.657162 6.16669,5.70714 7.93787,3.75 1.26547,-1.398327 3.0771,-1.983576 6.14013,-1.983576 7.48042,0 10.63906,5.023089 11.79046,18.750003 0.5928,7.06736 0.47084,8.25 -0.85078,8.25 -1.1922,0 -0.83758,1.19299 1.56057,5.25 8.94407,15.13091 22.23542,50.75157 19.83501,53.15762 -1.21706,1.21992 -3.99025,-1.16026 -3.99025,-3.42475 0,-1.50963 -0.51943,-1.6551 -3.50533,-0.98167 -3.98825,0.8995 -3.67098,1.20658 -5.94189,-5.7512 -1.50997,-4.62636 -2.03658,-5.25 -4.43315,-5.25 -3.58766,0 -5.11963,1.68576 -5.11963,5.63358 0,2.78148 0.38329,3.27782 2.74145,3.55 5.60033,0.6464 3.5361,6.81642 -2.28049,6.81642 -2.44083,0 -3.81275,0.71193 -5.29617,2.74834 l -2.00203,2.74834 -0.72868,-2.90332 z m 5.97192,-40.2715 c 1.92112,-5.63825 1.90752,-5.32193 0.22886,-5.32193 -2.15284,0 -6.63486,3.96708 -6.63486,5.87258 0,2.00036 1.85834,4.12742 3.606,4.12742 0.6633,0 1.9233,-2.10516 2.8,-4.67814 z m 6.04695,2.51762 c 2.84795,-1.29761 3.14119,-3.14274 1.08696,-6.83948 l -1.38922,-2.5 -0.92892,2.5 c -1.36226,3.66626 -2.33079,8 -1.78788,8 0.2596,0 1.61818,-0.52223 3.01906,-1.16052 z M 337.7974,91.32407 c -2.27406,-4.397558 -5.06022,-5.612186 -8.18179,-3.566857 -3.03067,1.985772 -2.89006,2.413348 3.84148,11.68129 l 5.304,7.302507 0.29666,-6.203 c 0.19923,-4.165561 -0.21475,-7.191981 -1.26035,-9.21394 z m -30.73184,-6.370989 4.22088,-4.300766 -2.81739,-2.699234 c -1.54957,-1.484649 -3.30291,-2.699304 -3.89632,-2.699304 -1.39056,0 -8.31164,7.63928 -8.31164,9.17414 0,1.790754 3.11116,4.82586 4.94678,4.82586 0.90024,0 3.5362,-1.935345 5.85769,-4.300766 z M 52.927759,159.58711 c -0.36667,-0.36666 -0.66667,-1.41943 -0.66667,-2.33948 0,-1.63856 -3.78943,-3.99385 -6.42573,-3.99385 -0.73239,0 -1.89081,1.35 -2.57427,3 -1.28117,3.09302 -2.42218,3.74394 -3.50152,1.99754 -0.87848,-1.42142 6.62457,-22.29775 11.49639,-31.98733 4.11045,-8.17528 6.77085,-10.05287 6.22198,-4.39117 -0.27069,2.79214 0.20282,3.16058 10.75,8.3646 7.89475,3.8953 11.03315,5.95191 11.03315,7.23008 0,2.75252 -2.21111,2.2004 -13.12868,-3.2783 -5.5508,-2.78552 -10.69409,-4.83367 -11.42955,-4.55145 -0.73546,0.28222 -2.0502,1.89192 -2.92164,3.57711 -1.52872,2.95621 -1.50418,3.09326 0.69772,3.89684 1.25518,0.45808 6.66429,2.36494 12.02023,4.23747 5.35594,1.87254 9.96085,3.98414 10.23314,4.69246 0.87247,2.26963 -2.47107,2.53704 -8.04253,0.64325 -5.98836,-2.03551 -6.84937,-1.6825 -7.88377,3.23233 -0.55503,2.63712 -0.323,3.27223 1.39464,3.81739 3.08895,0.98039 2.49051,2.94367 -1.47348,4.83397 -3.88399,1.85214 -4.8042,2.01376 -5.79941,1.01854 z m 2.61881,-12.35523 c 0.71286,-2.75101 0.54502,-3.62888 -0.89518,-4.68198 -3.19124,-2.33349 -6.08978,-1.59693 -7.29247,1.8531 -1.55435,4.4588 -1.46855,4.68711 2.15217,5.72709 4.44365,1.27635 5.02624,0.99659 6.03548,-2.89821 z m 15.52757,-22.4781 c -1.64001,-1.88618 -3.17293,-2.50772 -6.24338,-2.53142 -3.20178,-0.0247 -4.47092,-0.58186 -5.95122,-2.61252 -1.77656,-2.43706 -1.78976,-2.7736 -0.23645,-6.03092 1.43938,-3.01842 2.04881,-3.41078 4.87337,-3.13749 4.18328,0.40475 5.29578,3.81235 1.24463,3.81235 -3.96009,0 -2.96181,3.40445 1.11505,3.80268 2.63855,0.25774 3.28643,-0.1506 4.36313,-2.75 0.80943,-1.95414 1.97903,-3.05268 3.25013,-3.05268 1.51373,0 1.80519,0.41593 1.2263,1.75 -0.41766,0.9625 -0.96503,3.2125 -1.2164,5 -0.38164,2.71396 -0.13467,3.25 1.4974,3.25 4.67786,0 7.12674,-8.28465 3.60061,-12.18097 -1.4495,-1.60168 -1.48764,-2.16757 -0.29618,-4.39385 1.65844,-3.09881 0.38055,-5.758848 -3.00724,-6.259814 -2.43023,-0.359368 -9.0328,5.145304 -9.0328,7.530804 0,1.61262 -1.63196,1.70834 -2.59375,0.15213 -0.39149,-0.63344 -0.0805,-1.64594 0.69098,-2.25 0.77152,-0.60407 1.40277,-1.61512 1.40277,-2.2468 0,-1.80013 17.57814,-21.492125 18.81654,-21.079323 0.60854,0.202847 1.12377,1.499119 1.14495,2.880604 0.029,1.892513 2.13417,4.305885 8.53851,9.788637 4.675,4.002266 8.839191,7.589422 9.253751,7.971462 0.41456,0.38204 0.17447,1.48682 -0.53353,2.45506 -1.21605,1.66305 -1.44132,1.63929 -4.071451,-0.42958 l -2.78418,-2.19004 -1.65857,2.37584 c -2.88379,4.13094 -6.41761,6.87584 -8.85204,6.87584 -2.16286,0 -2.35398,0.41219 -2.35398,5.07692 0,4.27801 -0.45998,5.53691 -2.92307,8 -3.58153,3.58153 -6.4055,3.7105 -9.26388,0.42308 z m 18.35821,-19.15499 c 1.06081,-0.96001 1.82874,-3.02697 1.82874,-4.92219 0,-2.660943 -0.8809,-4.020188 -4.74725,-7.325038 l -4.74725,-4.057827 -2.47806,2.478058 -2.47806,2.478057 2.4189,1.751964 c 1.3304,0.963579 2.87156,2.059005 3.42481,2.434279 0.55326,0.375273 0.89791,2.512777 0.76591,4.750007 -0.21261,3.60318 0.0126,4.06768 1.97175,4.06768 1.21648,0 3.03471,-0.74474 4.04051,-1.65499 z m 17.662071,-8.276646 c -0.18333,-0.512399 -3.65865,-4.79799 -7.722931,-9.523537 -7.18734,-8.35673 -7.45279,-8.550506 -9.69785,-7.079482 -2.7621,1.809796 -3.99473,0.490987 -2.37311,-2.53903 0.93284,-1.743024 0.76509,-2.50549 -0.95376,-4.335118 -2.78692,-2.966537 -2.76007,-8.490196 0.0559,-11.512839 3.25054,-3.489039 8.20364,-5.129512 17.459911,-5.782737 7.40157,-0.522336 8.39847,-0.395323 8.39847,1.070032 0,1.383465 0.67859,1.213653 4.04039,-1.011081 3.07856,-2.037299 4.31813,-2.396053 5.20714,-1.507045 0.88901,0.889008 0.78577,1.547738 -0.43367,2.767177 -1.46722,1.467228 -1.02824,2.479417 5.27471,12.162263 5.27675,8.106349 6.6184,10.871188 5.77084,11.892436 -1.68412,2.029238 -2.09281,1.738425 -5.85941,-4.169406 -1.925,-3.019321 -3.88053,-5.491998 -4.34563,-5.494838 -0.4651,-0.0028 -2.13466,0.912711 -3.71015,2.034556 -2.47536,1.762612 -2.73408,2.382802 -1.90437,4.565099 1.31179,3.45026 1.34594,3.395183 -2.10559,3.395183 -5.11832,0 -7.08785,-1.616142 -6.46381,-5.304012 0.3899,-2.304195 -0.0105,-3.84449 -1.43511,-5.520077 -1.90116,-2.236166 -2.08107,-2.261346 -4.75563,-0.665596 -1.52884,0.91217 -3.511111,2.643296 -4.405061,3.846945 -1.57407,2.119404 -1.37744,2.471697 6.232001,11.165597 7.92195,9.050946 9.56313,12.477143 5.97668,12.477143 -1.05416,0 -2.06666,-0.419235 -2.25,-0.931633 z M 94.512479,72.003777 c 1.22334,-0.6875 2.78472,-1.990333 3.46972,-2.895185 0.68501,-0.904851 3.390491,-2.929851 6.012181,-4.5 l 4.76671,-2.854815 -5.5,-0.321682 c -6.992561,-0.408979 -12.343931,1.171449 -14.353991,4.239192 -1.46145,2.230452 -1.42819,2.589676 0.4622,4.992928 2.36151,3.002173 2.24071,2.970711 5.14318,1.339562 z m 22.712671,-1.688003 c 2.30494,-1.771256 2.37056,-2.068228 1.01621,-4.598862 -1.98627,-3.711373 -3.40033,-4.012275 -6.95626,-1.480233 -3.03327,2.159877 -3.0392,2.182792 -1.31988,5.093368 2.00042,3.386457 3.8152,3.632861 7.25993,0.985727 z m 141.36584,6.355333 c -0.34488,-0.898761 1.61574,-6.192272 4.53719,-12.25 2.82949,-5.867031 5.14191,-11.13943 5.13872,-11.716442 -0.007,-1.275142 -6.88997,-3.900058 -7.81113,-2.978904 -0.36057,0.360572 -2.52449,5.689382 -4.80871,11.8418 -2.52341,6.79666 -4.75083,11.306045 -5.67631,11.491584 -2.76048,0.553421 -2.7856,-1.594636 -0.0972,-8.310163 1.49776,-3.741335 2.26907,-6.977177 1.77065,-7.428322 -0.48572,-0.439642 -3.91,-1.598459 -7.60952,-2.575148 -7.44129,-1.964535 -10.15341,-1.139853 -9.57186,2.910544 0.37132,2.586122 3.28822,3.250622 5.32561,1.213229 2.85731,-2.857311 6.45605,0.678478 4.46917,4.390994 -0.54797,1.02389 -0.88386,2.885347 -0.74641,4.13657 0.37725,3.434374 -2.48606,3.351084 -4.4536,-0.12955 -0.95467,-1.688853 -2.53495,-3.013522 -3.595,-3.013522 -5.24666,0 -7.20222,-9.281077 -2.7015,-12.82134 1.93692,-1.52358 2.5,-2.88554 2.5,-6.0469 0,-3.446939 0.42997,-4.302745 2.76962,-5.512626 2.31095,-1.195039 3.27981,-1.217707 5.85034,-0.136882 4.40006,1.850087 5.94944,6.97037 2.88004,9.517748 -2.55232,2.118241 -1.68091,3 2.96482,3 3.39077,0 4.71383,-0.465298 5.5,-1.934259 1.47651,-2.758885 1.4089,-2.882753 -2.45465,-4.497044 -2.47116,-1.032518 -3.31562,-1.91212 -2.89301,-3.01342 0.7346,-1.914335 -0.0473,-2.003941 7.58667,0.869467 13.62084,5.126871 20.79617,8.79202 20.79617,10.62266 0,1.458517 -0.4962,1.642848 -2.75,1.021578 -2.69647,-0.743297 -2.86053,-0.527509 -8.42886,11.086483 -5.50806,11.488267 -7.22458,13.562727 -8.49124,10.261865 z M 243.08064,45.493561 c 0.2427,-1.701145 -0.17815,-2.239784 -1.75,-2.239784 -1.55658,0 -2.06955,0.63784 -2.06955,2.573324 0,3.282339 3.34535,2.990208 3.81955,-0.33354 z m -94.829,26.235358 c -0.5448,-1.432938 -0.99055,-3.026046 -0.99055,-3.540242 0,-1.420008 -1.60312,-1.118033 -3,0.5651 -1.97362,2.378065 -8.2716,1.904247 -10.82569,-0.814451 -3.17125,-3.375648 -2.951,-8.929443 0.46055,-11.612969 2.686,-2.112806 5.85214,-2.711652 6.74014,-1.274834 0.76089,1.231144 -0.63942,2.859172 -3.12698,3.635489 -1.84349,0.575317 -2.13751,1.189286 -1.62089,3.384781 0.84989,3.611835 1.7281,4.412548 4.40541,4.016649 4.03358,-0.596455 4.52883,-2.985628 2.01323,-9.712287 -1.26993,-3.395754 -2.89867,-6.122378 -3.65717,-6.122378 -0.75216,0 -4.31668,1.180614 -7.92116,2.623586 -6.61603,2.648577 -8.1714,2.653283 -7.16155,0.02167 0.66849,-1.742061 31.46482,-13.947221 33.35843,-13.220572 2.73451,1.049328 1.14543,2.473167 -5.66432,5.075317 -5.18693,1.982036 -7,3.15494 -7,4.528408 0,2.674761 1.84728,3.419775 3.89175,1.569553 5.10652,-4.621334 13.93225,1.196196 12.59872,8.304517 -0.95583,5.095005 -2.26289,7.097521 -4.63264,7.097521 -1.57013,0 -1.90423,-0.423756 -1.37974,-1.75 1.4984,-3.788966 1.74223,-8.279602 0.52893,-9.741536 -1.78943,-2.156136 -4.74753,-1.86184 -6.06699,0.603595 -1.31798,2.462671 -0.9886,4.477936 1.89848,11.615335 2.10283,5.198579 2.10354,5.233253 0.12854,6.290242 -1.6871,0.902908 -2.13501,0.670789 -2.9765,-1.542494 z m 72.75534,-6.694955 c -0.27817,-0.724898 0.39055,-6.651819 1.48605,-13.170934 2.17894,-12.966559 2.02824,-13.56299 -3.43483,-13.59394 -2.64074,-0.01496 -2.68986,0.0946 -2.13662,4.765894 0.54924,4.637435 0.43716,4.89785 -3.72729,8.660177 l -4.29356,3.87897 3.75666,3.153905 c 3.30658,2.776039 3.56989,3.30891 2.19777,4.447669 -1.32179,1.096985 -2.28403,0.684238 -6.32648,-2.713696 -2.62217,-2.204102 -5.8475,-5.165889 -7.16739,-6.581748 -2.11414,-2.267869 -2.20164,-2.650328 -0.73505,-3.21311 0.9156,-0.351351 2.62696,-0.387194 3.80301,-0.07965 2.32196,0.607206 7.83184,-1.769617 7.83184,-3.378456 0,-0.549882 -1.07407,-0.723797 -2.40581,-0.389552 -3.55666,0.892665 -7.41157,-2.02478 -7.78659,-5.892988 -0.28715,-2.961784 -0.59078,-3.193202 -4.56675,-3.480673 -2.82324,-0.204126 -4.42684,0.13301 -4.75655,1 -0.27357,0.71937 -0.14553,6.394936 0.28453,12.612369 0.81111,11.726286 0.46644,13.883573 -2.06308,12.912903 -1.16146,-0.445693 -1.65829,-3.3861 -2.22121,-13.145718 -0.7135,-12.370471 -0.76317,-12.571609 -3.10482,-12.571609 -2.91682,0 -3.19944,-2.605054 -0.37972,-3.5 1.59713,-0.50691 2,-1.513034 2,-4.994808 0,-5.505487 3.26059,-8.505192 9.24488,-8.505192 5.95466,0 19.5366,7.833914 20.94745,12.082259 0.31238,0.940632 3.13559,1.754269 8.38925,2.417741 6.92801,0.874923 7.95628,1.265338 8.22112,3.121402 0.25448,1.783506 -0.10191,2.044056 -2.23756,1.635801 -3.16462,-0.604955 -3.25271,-0.379248 -5.41412,13.872003 -1.31482,8.669254 -2.09842,11.429564 -3.31092,11.663072 -0.87365,0.168248 -1.81604,-0.287193 -2.09421,-1.012091 z m -9.85017,-22.694575 c 2.10714,-1.334232 0.51492,-4.085612 -2.36434,-4.085612 -2.03347,0 -2.53138,0.491734 -2.53138,2.5 0,2.621933 2.15618,3.320273 4.89572,1.585612 z m 0.0259,-9.680103 c -2.37052,-2.856302 -11.34291,-7.386512 -14.64853,-7.396125 -2.34217,-0.0068 -3.67469,0.673956 -4.85995,2.482896 -2.69576,4.114251 -1.32382,5.372177 6.28755,5.765045 15.85777,0.818513 14.67066,0.894997 13.22093,-0.851816 z"
       id="path50" />
  </g>
</svg>
